<svg xmlns="http://www.w3.org/2000/svg" viewBox="0 0 400 300"><g data-name="#178_coding_flatline"><rect x="115.8" y="130.59" width="164.15" height="96.13" rx="9.26" fill="#fff"/><path d="M270.68 227.22H125.06a9.77 9.77 0 01-9.76-9.76v-77.6a9.78 9.78 0 019.76-9.77h145.62a9.78 9.78 0 019.76 9.77v77.6a9.77 9.77 0 01-9.76 9.76zm-145.62-96.13a8.77 8.77 0 00-8.76 8.77v77.6a8.77 8.77 0 008.76 8.76h145.62a8.77 8.77 0 008.76-8.76v-77.6a8.77 8.77 0 00-8.76-8.77z" fill="#231f20"/><rect x="169.08" y="192.4" width="57.59" height="27.52" rx="3.22" fill="#fff"/><path d="M223.45 220.42h-51.16a3.72 3.72 0 01-3.71-3.72v-21.09a3.71 3.71 0 013.71-3.71h51.16a3.71 3.71 0 013.71 3.71v21.09a3.72 3.72 0 01-3.71 3.72zm-51.16-27.52a2.71 2.71 0 00-2.71 2.71v21.09a2.71 2.71 0 002.71 2.72h51.16a2.71 2.71 0 002.71-2.72v-21.09a2.71 2.71 0 00-2.71-2.71z" fill="#d1d3d4"/><rect x="125.32" y="137.39" width="145.1" height="47.46" rx="5.14" fill="#fff"/><path d="M265.28 185.35H130.46a5.65 5.65 0 01-5.64-5.64v-37.17a5.65 5.65 0 015.64-5.65h134.82a5.65 5.65 0 015.64 5.65v37.17a5.65 5.65 0 01-5.64 5.64zm-134.82-47.46a4.65 4.65 0 00-4.64 4.65v37.17a4.64 4.64 0 004.64 4.64h134.82a4.64 4.64 0 004.64-4.64v-37.17a4.65 4.65 0 00-4.64-4.65z" fill="#d1d3d4"/><path d="M127.7 234h34.18a43.94 43.94 0 013.31-6.47c5.44-7.71 12.93-12.47 17-23.35s5.44-19.5 2.26-21.09-7 11.11-11.11 14.29c0 0-3.09-15.27-.6-22.07s7.58-11.9 6.9-16-2.57-3-5.61-.42c-1.59 1.36-4.24 5.74-4.24 5.74a15.05 15.05 0 012.19-6.27c3.1-4.61-4.23-6.65-9.67 1.51 0 0 2.12-8.39-2-5.9s-8.32 12.1-8.32 12.1 2.27-12.7-2.94-9.3-7.18 19.73-6.5 27 2.2 24.11-2.42 30.16c-1.47 1.98-6.44 10.07-12.43 20.07z" fill="#fff"/><path d="M161.88 234.5H127.7a.52.52 0 01-.44-.25.49.49 0 010-.51c7-11.57 11.16-18.34 12.51-20.12 4.56-6 2.94-23.28 2.33-29.8-.72-7.66 1.28-23.9 6.71-27.45 1.13-.73 2.08-.86 2.82-.36 1.49 1 1.52 4.46 1.29 7.09 1.6-3.08 4.38-7.83 7.17-9.53 1-.62 1.82-.71 2.42-.26 1 .74.94 2.85.71 4.54 2.63-3.09 5.4-4.12 7.3-4a2.8 2.8 0 012.46 1.43 3.39 3.39 0 01-.58 3.38 12.72 12.72 0 00-1.58 3.46 20.36 20.36 0 012.88-3.59c2.1-1.8 3.55-2.76 4.74-2.32.86.31 1.39 1.27 1.69 3 .43 2.59-1.24 5.45-3.17 8.77a47.64 47.64 0 00-3.75 7.46c-2.08 5.67-.14 17.61.46 20.93a34.64 34.64 0 004.37-6.81c2.36-4.33 4.41-8.07 6.64-7 4.65 2.33.13 16-2 21.71-2.71 7.22-6.91 11.8-11 16.22a75.13 75.13 0 00-6.09 7.25 43.75 43.75 0 00-3.27 6.38.5.5 0 01-.44.38zm-33.3-1h33a43 43 0 013.23-6.26 74.58 74.58 0 016.19-7.34c4-4.36 8.13-8.86 10.77-15.9 4.23-11.28 5.19-19.12 2.51-20.46-1.37-.7-3.47 3.15-5.32 6.54-1.67 3.07-3.41 6.25-5.26 7.69a.47.47 0 01-.48.07.49.49 0 01-.32-.36c-.12-.63-3.09-15.49-.58-22.34a47.93 47.93 0 013.83-7.62c1.83-3.15 3.41-5.87 3-8.11-.22-1.31-.58-2.1-1-2.27-.77-.27-2.26.87-3.75 2.15s-4.1 5.58-4.13 5.62a.5.5 0 01-.58.22.52.52 0 01-.35-.52 15.45 15.45 0 012.28-6.51 2.49 2.49 0 00.52-2.38 1.85 1.85 0 00-1.63-.87c-1.85-.14-5 1.2-7.73 5.32a.5.5 0 01-.9-.4c.49-2 .85-5.09.08-5.66-.31-.23-.95.1-1.3.31-3.91 2.39-8.08 11.78-8.12 11.87a.5.5 0 01-.6.28.52.52 0 01-.35-.57c.55-3.06.9-8.25-.47-9.16-.37-.25-1-.13-1.71.37-4.85 3.16-7 19.09-6.27 26.52.68 7.24 2.27 24.22-2.52 30.5-1.34 1.71-5.38 8.19-12.04 19.27z" fill="#231f20"/><path d="M223.11 174.12c-2.11-1.51-4.53 3.63-3 11.19s10.58 23.58 17.53 30.23c1.83 1.74 4.58 7.58 7.66 15.24h33.21c-8.18-15.46-15.17-28.61-15.77-29.45-1.52-2.12-3.11-15.54-2.69-23.43a89.69 89.69 0 00-1.58-21.54c-1.07-4.69-2.76-6.23-5.11-6.23s-1.18 9.31-1.18 9.31c-1.06-5.55-4.69-11.95-7.89-12.59S245 158 245 158c-1.28-3.41-8.26-14.32-11.36-12.59-1 .56-3.53 1.3.52 8.77s4 11.53 4 11.53c-8.43-14.4-15-13.91-17.08-10.89s3.32 4.84 7.56 11.25 1.81 22.61 1.81 22.61c-4.62-3.07-5.22-13.05-7.34-14.56zm29.08-14.53zm.44 2.29zm0-.19v-.11zm-.07-.36l-.1-.54zm-.16-.86c0-.16-.06-.33-.1-.52z" fill="#fff"/><path d="M278.49 231.28h-33.21a.5.5 0 01-.46-.32c-3.4-8.46-5.94-13.53-7.54-15.06-6.83-6.53-16.08-22.49-17.68-30.5-1.22-6.09 0-10.59 1.79-11.74a1.71 1.71 0 012 .05c1 .71 1.59 2.7 2.36 5.22.94 3.07 2.09 6.83 4.22 8.77.42-3.41 1.68-16-1.85-21.4a33.21 33.21 0 00-5.08-5.82c-2.31-2.23-4-3.84-2.47-6a4.59 4.59 0 014.1-1.93c2.25.09 6.76 1.66 12.56 10.78a35.19 35.19 0 00-3.57-9c-1.92-3.53-2.61-6-2.14-7.58a2.92 2.92 0 011.65-1.77l.17-.1a2.29 2.29 0 012-.06c2.48.91 5.7 5.15 7.87 8.68-.63-2.71-1.06-5.74-.14-6.78a1.34 1.34 0 011.32-.4c2.64.53 5.35 4.38 7 8.62 0-2 .19-4 .94-4.87a1.34 1.34 0 011-.48c2.83 0 4.55 2 5.59 6.62a90.16 90.16 0 011.6 21.68c-.43 8 1.24 21.21 2.59 23.11.54.75 5.71 10.4 15.81 29.5a.5.5 0 010 .49.52.52 0 01-.43.29zm-32.87-1h32c-12.05-22.79-15-28.18-15.35-28.66-1.62-2.27-3.21-15.81-2.78-23.75a89.07 89.07 0 00-1.57-21.4c-1.17-5.15-3-5.84-4.62-5.84a.34.34 0 00-.28.15c-.94 1.06-.75 5.83-.4 8.59v.07a.38.38 0 010 .21.41.41 0 01.08.19l.1.52a.43.43 0 010 .16.44.44 0 01.06.16l.11.53a.4.4 0 000 .25h-.07l.07.09a.22.22 0 010 .08.5.5 0 01-.39.44.52.52 0 01-.52-.21.28.28 0 010-.09.19.19 0 010-.08v-.09a.57.57 0 010-.13.5.5 0 01-.05-.13L252 161v-.08a.49.49 0 010-.12.46.46 0 01-.08-.19l-.1-.52a.6.6 0 010-.19.48.48 0 01-.07-.18.07.07 0 010-.05c-1.1-5.7-4.74-11.63-7.5-12.18-.25-.05-.33 0-.37.09-.91 1 .41 6.67 1.63 10.36a.5.5 0 01-.94.33c-1.12-3-6.3-11.14-9.52-12.32a1.28 1.28 0 00-1.12 0l-.2.1a1.94 1.94 0 00-1.15 1.18c-.39 1.28.3 3.57 2.06 6.81 4.07 7.5 4 11.61 4 11.78a.51.51 0 01-.38.47.49.49 0 01-.55-.23c-6.17-10.54-10.8-12.26-13-12.35a3.57 3.57 0 00-3.24 1.5c-1 1.39 0 2.45 2.35 4.7a34.18 34.18 0 015.21 6c4.29 6.5 2 22.29 1.89 23a.48.48 0 01-.29.38.51.51 0 01-.48 0c-2.85-1.9-4.19-6.3-5.27-9.83-.66-2.15-1.28-4.18-2-4.69a.71.71 0 00-.89 0c-1.24.81-2.54 4.77-1.35 10.71 1.54 7.7 10.8 23.67 17.39 30 1.65 1.33 4.15 6.27 7.59 14.8z" fill="#231f20"/><path d="M169.08 230.78c-.81 0-37.43-12.44-37.43-12.44s-16.65 30.07-21.72 39.47l48.18 7.73zm105.18-14.59l-38.55 7.19 10.47 37.33 48.93-3.71-20.85-40.81z" fill="#2b2c28"/><rect x="115.8" y="34.46" width="164.15" height="96.13" rx="9.26" fill="#fff"/><path d="M270.68 131.09H125.06a9.77 9.77 0 01-9.76-9.76V43.72a9.77 9.77 0 019.76-9.72h145.62a9.77 9.77 0 019.76 9.76v77.61a9.77 9.77 0 01-9.76 9.72zM125.06 35a8.77 8.77 0 00-8.76 8.76v77.61a8.77 8.77 0 008.76 8.76h145.62a8.77 8.77 0 008.76-8.76V43.72a8.77 8.77 0 00-8.76-8.72z" fill="#231f20"/><path fill="#2b2c28" d="M123.96 42.62h149.18v80.26H123.96z"/><path d="M273.14 123.38H124a.5.5 0 01-.5-.5V42.62a.5.5 0 01.5-.5h149.14a.5.5 0 01.5.5v80.26a.5.5 0 01-.5.5zm-148.68-1h148.18V43.12H124.46z" fill="#231f20"/><path d="M273.14 52.8H124a.5.5 0 01-.5-.5.5.5 0 01.5-.5h149.14a.5.5 0 01.5.5.5.5 0 01-.5.5z" fill="#231f20"/><circle cx="129.65" cy="47.3" r="1.65" fill="#231f20"/><path d="M129.65 49.45a2.15 2.15 0 112.15-2.15 2.14 2.14 0 01-2.15 2.15zm0-3.29a1.15 1.15 0 101.15 1.14 1.14 1.14 0 00-1.15-1.14z" fill="#231f20"/><circle cx="137.14" cy="47.3" r="1.65" fill="#231f20"/><path d="M137.14 49.45a2.15 2.15 0 112.14-2.15 2.15 2.15 0 01-2.14 2.15zm0-3.29a1.15 1.15 0 101.14 1.14 1.15 1.15 0 00-1.14-1.14z" fill="#231f20"/><circle cx="144.62" cy="47.3" r="1.65" fill="#231f20"/><path d="M144.62 49.45a2.15 2.15 0 112.15-2.15 2.15 2.15 0 01-2.15 2.15zm0-3.29a1.15 1.15 0 101.15 1.14 1.15 1.15 0 00-1.15-1.14zm-9.13 77.22a.5.5 0 01-.5-.5V52.3a.5.5 0 011 0v70.58a.5.5 0 01-.5.5z" fill="#231f20"/><path d="M162.89 58h-21a.5.5 0 01-.5-.5.5.5 0 01.5-.5h21a.5.5 0 01.5.5.5.5 0 01-.5.5z" fill="#fff"/><path d="M174.94 58h-6.85a.5.5 0 01-.5-.5.5.5 0 01.5-.5h6.85a.5.5 0 01.5.5.5.5 0 01-.5.5zm18.6 0h-14.49a.5.5 0 01-.5-.5.5.5 0 01.5-.5h14.49a.5.5 0 01.5.5.5.5 0 01-.5.5z" fill="#231f20"/><path d="M156.19 64.32h-14.34a.5.5 0 01-.5-.5.5.5 0 01.5-.5h14.34a.5.5 0 01.5.5.51.51 0 01-.5.5z" fill="#fff"/><path d="M219.73 64.32h-59.18a.51.51 0 01-.5-.5.5.5 0 01.5-.5h59.18a.5.5 0 01.5.5.5.5 0 01-.5.5z" fill="#231f20"/><path d="M253.14 64.32h-28.89a.5.5 0 01-.5-.5.5.5 0 01.5-.5h28.89a.5.5 0 01.5.5.51.51 0 01-.5.5zm-59.6 6.02h-51.69a.5.5 0 01-.5-.5.5.5 0 01.5-.5h51.69a.5.5 0 01.5.5.5.5 0 01-.5.5z" fill="#fff"/><path d="M215.83 70.34h-17.77a.5.5 0 01-.5-.5.51.51 0 01.5-.5h17.77a.5.5 0 01.5.5.5.5 0 01-.5.5z" fill="#231f20"/><path d="M149 81.25h-7.17a.5.5 0 01-.5-.5.5.5 0 01.5-.5H149a.51.51 0 01.5.5.5.5 0 01-.5.5z" fill="#fff"/><path d="M171.51 81.25h-18.13a.5.5 0 01-.5-.5.51.51 0 01.5-.5h18.13a.5.5 0 01.5.5.5.5 0 01-.5.5z" fill="#231f20"/><path d="M157.12 86.87h-15.27a.5.5 0 01-.5-.5.5.5 0 01.5-.5h15.27a.5.5 0 01.5.5.5.5 0 01-.5.5z" fill="#fff"/><path d="M190.14 86.87h-29.59a.51.51 0 01-.5-.5.5.5 0 01.5-.5h29.59a.5.5 0 01.5.5.5.5 0 01-.5.5z" fill="#231f20"/><path d="M210.32 86.87h-16a.51.51 0 01-.5-.5.5.5 0 01.5-.5h16a.5.5 0 01.5.5.5.5 0 01-.5.5zm-46.75 6.02h-21.72a.5.5 0 01-.5-.5.5.5 0 01.5-.5h21.72a.51.51 0 01.5.5.5.5 0 01-.5.5z" fill="#fff"/><path d="M204.3 92.89h-36.21a.5.5 0 01-.5-.5.5.5 0 01.5-.5h36.21a.51.51 0 01.5.5.5.5 0 01-.5.5z" fill="#231f20"/><path d="M238.69 92.89h-29.2a.5.5 0 01-.5-.5.51.51 0 01.5-.5h29.2a.5.5 0 01.5.5.5.5 0 01-.5.5zm-75.12 10.76h-21.72a.5.5 0 01-.5-.5.5.5 0 01.5-.5h21.72a.5.5 0 01.5.5.51.51 0 01-.5.5z" fill="#fff"/><path d="M175.35 103.65h-7.65a.5.5 0 01-.5-.5.5.5 0 01.5-.5h7.65a.5.5 0 01.5.5.51.51 0 01-.5.5zm18.97 0h-15.27a.5.5 0 01-.5-.5.5.5 0 01.5-.5h15.27a.5.5 0 01.5.5.5.5 0 01-.5.5z" fill="#231f20"/><path d="M156.19 109.26h-14.34a.5.5 0 01-.5-.5.5.5 0 01.5-.5h14.34a.5.5 0 01.5.5.51.51 0 01-.5.5z" fill="#fff"/><path d="M219.73 109.26h-59.8a.5.5 0 01-.5-.5.5.5 0 01.5-.5h59.8a.5.5 0 01.5.5.5.5 0 01-.5.5zm35.27 0h-30.75a.5.5 0 01-.5-.5.5.5 0 01.5-.5H255a.5.5 0 01.5.5.51.51 0 01-.5.5z" fill="#231f20"/><path d="M193.54 115.54h-52.83a.5.5 0 01-.5-.5.5.5 0 01.5-.5h52.83a.5.5 0 01.5.5.5.5 0 01-.5.5z" fill="#fff"/><path d="M214.27 115.54h-16.21a.5.5 0 01-.5-.5.51.51 0 01.5-.5h16.21a.5.5 0 01.5.5.5.5 0 01-.5.5z" fill="#231f20"/><circle cx="129.25" cy="57.87" r="1.64" fill="#fff"/><circle cx="129.25" cy="63.82" r="1.64" fill="#fff"/><circle cx="129.25" cy="69.77" r="1.64" fill="#fff"/><circle cx="129.25" cy="80.86" r="1.64" fill="#fff"/><circle cx="129.25" cy="86.81" r="1.64" fill="#fff"/><circle cx="129.25" cy="92.76" r="1.64" fill="#fff"/><circle cx="129.25" cy="103.15" r="1.64" fill="#fff"/><circle cx="129.25" cy="109.1" r="1.64" fill="#fff"/><circle cx="129.25" cy="115.04" r="1.64" fill="#fff"/><path fill="#fff" d="M59.67 47h40.56v36.21H59.67z"/><path d="M100.23 83.71H59.67a.5.5 0 01-.5-.5V47a.5.5 0 01.5-.5h40.56a.51.51 0 01.5.5v36.21a.5.5 0 01-.5.5zm-40.06-1h39.56V47.5H60.17z" fill="#d1d3d4"/><path d="M72.77 72.47a.5.5 0 01-.33-.13l-7.09-6.25a.53.53 0 01-.17-.36.52.52 0 01.14-.36l7.09-7.47a.5.5 0 01.71 0 .49.49 0 010 .7l-6.72 7.08 6.7 5.91a.51.51 0 01.05.71.52.52 0 01-.38.17zm12.96 0a.5.5 0 01-.34-.88l6.7-5.91-6.73-7.09a.49.49 0 010-.7.51.51 0 01.71 0l7.09 7.47a.47.47 0 01.13.36.48.48 0 01-.16.36l-7.09 6.25a.5.5 0 01-.31.14zm-11.09 1.95a.46.46 0 01-.23-.06.49.49 0 01-.21-.67L83 56.77a.5.5 0 11.88.47l-8.8 16.91a.5.5 0 01-.44.27z" fill="#d1d3d4"/><path fill="#fff" d="M293.41 48.76h62.72v92.46h-62.72z"/><path d="M356.12 141.72h-62.71a.5.5 0 01-.5-.5V48.76a.5.5 0 01.5-.5h62.71a.5.5 0 01.5.5v92.46a.5.5 0 01-.5.5zm-62.21-1h61.71V49.26h-61.71z" fill="#d1d3d4"/><path d="M356.12 55.36h-62.71a.5.5 0 010-1h62.71a.5.5 0 010 1zm-34.44 16.92h-19.87a.5.5 0 01-.5-.5V60.66a.5.5 0 01.5-.5h19.87a.5.5 0 01.5.5v11.12a.5.5 0 01-.5.5zm-19.37-1h18.87V61.16h-18.87zm47.32 26.93h-19.87a.5.5 0 01-.5-.5V86.59a.5.5 0 01.5-.5h19.87a.5.5 0 01.5.5v11.12a.5.5 0 01-.5.5zm-19.37-1h18.87V87.09h-18.87zm-8.58 6.56h-19.87a.5.5 0 01-.5-.5V92.15a.5.5 0 01.5-.5h19.87a.51.51 0 01.5.5v11.12a.5.5 0 01-.5.5zm-19.37-1h18.87V92.65h-18.87zm34.3 30.23h-19.87a.5.5 0 01-.5-.5v-11.1a.5.5 0 01.5-.5h19.87a.51.51 0 01.5.5v11.12a.5.5 0 01-.5.48zm-19.37-1h18.87v-10.1h-18.87z" fill="#d1d3d4"/><path d="M339.7 87.09a.5.5 0 01-.5-.5v-5.74h-27.46a.5.5 0 01-.5-.5v-8.57a.5.5 0 01.5-.5.5.5 0 01.5.5v8.07h27.46a.51.51 0 01.5.5v6.24a.5.5 0 01-.5.5z" fill="#d1d3d4"/><path d="M311.74 92.65a.5.5 0 01-.5-.5v-11.8a.51.51 0 01.5-.5.5.5 0 01.5.5v11.8a.5.5 0 01-.5.5zm15.77 28.74a.5.5 0 01-.5-.5v-7.26h-15.27a.5.5 0 01-.5-.5v-9.86a.51.51 0 01.5-.5.5.5 0 01.5.5v9.36h15.27a.5.5 0 01.5.5v7.76a.5.5 0 01-.5.5zM100.23 52.37H59.67a.5.5 0 01-.5-.5.5.5 0 01.5-.5h40.56a.51.51 0 01.5.5.5.5 0 01-.5.5z" fill="#d1d3d4"/><path fill="#fff" d="M43.88 104.87h62.49v65.05H43.88z"/><path d="M106.36 170.42H43.88a.5.5 0 01-.5-.5v-65a.5.5 0 01.5-.5h62.48a.5.5 0 01.5.5v65a.5.5 0 01-.5.5zm-62-1h61.48v-64H44.38z" fill="#d1d3d4"/><path d="M106.36 111.8H43.88a.5.5 0 01-.5-.5.5.5 0 01.5-.5h62.48a.5.5 0 01.5.5.5.5 0 01-.5.5zM57 117h-7.65a.5.5 0 01-.5-.5.5.5 0 01.5-.5H57a.5.5 0 01.5.5.5.5 0 01-.5.5zm19.23 0H61a.5.5 0 01-.5-.5.51.51 0 01.5-.5h15.23a.5.5 0 01.5.5.5.5 0 01-.5.5zm4.59 5.79H65.59a.5.5 0 01-.5-.5.5.5 0 01.5-.5h15.23a.5.5 0 01.5.5.5.5 0 01-.5.5zm-22.04 0h-7.64a.5.5 0 01-.5-.5.51.51 0 01.5-.5h7.64a.51.51 0 01.5.5.5.5 0 01-.5.5zm.29 5.79h-6.14a.5.5 0 01-.5-.5.51.51 0 01.5-.5h6.14a.51.51 0 01.5.5.5.5 0 01-.5.5zm24.47 0H64.48a.5.5 0 01-.5-.5.5.5 0 01.5-.5h19.06a.5.5 0 01.5.5.5.5 0 01-.5.5zm-21.18 5.79h-7.63a.5.5 0 01-.5-.5.5.5 0 01.5-.5h7.63a.5.5 0 01.5.5.5.5 0 01-.5.5zm25.13 0H64.82a.5.5 0 01-.5-.5.5.5 0 01.5-.5h22.67a.51.51 0 01.5.5.5.5 0 01-.5.5zm-27.16 5.79H52.7a.5.5 0 01-.5-.5.5.5 0 01.5-.5h7.63a.5.5 0 01.5.5.5.5 0 01-.5.5zm15.22 0H63.26a.5.5 0 01-.5-.5.5.5 0 01.5-.5h12.29a.5.5 0 01.5.5.5.5 0 01-.5.5zm16.99 0H80.25a.5.5 0 01-.5-.5.5.5 0 01.5-.5h12.29a.5.5 0 01.5.5.5.5 0 01-.5.5zM55.33 146H52.7a.5.5 0 01-.5-.5.5.5 0 01.5-.5h2.63a.5.5 0 01.5.5.5.5 0 01-.5.5zm20.22 0H59.81a.5.5 0 01-.5-.5.51.51 0 01.5-.5h15.74a.5.5 0 01.5.5.5.5 0 01-.5.5zm6.2 0h-4.39a.5.5 0 01-.5-.5.5.5 0 01.5-.5h4.39a.5.5 0 01.5.5.5.5 0 01-.5.5zm-24.92 5.74H52.7a.5.5 0 01-.5-.5.5.5 0 01.5-.5h4.13a.5.5 0 01.5.5.5.5 0 01-.5.5zm22.57 0H60.72a.5.5 0 01-.5-.5.51.51 0 01.5-.5H79.4a.5.5 0 01.5.5.5.5 0 01-.5.5zm9.48 0h-7.63a.5.5 0 01-.5-.5.5.5 0 01.5-.5h7.63a.5.5 0 01.5.5.5.5 0 01-.5.5zM55 157.53h-4.09a.5.5 0 01-.5-.5.5.5 0 01.5-.5H55a.51.51 0 01.5.5.5.5 0 01-.5.5zm22.36 0H59.67a.5.5 0 01-.5-.5.51.51 0 01.5-.5h17.69a.5.5 0 01.5.5.5.5 0 01-.5.5zm-18.82 5.79h-7.63a.5.5 0 01-.5-.5.5.5 0 01.5-.5h7.63a.5.5 0 01.5.5.5.5 0 01-.5.5zm42.35-28.95H90.57a.5.5 0 01-.5-.5.5.5 0 01.5-.5h10.32a.5.5 0 01.5.5.5.5 0 01-.5.5zM85.44 117H80.1a.5.5 0 01-.33-.62.49.49 0 01.55-.35h17.2a.5.5 0 01.5.5.5.5 0 01-.5.5C91.83 117 88 117 85.44 117zm1.69 40.53H79.4a.5.5 0 01-.5-.5.51.51 0 01.5-.5h7.73a.51.51 0 01.5.5.5.5 0 01-.5.5zm-17.72 5.79h-5.69a.5.5 0 01-.5-.5.51.51 0 01.5-.5h5.69a.51.51 0 01.5.5.5.5 0 01-.5.5zm15.66 0H71.56a.5.5 0 01-.5-.5.51.51 0 01.5-.5h13.51a.51.51 0 01.5.5.5.5 0 01-.5.5z" fill="#d1d3d4"/><circle cx="322.18" cy="177.89" r="25.22" fill="#fff"/><path d="M322.18 203.61a25.72 25.72 0 1125.72-25.72 25.75 25.75 0 01-25.72 25.72zm0-50.43a24.72 24.72 0 1024.72 24.71 24.74 24.74 0 00-24.72-24.71z" fill="#231f20"/><rect x="328.01" y="186.04" width="4.97" height="11.02" rx="2.48" transform="rotate(149.88 330.498 191.546)" fill="#fff"/><path d="M332 197.15a2.86 2.86 0 01-.77-.1 2.94 2.94 0 01-1.81-1.39l-3-5.23a3 3 0 011.08-4.08 3 3 0 014.08 1.08l3 5.24a3 3 0 01-1.09 4.08 3 3 0 01-1.49.4zM329 187a2.06 2.06 0 00-1 .26 2 2 0 00-.72 2.72l3 5.23a2 2 0 003.43-2l-3-5.23a2 2 0 00-1.2-.93 2.24 2.24 0 00-.51-.05z" fill="#231f20"/><circle cx="322.18" cy="177.21" r="15.83" fill="#fff"/><path d="M322.21 193.55A16.41 16.41 0 01318 193a16.24 16.24 0 01-9.94-7.59 16.33 16.33 0 1114.16 8.14zm0-31.66a15.32 15.32 0 00-13.24 23 15.33 15.33 0 1013.24-23z" fill="#231f20"/><circle cx="322.18" cy="177.21" r="12.99" fill="#231f20"/></g></svg>