<svg xmlns="http://www.w3.org/2000/svg" viewBox="0 0 400 300"><g data-name="#319_rocket_boy_flatline"><circle cx="95.67" cy="73.42" r="19.74" fill="#fff"/><path d="M95.67 93.66a20.24 20.24 0 1120.23-20.24 20.26 20.26 0 01-20.23 20.24zm0-39.47a19.24 19.24 0 1019.23 19.23 19.26 19.26 0 00-19.23-19.23z" fill="#d1d3d4"/><path fill="#231f20" d="M233.91 114.28l65.41 22.91-34.35 8.81-40.24-19.89 9.18-11.83z"/><path d="M265 146.44a.41.41 0 01-.19 0l-40.24-19.89a.45.45 0 01-.24-.3.45.45 0 01.08-.37l9.15-11.88a.46.46 0 01.5-.15l65.41 22.91a.44.44 0 01.29.44.43.43 0 01-.33.4l-34.35 8.82zM225.41 126L265 145.53l32.78-8.41-63.71-22.32z" fill="#231f20"/><path d="M157.28 190.5s-34.68 10.51-51.95 0c0 0 13.2 16.48 31.16 14.64s20.79-14.64 20.79-14.64z" fill="#d1d3d4"/><path d="M169.37 181.39s-26.43 25.61-56.44 18.87c-41.67-9.3-73.77-58.85-45.87-121 0 0-29 42.12-14 89.1 20.56 64.31 70.22 61.65 120.78 48.52" fill="#d1d3d4"/><path d="M241.23 65.69s-7.55 34.37-7.32 48.59c0 .7 2.25 2.45 2.3 3 1.09 12.69-39.84 2-39.84 2s-1.52-26.91 1.53-36.54S204.22 71 204.22 71s27.38-10.76 32.19-9.25 4.82 3.94 4.82 3.94z" fill="#2b2c28"/><path fill="#2b2c28" d="M226.54 80.36l52.07-27.31-4.15-13.38-55.68 28.22 7.76 12.47z"/><path d="M152.33 190.89s-.77 5.57 3.69 16.76 8.85 14.69 8.85 14.69l15.86-2-15.55-39z" fill="#231f20"/><path d="M164.87 222.78a.44.44 0 01-.27-.09c-.18-.15-4.54-3.71-9-14.88s-3.75-16.75-3.72-17a.43.43 0 01.18-.29l12.85-9.5a.43.43 0 01.38-.07.42.42 0 01.29.26l15.55 39a.45.45 0 010 .39.44.44 0 01-.32.21l-15.86 1.95zm-12.12-31.65c-.08 1-.25 6.52 3.68 16.35s7.82 13.71 8.58 14.4l15.1-1.85L165 182.08z" fill="#231f20"/><path d="M231.26 216.88s-4.42 12.73-18.56 24.67-49.75 19-49.75 19l19.52-40.81z" fill="#fff"/><path d="M163 261a.49.49 0 01-.39-.19.51.51 0 01-.06-.53l19.45-40.8a.5.5 0 01.42-.28l48.79-2.82a.48.48 0 01.43.2.51.51 0 01.08.46c-.05.13-4.63 13-18.72 24.89s-49.61 19-50 19.07zm19.85-40.83l-19 39.64c5.83-1.24 36-8 48.54-18.65 12-10.12 17-20.92 18.13-23.75z" fill="#231f20"/><path d="M204.26 149.17s-11.94-4.24-30.42-3.17-49.17 18.52-49.17 18.52l42.25 16.18z" fill="#fff"/><path d="M166.92 181.2a.58.58 0 01-.18 0L124.49 165a.52.52 0 01-.32-.43.5.5 0 01.25-.47c.31-.18 31-17.53 49.39-18.59s30.5 3.15 30.61 3.19a.5.5 0 01.16.86l-37.34 31.53a.55.55 0 01-.32.11zm-41.07-16.76l41 15.68 36.42-30.75c-3-.91-14-3.77-29.37-2.87-16.4.95-42.78 15.04-48.05 17.94z" fill="#231f20"/><path d="M157.31 177.47c15.53-15.22 40.58-30.89 70.63-42.88 45.54-18.16 79.27-2.49 90.44 4.11a6.38 6.38 0 012.89 7.24c-3.56 12.48-17.26 47.05-62.8 65.21-30.05 12-59 17.86-80.74 17.5 0 0-7-6.19-14.13-24s-6.29-27.18-6.29-27.18z" fill="#fff"/><path d="M179.6 229.17h-1.88a.5.5 0 01-.33-.12c-.29-.26-7.18-6.48-14.25-24.22s-6.36-27-6.33-27.39a.51.51 0 01.15-.31c16.12-15.8 41.92-31.47 70.8-43 45.21-18 78.61-3.11 90.88 4.14a6.88 6.88 0 013.11 7.8c-3.91 13.71-17.88 47.52-63.09 65.55-28.08 11.2-56.75 17.55-79.06 17.55zm-1.67-1c22.38.3 51.69-6 80.36-17.47 44.8-17.87 58.63-51.33 62.5-64.89a5.89 5.89 0 00-2.66-6.67c-12.14-7.17-45.21-21.94-90-4.07-28.67 11.43-54.29 27-70.33 42.63-.06 1.37-.18 10.58 6.27 26.75s12.87 22.75 13.86 23.71z" fill="#231f20"/><path d="M321.27 145.94a95.68 95.68 0 01-24.68 40.7s-9.71-6.64-18.15-27.82-6-32.67-6-32.67a95.5 95.5 0 0145.91 12.55 6.38 6.38 0 012.92 7.24z" fill="#fff"/><path d="M296.59 187.14a.51.51 0 01-.28-.09c-.4-.28-9.93-7-18.34-28s-6.09-32.49-6-33a.51.51 0 01.49-.4 95.64 95.64 0 0146.16 12.62 6.88 6.88 0 013.11 7.8A95.68 95.68 0 01297 187a.51.51 0 01-.41.14zm-23.7-60.48c-.32 2.21-1.4 13.39 6 32s15.89 26 17.65 27.34a94.71 94.71 0 0024.24-40.18 5.89 5.89 0 00-2.66-6.67 94.53 94.53 0 00-45.23-12.49z" fill="#231f20"/><path d="M164.26 175.33a.52.52 0 01-.38-.17.49.49 0 01.06-.7 358 358 0 0135.3-25.46.51.51 0 01.69.16.49.49 0 01-.16.68 360.94 360.94 0 00-35.19 25.36.49.49 0 01-.32.13z" fill="#fff"/><path d="M202.62 227.29a.5.5 0 01-.34-.13c-.14-.13-13.65-13-20.36-29.84s-5.77-35.48-5.76-35.66a.49.49 0 01.53-.48.51.51 0 01.47.53c0 .18-.93 18.63 5.69 35.24s20 29.35 20.12 29.48a.5.5 0 010 .71.51.51 0 01-.35.15zM317 137.46s19.22-5 20.36-2.14-16.24 12.46-16.24 12.46" fill="#231f20"/><path d="M321.12 148.22a.44.44 0 01-.21-.82c8.2-4.54 16.67-10.38 16-11.92s-10.78.05-19.84 2.41a.44.44 0 11-.22-.86c4.6-1.19 19.69-4.85 20.88-1.87s-12.28 10.71-16.44 13a.54.54 0 01-.17.06z" fill="#231f20"/><path d="M318.71 149.59a23.16 23.16 0 01-4.7-11.78 2.69 2.69 0 012.36-2.78 2.17 2.17 0 012.62 1.73 20.08 20.08 0 004.01 10.16 2.16 2.16 0 01-.7 3.06 2.68 2.68 0 01-3.59-.39z" fill="#fff"/><path d="M320.7 151a3 3 0 01-2.39-1.12 23.83 23.83 0 01-4.8-12 3.17 3.17 0 012.8-3.33 3 3 0 012.27.57 2.33 2.33 0 01.91 1.61 19.66 19.66 0 003.95 9.91 2.32 2.32 0 01.45 1.79 3 3 0 01-1.26 2 3.26 3.26 0 01-1.93.57zm-3.93-15.51h-.33a2.19 2.19 0 00-1.93 2.24 22.94 22.94 0 004.59 11.53 2.19 2.19 0 002.94.29 2 2 0 00.86-1.31 1.34 1.34 0 00-.25-1 20.71 20.71 0 01-4.16-10.42 1.38 1.38 0 00-.52-.93 1.93 1.93 0 00-1.2-.39z" fill="#231f20"/><path d="M206.59 218.81a.5.5 0 01-.06-1c.45-.05 45.05-5.4 80.56-34.17a.5.5 0 01.7.07.52.52 0 01-.07.71c-35.74 29-80.62 34.33-81.07 34.38z" fill="#d1d3d4"/><path d="M227.32 59.48a3.84 3.84 0 002-1.95A16 16 0 00231.9 49 17.07 17.07 0 00215 32.27l3.54 2.88a18.53 18.53 0 00-15.68 7.57 5.61 5.61 0 013.64.17 47.33 47.33 0 00-5.33 1.73 1.35 1.35 0 00-.7.46 1.37 1.37 0 00-.06 1c1.28 5.95 5.74 11.44 11.69 12.7 1 .21 2 .3 3.07.43 2.27.29 4.51.77 6.8.89a15.08 15.08 0 004.29-.31 8.89 8.89 0 001.06-.31z" fill="#fff"/><path d="M223 60.61h-1.12a43.46 43.46 0 01-4.46-.55c-.79-.12-1.58-.24-2.37-.34l-.74-.09c-.78-.1-1.58-.19-2.37-.36-5.79-1.22-10.62-6.46-12-13a1.72 1.72 0 01.12-1.37 1.74 1.74 0 01.91-.63 46.2 46.2 0 013.59-1.25 5.1 5.1 0 00-1.6.21.46.46 0 01-.5-.17.48.48 0 010-.54 19.11 19.11 0 0114.75-7.77l-2.53-2.06a.47.47 0 01-.14-.51.47.47 0 01.44-.3A17.56 17.56 0 01232.36 49a16.36 16.36 0 01-2.65 8.81 4.28 4.28 0 01-2.22 2.14 6.82 6.82 0 01-1.14.35 14.35 14.35 0 01-3.35.31zM204.42 42a6.1 6.1 0 012.23.43.48.48 0 01.29.46.47.47 0 01-.34.41 44.72 44.72 0 00-5.29 1.72.62.62 0 00-.47 1c1.34 6.24 5.89 11.2 11.33 12.35.75.16 1.53.25 2.28.34l.76.09c.79.1 1.59.23 2.39.35a42.39 42.39 0 004.37.54 14 14 0 004.16-.31 6.35 6.35 0 001-.31 3.35 3.35 0 001.78-1.75 15.63 15.63 0 002.54-8.32 16.62 16.62 0 00-15.09-16.2l2.45 2a.47.47 0 01.14.52.42.42 0 01-.45.29 18.26 18.26 0 00-14.57 6.45zm22.9 17.45zm-12.19 9.01s.18 10.46 5.1 10.79 5-9.25 5-9.25" fill="#231f20"/><path d="M220.47 79.7h-.27c-5.27-.35-5.51-10.78-5.52-11.22a.45.45 0 11.89 0c0 .1.23 10.05 4.69 10.35a2.67 2.67 0 002.12-.76c2.34-2.16 2.45-8 2.45-8.06a.46.46 0 01.44-.43.44.44 0 01.44.44c0 .26-.11 6.28-2.73 8.7a3.62 3.62 0 01-2.51.98z" fill="#231f20"/><path d="M224.81 63.4l.46 6.6s-.43 3.72-4.52 2.85a8.3 8.3 0 01-5.62-4.39s-1-15.8-1.37-20a21.11 21.11 0 008.31-2.83 5.45 5.45 0 011.23-.71c.82-.12.72.34 1.08 1a6.49 6.49 0 003 2.88.91.91 0 01.42.29.78.78 0 01.1.36c.42 3.77 1.19 7.52.65 11.31-.44 3.24-3.74 2.64-3.74 2.64z" fill="#fff"/><path d="M221.92 73.44a5.65 5.65 0 01-1.26-.14 8.68 8.68 0 01-5.95-4.65.47.47 0 010-.16c0-.16-1-15.84-1.36-20a.48.48 0 01.11-.34.42.42 0 01.31-.15 20.63 20.63 0 008.12-2.78l.34-.22a2.67 2.67 0 011-.54 1.12 1.12 0 011.38.86 2.78 2.78 0 00.18.42 5.9 5.9 0 002.78 2.67 1.31 1.31 0 01.62.47 1.23 1.23 0 01.16.55c.09.81.2 1.62.3 2.42a32.59 32.59 0 01.35 9 3.33 3.33 0 01-1.29 2.34 4.16 4.16 0 01-2.41.68l.42 6.06a4.2 4.2 0 01-1.58 2.82 3.71 3.71 0 01-2.22.69zm-6.34-5.09a7.91 7.91 0 005.27 4.06 3 3 0 004-2.47l-.46-6.5a.46.46 0 01.14-.37.47.47 0 01.39-.12 3.39 3.39 0 002.28-.47 2.49 2.49 0 00.93-1.73 32.88 32.88 0 00-.35-8.75c-.11-.81-.21-1.62-.3-2.44v-.17l-.21-.11a6.86 6.86 0 01-3.27-3.09 5.19 5.19 0 01-.23-.51 1.87 1.87 0 00-.13-.3 1.18 1.18 0 00-.25 0 2.63 2.63 0 00-.66.39c-.16.1-.3.21-.42.27a21.93 21.93 0 01-8 2.84c.3 4.54 1.19 18.23 1.27 19.47z" fill="#231f20"/><path d="M225 66.65a6.37 6.37 0 01-4.5-1.39 4.63 4.63 0 01-1.7-3.49 12.8 12.8 0 006 1.63z" fill="#231f20"/><path d="M224.5 67.11a6.5 6.5 0 01-4.32-1.53 5.06 5.06 0 01-1.84-3.84.47.47 0 01.24-.36.44.44 0 01.43 0 12.38 12.38 0 005.78 1.62.46.46 0 01.46.42l.17 3.24a.43.43 0 01-.39.46 3.08 3.08 0 01-.53-.01zm-5.2-4.58a4.7 4.7 0 001.47 2.4 5.67 5.67 0 003.75 1.29l-.13-2.37a12.85 12.85 0 01-5.09-1.32z" fill="#231f20"/><path d="M223.8 51.69s2.32 3 1.85 3.62-1.9.31-1.9.31" fill="#fff"/><path d="M224.48 56.13a3.78 3.78 0 01-.81-.08.44.44 0 11.16-.87c.49.1 1.28.1 1.48-.15a11.85 11.85 0 00-1.86-3.03.44.44 0 01.08-.62.44.44 0 01.62.09c1.68 2.19 2.3 3.59 1.85 4.16a2 2 0 01-1.52.5zm-.97 3.43h-.18c-2.21-.12-3.87-2.26-3.94-2.35a.44.44 0 11.7-.54s1.49 1.91 3.28 2a3.09 3.09 0 002.46-1.17.45.45 0 01.62 0 .44.44 0 010 .63 4 4 0 01-2.94 1.43z" fill="#231f20"/><path d="M226.79 152.55l-7.31 29.74s36.41-12.19 37.72-16.17-18.83.6-18.83.6l1.43-8.5z" fill="#fff"/><path d="M219.48 182.79a.5.5 0 01-.48-.62l7.3-29.74a.5.5 0 01.69-.34l13 5.67a.52.52 0 01.3.54l-1.29 7.77c4-.88 16.42-3.4 18.43-1.18a1.29 1.29 0 01.25 1.38c-1.35 4.11-34.28 15.24-38 16.49a.41.41 0 01-.2.03zm7.65-29.54l-6.94 28.27c14-4.73 35.65-12.89 36.54-15.56.07-.24 0-.33-.05-.4-1.37-1.51-11.89.21-18.2 1.65a.5.5 0 01-.45-.13.5.5 0 01-.15-.45l1.37-8.11z" fill="#231f20"/><path d="M196.37 119.29s-5.05 21 4.92 23.85 26.65-8.55 26.65-8.55l-5.4 19.51s-3.62 8.81 1.63 8.42c4.73-6.13 11.19-7.75 15.63-4.3 6.95-7.71 19.15-31.93 11.27-40.24s-54.7 1.31-54.7 1.31z" fill="#231f20"/><path d="M223.84 163a2.69 2.69 0 01-2.32-1.05c-1.69-2.32.52-7.75.61-8l5.07-18.32c-3.77 2.41-17.27 10.46-26 8-10.26-2.93-5.44-23.51-5.23-24.38a.44.44 0 01.34-.33c1.93-.4 47.16-9.58 55.11-1.18s-4 32.81-11.26 40.83a.44.44 0 01-.6.06 8 8 0 00-6-1.62c-3.2.41-6.38 2.48-9 5.84a.42.42 0 01-.31.17zm4.1-28.82a.43.43 0 01.26.09.43.43 0 01.17.47L223 154.22c-.6 1.49-1.89 5.58-.72 7.19a1.87 1.87 0 001.7.68c2.72-3.45 6.06-5.58 9.44-6a8.84 8.84 0 016.36 1.54c6.9-7.93 18.45-31.48 11-39.34s-50.13.61-54 1.39c-.54 2.45-4.18 20.52 4.67 23 9.64 2.75 26.12-8.38 26.28-8.49a.46.46 0 01.21-.04zm-8.46 48.11s4 3.92 15.4 0 25.8-14.43 22.32-16.17-33.86 10.68-37.72 16.17z" fill="#231f20"/><path d="M225.81 184.48c-4.63 0-6.52-1.77-6.63-1.88a.44.44 0 01-.06-.57c3.8-5.39 34.21-18.35 38.28-16.31a1.32 1.32 0 01.77 1.31c-.24 3.46-13.21 12.25-23.14 15.68a28.68 28.68 0 01-9.22 1.77zm-5.7-2.27c1.13.75 5.4 2.84 14.63-.34 10-3.45 22.36-12.08 22.55-14.9a.44.44 0 00-.29-.46c-3-1.51-32.14 10.13-36.89 15.7zm-.63.08z" fill="#231f20"/><path d="M240 164.83a54.23 54.23 0 00-7.63 3.53l.41-4.6s5.91-2.87 7.22-2.7z" fill="#fff"/><path d="M232.39 168.86a.47.47 0 01-.25-.07.49.49 0 01-.24-.48l.41-4.59a.48.48 0 01.27-.4c1-.49 6.13-2.92 7.51-2.76a.49.49 0 01.43.5v3.77a.51.51 0 01-.32.47 54.1 54.1 0 00-7.53 3.48.54.54 0 01-.28.08zm.89-4.77l-.3 3.33a63.15 63.15 0 016.54-2.93v-2.9a38.77 38.77 0 00-6.24 2.5zm6.74.74z" fill="#231f20"/><path d="M208.63 69.34S172.52 84 169.46 88.12s-8.31 29.1-8.31 29.1l10.91-1.57s9.87-15.5 12.93-18.78S205.34 89 205.34 89z" fill="#2b2c28"/><path d="M178 108.58l-7.34 12.56s6.24 5 4.72 5.82-3 1.47-3 1.47-.16 4.11-2 4.6-12.11-.42-11.65-3.94c1.6-12.14 3.59-25.95 3.46-24.37z" fill="#fff"/><path d="M168.94 133.65c-2.75 0-7.69-.69-9.7-2.45a2.38 2.38 0 01-.94-2.18c.67-5.15 1.5-11.19 2.26-16.56.67-4.69 1-6.77 1.19-7.68a.4.4 0 010-.11.15.15 0 000 .07c.17-.68.3-.67.54-.64a.49.49 0 01.36.2l15.45 3.79a.52.52 0 01.34.29.51.51 0 010 .45L171.3 121c1.5 1.23 4.93 4.2 4.8 5.63a.94.94 0 01-.5.75c-1.12.6-2.21 1.13-2.71 1.36-.08 1.07-.47 4.25-2.31 4.75a7.09 7.09 0 01-1.64.16zm-6.32-28.32c-.42 2.63-2 13.44-3.33 23.82a1.45 1.45 0 00.61 1.3c2.22 1.94 9 2.47 10.41 2.09 1.19-.32 1.56-3.16 1.6-4.13a.5.5 0 01.29-.43s1.44-.66 2.93-1.46c.06-.53-2.17-2.89-4.79-5a.49.49 0 01-.12-.64l7-12z" fill="#231f20"/><path d="M275.31 56.94c0-.5-4.93-17.27-4.93-17.27l10.67-3.74s-.16-3.94 2.13-5.42 5.42 0 5.42 0 9.35-7.87 10.5-6.23-2.3 5.25-7.55 9c0 0 2.79 7.88-.33 10.34a11.94 11.94 0 01-6.37 2.57z" fill="#fff"/><path d="M275.31 57.44a.57.57 0 01-.18 0 .49.49 0 01-.32-.44c-.11-.7-3-10.63-4.91-17.16a.52.52 0 01.32-.62l10.33-3.62c0-1.07.27-4.13 2.36-5.48s4.72-.51 5.6-.16c1.79-1.49 8.13-6.66 10.26-6.37a1.05 1.05 0 01.74.43c1.66 2.37-3.76 6.88-7.37 9.5.52 1.63 2.39 8.18-.61 10.54a12.61 12.61 0 01-6.44 2.67l-9.41 10.57a.5.5 0 01-.37.14zm.5-.5zM271 40c1.53 5.24 3.82 13.09 4.56 15.92l8.92-10a.53.53 0 01.35-.17 11.53 11.53 0 006.08-2.46c2.33-1.84.91-7.68.17-9.78a.5.5 0 01.18-.57c6.1-4.38 8.12-7.35 7.43-8.34-.71-.43-5.26 2.54-9.77 6.34a.49.49 0 01-.53.06s-2.91-1.33-4.94 0-1.9 4.94-1.9 5a.5.5 0 01-.34.49zm-36.65 66.46h-.09a.46.46 0 01-.36-.54c2.93-14.42 5.71-40.35 5.57-41.61a.44.44 0 01.32-.54.47.47 0 01.57.34c.25.93-2.63 27.56-5.56 42a.47.47 0 01-.45.35zM188.24 94.5a.46.46 0 01-.15-.89l20.39-6.7a.46.46 0 01.29.87l-20.39 6.7a.36.36 0 01-.14.02z" fill="#231f20"/><path d="M288.79 41a1.18 1.18 0 01-.26 0 4.61 4.61 0 01-3.38-3 3.44 3.44 0 01-2.35 2.9.44.44 0 11-.22-.85c2.23-.58 1.84-4.47 1.83-4.51a.45.45 0 01.39-.49.46.46 0 01.49.38s.62 4.2 3.37 4.61a.5.5 0 00.51-.16c1-1.1-.1-6.27-1-9.26a.44.44 0 01.29-.55.44.44 0 01.55.3c.25.84 2.4 8.26.81 10.09a1.33 1.33 0 01-1.03.54z" fill="#231f20"/><path d="M63.28 177.39c-1.5-3-16.14-28.19-18.39-44.33 0 0-.26 31.45 12.82 47.64s5.57-3.31 5.57-3.31z" fill="#d1d3d4"/><path fill="#231f20" d="M216.84 50.42l-5.04 2.17v1.1l6.81-2-1.77-1.27z"/><path d="M211.8 54.13a.44.44 0 01-.27-.09.43.43 0 01-.17-.35v-1.1a.44.44 0 01.26-.41l5-2.17a.44.44 0 01.43.05l1.77 1.28a.44.44 0 01.17.43.43.43 0 01-.31.35l-6.81 2zm.44-1.25v.22l5.38-1.58-.83-.6z" fill="#231f20"/><path d="M215.19 54.61c-.76-.94-2-2.66-3.39-2a2.35 2.35 0 00-.94.8 4.22 4.22 0 00.08 4.76c.75 1.28 3 3.14 4.3 1.39" fill="#fff"/><path d="M213.91 60.71h-.13a4.84 4.84 0 01-3.24-2.32 4.68 4.68 0 010-5.28 2.81 2.81 0 011.12-.94c1.64-.73 3 .93 3.75 1.92l.18.23a.47.47 0 01-.06.65.46.46 0 01-.65-.07l-.19-.24c-.88-1.11-1.75-2.06-2.66-1.66a2 2 0 00-.76.66 3.79 3.79 0 00.11 4.26 3.87 3.87 0 002.5 1.87 1.2 1.2 0 001-.53.46.46 0 01.64-.08.45.45 0 01.08.64 2.09 2.09 0 01-1.69.89z" fill="#231f20"/><ellipse cx="219.89" cy="50.1" rx="3.06" ry="2.35" transform="rotate(-6.07 219.955 50.151)" fill="#fff"/><path d="M219.72 52.92a3.13 3.13 0 01-3.33-2.45c-.17-1.54 1.27-3 3.2-3.17a4.08 4.08 0 012.51.52 2.53 2.53 0 011.28 1.9c.17 1.54-1.27 3-3.2 3.17a3.55 3.55 0 01-.46.03zm.34-4.73h-.38c-1.42.15-2.49 1.12-2.38 2.16s1.35 1.76 2.79 1.61 2.5-1.12 2.39-2.16a1.7 1.7 0 00-.86-1.22 3 3 0 00-1.56-.39z" fill="#231f20"/><ellipse cx="226.15" cy="49.8" rx="3.06" ry="2.35" transform="rotate(-6.07 226.214 49.821)" fill="#fff"/><path d="M226 52.62a3.13 3.13 0 01-3.33-2.45c-.16-1.54 1.28-3 3.2-3.17s3.64.88 3.8 2.42c.16 1.54-1.27 3-3.2 3.16zm.35-4.73h-.38c-1.43.15-2.5 1.12-2.39 2.16s1.37 1.76 2.79 1.61 2.5-1.12 2.39-2.16a2.22 2.22 0 00-2.43-1.61z" fill="#231f20"/><circle cx="100.72" cy="154.05" r="4.61" fill="#fff"/><path d="M100.72 159.16a5.12 5.12 0 115.11-5.12 5.12 5.12 0 01-5.11 5.12zm0-9.23a4.12 4.12 0 104.11 4.11 4.12 4.12 0 00-4.11-4.11z" fill="#d1d3d4"/><circle cx="274.45" cy="97.32" r="2.31" fill="#fff"/><path d="M274.45 100.13a2.81 2.81 0 112.8-2.81 2.81 2.81 0 01-2.8 2.81zm0-4.62a1.81 1.81 0 101.8 1.81 1.81 1.81 0 00-1.8-1.81z" fill="#d1d3d4"/><circle cx="307.14" cy="87.35" r="4.61" fill="#d1d3d4"/><circle cx="314.78" cy="232.62" r="25.97" fill="#fff"/><path d="M314.79 259.09a26.47 26.47 0 1125.52-33.5 26.48 26.48 0 01-25.52 33.5zm0-51.95a25.48 25.48 0 1024.56 18.72 25.52 25.52 0 00-24.57-18.72z" fill="#d1d3d4"/><path d="M283.51 246.83c-4.64 0-8.84-.67-9.48-3-1.03-3.83 8.68-8.83 14.59-11.49a.5.5 0 01.4.92c-11.08 4.93-14.51 8.55-14 10.3s5.29 3.12 17.32 1.68A187 187 0 00340.55 232c11.07-4.91 14.5-8.54 14-10.3s-5.28-3.11-17.32-1.67a.5.5 0 01-.12-1c6.42-.77 17.34-1.47 18.4 2.4s-8.67 8.86-14.57 11.47a187.23 187.23 0 01-48.53 13.36 77.33 77.33 0 01-8.9.57zM262 225.79a.5.5 0 01-.5-.5v-5.89a.5.5 0 01.5-.5.5.5 0 01.5.5v5.89a.5.5 0 01-.5.5z" fill="#d1d3d4"/><path d="M265 222.84h-5.89a.5.5 0 01-.5-.5.51.51 0 01.5-.5H265a.5.5 0 01.5.5.5.5 0 01-.5.5zm65.16-116.34a.5.5 0 01-.5-.5v-5.89a.5.5 0 01.5-.5.5.5 0 01.5.5V106a.5.5 0 01-.5.5z" fill="#d1d3d4"/><path d="M333.11 103.56h-5.89a.5.5 0 01-.5-.5.5.5 0 01.5-.5h5.89a.5.5 0 01.5.5.51.51 0 01-.5.5zM81.81 235.61a.5.5 0 01-.5-.5v-5.89a.5.5 0 01.5-.5.5.5 0 01.5.5v5.89a.5.5 0 01-.5.5z" fill="#d1d3d4"/><path d="M84.75 232.67h-5.89a.51.51 0 01-.5-.5.5.5 0 01.5-.5h5.89a.5.5 0 01.5.5.5.5 0 01-.5.5zm56.43-123.22a.5.5 0 01-.5-.5v-5.89a.5.5 0 011 0V109a.5.5 0 01-.5.45z" fill="#d1d3d4"/><path d="M144.12 106.5h-5.89a.5.5 0 010-1h5.89a.5.5 0 010 1z" fill="#d1d3d4"/></g></svg>