<svg xmlns="http://www.w3.org/2000/svg" viewBox="0 0 400 300"><g data-name="#508_team_work_flatline"><ellipse cx="142.54" cy="262.63" rx="36.7" ry="4.93" fill="#e6e7e8"/><ellipse cx="301.93" cy="262.63" rx="36.7" ry="4.93" fill="#e6e7e8"/><path d="M140.47 245.94s6.38 19.52 7.51 19.15 23.84-13.52 23.09-15.77-16.52 2.44-16.52 2.44L151 241.25" fill="#fff"/><path d="M148 265.59a.63.63 0 01-.3-.07c-1.41-.71-5.82-13.82-7.65-19.42a.5.5 0 01.32-.64.51.51 0 01.63.33c2.72 8.32 6.05 17.49 7.07 18.74 3.09-1.32 22.43-13.14 22.56-15.1-.27-.8-7.13.2-15.89 2.81a.52.52 0 01-.62-.32l-3.56-10.51a.51.51 0 01.31-.64.52.52 0 01.64.32l3.41 10c14.23-4.19 16.4-2.79 16.67-2 .2.59.61 1.81-11 9.17-5.72 3.61-11.71 7-12.35 7.23a.63.63 0 01-.24.1z" fill="#231f20"/><path d="M113.44 213.28s-13.14.19-13.51 1.31-4.32 22-.75 20.28 9.38-13.52 9.38-13.52l6.57-1z" fill="#fff"/><path d="M98.79 235.46a1.13 1.13 0 01-.74-.28c-2.45-2.18 1.16-20 1.4-20.75.12-.36.49-1.46 14-1.65a.55.55 0 01.5.38l1.69 7.05a.53.53 0 01-.07.39.49.49 0 01-.34.22l-6.32 1c-.86 1.73-6.06 11.89-9.5 13.52a1.44 1.44 0 01-.62.12zm1.59-20.63c-.53 1.83-3.37 18.09-1.66 19.6 0 0 .07.07.24 0 2.8-1.32 7.55-10 9.15-13.28a.47.47 0 01.37-.27l6-1-1.47-6.12c-5.66.12-11.79.53-12.63 1.07zm0 0z" fill="#231f20"/><path d="M188.21 59.5l5.62-3.22s1.58-5.06 3.17-6.28 3.78.44 3.78.44 5.81-4.85 7.21-4.69-.45 2.64-1.88 3.89l-3 2.63s2.63 5.36 1.11 7.47-13.76 8.63-13.76 8.63z" fill="#fff"/><path d="M190.44 68.86a.78.78 0 01-.21 0 .53.53 0 01-.28-.34l-2.22-8.86a.49.49 0 01.23-.55l5.45-3.11c.34-1 1.74-5.16 3.25-6.36s3.31-.25 4.06.21c1.66-1.37 5.89-4.71 7.29-4.56a1 1 0 01.9.68c.38 1.21-1.73 3.41-2.49 4.09l-2.72 2.38c.61 1.32 2.37 5.6.9 7.64s-12.67 8.1-13.93 8.77a.46.46 0 01-.23.01zm-1.65-9.11l2 7.87c3.71-2 11.89-6.61 13-8.18s-.46-5.54-1.15-7a.51.51 0 01.12-.6l3-2.62c1.35-1.19 2.3-2.69 2.2-3-.77-.07-4.17 2.34-6.88 4.6a.5.5 0 01-.62 0s-1.93-1.43-3.17-.45-2.55 4.68-3 6a.55.55 0 01-.23.29z" fill="#231f20"/><path d="M120.14 92.44C124.54 94.9 188 57.85 188 57.85l9.45 9.78-64.25 46.54z" fill="#2b2c28"/><path d="M141.52 91.82s-37.75 0-47.48 7.75c-7.21 5.74-8.57 45.76-8.57 45.76l72.08-5.62s4.14-42.19-16.03-47.89z" fill="#2b2c28"/><path d="M147 115.19a.46.46 0 01-.46-.46V95.1a.46.46 0 01.92 0v19.63a.46.46 0 01-.46.46z" fill="#231f20"/><path d="M228.73 197.58c-.62-.49-23-2.78-24.39-2.35s-7 18.93-6.89 20.51c.18 3.16 12.54-9.5 12.54-9.5l18.74 3.76" fill="#fff"/><path d="M197.85 216.73a.73.73 0 01-.3 0 .93.93 0 01-.6-.91c-.07-1.18 5.31-20.41 7.25-21 1.46-.45 24 1.76 24.84 2.44a.5.5 0 01.08.7.5.5 0 01-.65.12c-1.57-.59-22.72-2.63-24-2.3-1.2.92-6.64 18.45-6.54 20 1 .31 6.86-4.89 11.68-9.82a.49.49 0 01.46-.14l18.73 3.73a.51.51 0 01.4.59.5.5 0 01-.59.39l-18.47-3.68c-3.14 3.15-10 9.88-12.29 9.88z" fill="#231f20"/><path d="M311.64 242.12c0 .65 6.09 20.19 7.87 20.5s26.86-7.6 24.79-9-13.42-.37-13.42-.37L324.83 237" fill="#fff"/><path d="M319.52 263.12h-.1c-2.36-.42-8.27-20.77-8.28-21a.5.5 0 011-.08c.28 1.77 6 19.29 7.51 20.07.67.09 5.92-1.32 12.41-3.47 7-2.33 10.85-4 11.72-4.75-1.87-.79-8.58-.54-12.85-.16a.49.49 0 01-.51-.32l-6-16.23a.5.5 0 11.93-.35l5.91 15.87c2.23-.18 11.37-.85 13.37.49a.71.71 0 01.28.89c-1.03 2.47-23.26 9.04-25.39 9.04zm-34.27-114.41s-9.88 74.11-20 71.85-50.61-10.87-50.61-10.87l3.66-16s28.81 3.06 32.65 3.34 1.14-51.69 1.14-51.69z" fill="#231f20"/><path d="M265.69 221.11a2.76 2.76 0 01-.57-.06c-10-2.22-50.2-10.79-50.6-10.87a.52.52 0 01-.32-.22.51.51 0 01-.07-.38l3.66-16a.52.52 0 01.54-.39c.29 0 28.85 3.07 32.64 3.34 2-1 1.87-26.79.61-51.17a.46.46 0 01.15-.38.5.5 0 01.4-.14l33.17 3.38a.49.49 0 01.35.19.49.49 0 01.1.37c-.35 2.66-8.78 65.1-18.26 71.72a3.18 3.18 0 01-1.8.61zm-50.47-11.8c4.67 1 40.71 8.67 50.12 10.77a2 2 0 001.58-.41c8.68-6.07 16.93-64.41 17.77-70.52l-32.09-3.26c.36 7.09 2.29 48.17-.93 51.32a1 1 0 01-.78.31c-3.54-.26-28.57-2.91-32.22-3.3z" fill="#231f20"/><path fill="#231f20" d="M276.25 154.52l34.76 98.33 19.54-10.48-29.95-93.66-24.35 5.81z"/><path d="M311 253.35a.48.48 0 01-.18 0 .5.5 0 01-.3-.3l-34.75-98.33a.53.53 0 010-.41.56.56 0 01.33-.25l24.34-5.81a.49.49 0 01.59.34l30 93.66a.5.5 0 01-.24.59l-19.55 10.48a.46.46 0 01-.24.03zm-34.1-98.47l34.37 97.26 18.67-10-29.68-92.84z" fill="#231f20"/><path d="M304.82 109.58l12.17-4c-.56-.82-6.7-19.68-14-23.27-6.37-4.22-18.14-3.42-31.46-2.49a41.05 41.05 0 00-12.49 2.6c-15 6-17.16 25.75-17.16 25.75l13.85 4.83s-2.24 26.87-4.35 40.92c0 0 16.88 6.4 54.61.15.01-.07-1.1-40.52-1.17-44.49z" fill="#2b2c28"/><path fill="#231f20" d="M289.01 87.41l-13.51 30.83-3.31-29.74 16.82-1.09z"/><path d="M275.5 118.74h-.07a.5.5 0 01-.42-.44l-3.31-29.75a.54.54 0 01.11-.37.5.5 0 01.35-.18L289 86.91a.52.52 0 01.44.21.5.5 0 01.05.49L276 118.44a.51.51 0 01-.5.3zM272.75 89l3 27.38L288.23 88z" fill="#231f20"/><path d="M296.07 48.62a13 13 0 00-13.77-3.78c-4.28 1.38-8.18 3.77-12.47 5.14s-9.35 1.55-12.9-1.21a7.24 7.24 0 008.35 7c-.16 1-1.52 1.15-2.49.94s-2.21-.45-2.81.35a2 2 0 00-.13 1.78c.73 2.41 2.93 4 5 5.46 3 2.07 6 2.5 9.06 3.93 3.24 1.53 5.66 3.65 9.38 4.17a13.5 13.5 0 009.6-2.36c1.75-1.24 5.31-2.93 4.61-5.59-.34-1.26 1.88-3.66 2-5.51a13.52 13.52 0 00-3.43-10.32z" fill="#fff"/><path d="M285 73a12.28 12.28 0 01-1.82-.13 18.26 18.26 0 01-6.71-2.7c-.89-.52-1.82-1-2.82-1.52a31.34 31.34 0 00-3.38-1.31 22.4 22.4 0 01-5.75-2.66c-2.31-1.6-4.44-3.24-5.19-5.72a2.47 2.47 0 01.21-2.23 2.37 2.37 0 012.36-.73 8.2 8.2 0 01-2.7-1.5 7.38 7.38 0 01-2.77-5.79.49.49 0 01.28-.44.51.51 0 01.52.06c4.21 3.27 10.11 1.88 12.45 1.13a54.31 54.31 0 006.21-2.46 55.57 55.57 0 016.26-2.58 13.48 13.48 0 0114.29 3.91A14 14 0 01300 59a8.38 8.38 0 01-1.18 3c-.47.86-1 1.84-.87 2.31.68 2.58-1.94 4.27-3.85 5.5-.34.22-.67.43-.95.63A14.25 14.25 0 01285 73zm-23.68-16a1.11 1.11 0 00-.94.35 1.65 1.65 0 00-.05 1.34c.65 2.17 2.64 3.69 4.8 5.19a21.15 21.15 0 005.51 2.53 36.15 36.15 0 013.48 1.36c1 .48 2 1 2.89 1.55a17.23 17.23 0 006.35 2.58 13.14 13.14 0 009.24-2.27c.29-.21.63-.43 1-.66 1.75-1.13 3.92-2.53 3.42-4.4-.22-.86.32-1.87 1-3a8.05 8.05 0 00.98-2.68 13 13 0 00-3.3-9.89 12.5 12.5 0 00-13.24-3.63 53.35 53.35 0 00-6.15 2.54 58.58 58.58 0 01-6.32 2.6c-4.82 1.54-9.31 1.27-12.5-.7a6.58 6.58 0 002.35 4 6.37 6.37 0 005.34 1.5.5.5 0 01.44.13.46.46 0 01.15.44 1.48 1.48 0 01-.66 1 3.3 3.3 0 01-2.43.32 7.25 7.25 0 00-1.36-.2z" fill="#231f20"/><path d="M274.62 79l-2.42 9.5s2.69 6.2 9.11 5 7.7-6 7.71-6l1.08-10.23.67-6.29A7.17 7.17 0 00291 69c-.4-1.43-2.19-2.21-2.71-3.69a12.24 12.24 0 01.39-9.08c-2.68 2.16-5.76 4.36-9.2 4.13a16.43 16.43 0 001.87-2.36l-6.73 2.4a16.48 16.48 0 01-2.68.64c-1 .19-.61-.44-1.37.78-1.88 3-2.14 8.18-1.76 11.63.54 4.9 5.81 5.55 5.81 5.55z" fill="#fff"/><path d="M279.66 94.12c-5.49 0-7.9-5.37-7.92-5.42a.47.47 0 010-.33l2.29-9c-1.43-.35-5.22-1.67-5.69-6-.39-3.51-.13-8.75 1.84-11.95l.05-.09c.47-.75.62-1 1.18-.91a1 1 0 00.47 0 16.14 16.14 0 002.6-.62l6.73-2.41a.5.5 0 01.56.17.51.51 0 010 .58 17.9 17.9 0 01-1.17 1.58c2.86-.26 5.48-2.18 7.74-4a.5.5 0 01.62 0 .48.48 0 01.15.6 11.79 11.79 0 00-.37 8.72 4.72 4.72 0 001.26 1.7 5 5 0 011.47 2.08 3.87 3.87 0 01-.11 1.6c0 .2-.07.38-.09.52l-1.75 16.52s-1.3 5.17-8.1 6.49a9.16 9.16 0 01-1.76.17zm-6.94-5.67c.46.93 3 5.58 8.49 4.52 6.05-1.17 7.31-5.64 7.32-5.69l1.74-16.44c0-.17.06-.38.1-.61a3.58 3.58 0 00.13-1.14 4.09 4.09 0 00-1.22-1.64 5.66 5.66 0 01-1.49-2 12.84 12.84 0 01-.21-7.78c-2.38 1.79-5.11 3.36-8.15 3.16a.49.49 0 01-.43-.32.51.51 0 01.1-.53c.31-.32.61-.65.89-1l-5.21 1.86a15.56 15.56 0 01-2.68.65 2.49 2.49 0 01-.78 0l-.27.43-.05.08c-1.72 2.8-2.09 7.7-1.7 11.32.49 4.49 5.18 5.17 5.38 5.19a.51.51 0 01.35.22.48.48 0 01.07.4z" fill="#231f20"/><path d="M273.34 84a6.85 6.85 0 006.2-1.56c2.92-2.57 2.81-4.84 2.81-4.84a10.58 10.58 0 01-7.73 1.4z" fill="#231f20"/><path d="M275 84.71a6.33 6.33 0 01-1.75-.22.5.5 0 01-.34-.6l1.27-5a.5.5 0 01.61-.36 10.2 10.2 0 007.33-1.36.49.49 0 01.77.39c0 .1.09 2.54-3 5.24a7.33 7.33 0 01-4.89 1.91zm-1-1.07a6.4 6.4 0 005.26-1.56 7.8 7.8 0 002.47-3.52 10.71 10.71 0 01-6.7 1.07z" fill="#231f20"/><path d="M278.6 64.06s-3.72 4.68-3 5.61 3 .53 3 .53" fill="#fff"/><path d="M277.53 70.79a3 3 0 01-2.33-.79c-.79-1 1.2-4 3-6.23a.49.49 0 01.7-.08.5.5 0 01.08.7c-1.73 2.18-3.13 4.53-3 5 .38.49 1.84.43 2.47.32a.51.51 0 01.58.41.5.5 0 01-.41.58 8.16 8.16 0 01-1.09.09z" fill="#231f20"/><ellipse cx="282.62" cy="64.03" rx=".82" ry="1.16" transform="rotate(-.24 283.956 65.053)" fill="#231f20"/><ellipse cx="274.86" cy="63.45" rx="1.16" ry=".82" transform="rotate(-73.11 274.86 63.45)" fill="#231f20"/><path d="M277.89 74.5a12.66 12.66 0 01-6.89-2.41.5.5 0 11.61-.79c.23.18 5.69 4.32 10.41.82a.5.5 0 11.59.8 7.77 7.77 0 01-4.72 1.58z" fill="#231f20"/><path d="M288.24 68.14a4 4 0 012.88-1.14 2.79 2.79 0 012.46 1.74 3.54 3.54 0 01-.92 3.31 6.56 6.56 0 01-4.82 2.24" fill="#fff"/><path d="M287.84 74.81a.5.5 0 01-.5-.5.49.49 0 01.49-.5 6 6 0 004.45-2.07 3.05 3.05 0 00.82-2.82 2.27 2.27 0 00-2-1.4 3.44 3.44 0 00-2.51 1 .51.51 0 01-.71 0 .5.5 0 010-.71 4.47 4.47 0 013.26-1.25 3.3 3.3 0 012.89 2.07 4 4 0 01-1 3.81 7.06 7.06 0 01-5.2 2.41zm-131.72 91.47s11.35 46.6 3.86 49.84-50.11 9.47-50.11 9.47l-1.93-13.44s32.79-7.18 34.58-8.81-11-41.23-11.3-41.55 24.9 4.49 24.9 4.49z" fill="#231f20"/><path d="M109.87 226.09a.51.51 0 01-.29-.1.5.5 0 01-.2-.33l-1.94-13.44a.5.5 0 01.39-.56c12.63-2.76 33.12-7.57 34.35-8.69 1-2.17-10.28-38.61-11.38-40.92a.49.49 0 010-.51c.23-.44.29-.56 25.43 4.25a.49.49 0 01.39.37c1.18 4.81 11.24 47.1 3.58 50.42-7.47 3.24-48.49 9.25-50.23 9.5zm-1.37-13.55l1.8 12.46c4.78-.71 42.57-6.36 49.48-9.36 1.62-.7 3.84-4.95.59-25.59-1.71-10.81-4.2-21.42-4.66-23.36-8.45-1.61-20.58-3.88-23.72-4.35 2.18 5.68 11.31 35.43 11.2 40.3a1.38 1.38 0 01-.34 1.05c-1.77 1.64-29.38 7.76-34.35 8.85z" fill="#231f20"/><path fill="#231f20" d="M103.77 164.68l35.49 83.83 15.29-2.95-23.23-88.49-27.55 7.61z"/><path d="M139.26 249a.51.51 0 01-.46-.3l-35.49-83.84a.51.51 0 01.33-.68l27.54-7.6a.49.49 0 01.39 0 .52.52 0 01.23.3l23.2 88.56a.45.45 0 01-.06.39.49.49 0 01-.33.23L139.36 249zm-34.8-84l35.1 82.93 14.37-2.77-23-87.48z" fill="#231f20"/><path d="M116.31 54.77a14.6 14.6 0 00-17.36.4 12.68 12.68 0 00-4.58 12.67 11.27 11.27 0 0010.37 8.21c4.59.23 9.42-3.7 11.86-7.3 2.95-4.35 4.93-10.38-.29-13.98z" fill="#fff"/><path d="M105.13 76.56h-.42A11.73 11.73 0 0193.88 68a13.27 13.27 0 014.76-13.19 15.06 15.06 0 0118-.41C123 58.75 119 66.08 117 69c-2.47 3.71-7.21 7.56-11.87 7.56zm2.67-24a13.72 13.72 0 00-8.54 3 12.26 12.26 0 00-4.41 12.16 10.71 10.71 0 009.91 7.83c4.2.19 8.94-3.4 11.43-7.08 1.83-2.71 5.48-9.41-.16-13.28a14.53 14.53 0 00-8.23-2.59z" fill="#231f20"/><path d="M107.08 62.39a12.89 12.89 0 00-4.2 11.86 5.13 5.13 0 001.58 3.15c1.77 1.44 4.45.6 6.35-.66a24.27 24.27 0 007.39-8.27c1.33-2.32 3.34-7.55-.26-8.84s-8.22.48-10.86 2.76z" fill="#231f20"/><path d="M106.72 78.65a4 4 0 01-2.58-.86 5.47 5.47 0 01-1.75-3.46A13.36 13.36 0 01106.75 62c2.75-2.37 7.67-4.17 11.36-2.85a3.34 3.34 0 012.1 2c1 2.84-1.3 7.06-1.58 7.53a24.62 24.62 0 01-7.54 8.44 8.34 8.34 0 01-4.37 1.53zm8.66-18.93a13.18 13.18 0 00-8 3.05 12.37 12.37 0 00-4 11.39 4.6 4.6 0 001.4 2.85c1.57 1.27 4 .47 5.77-.69a23.62 23.62 0 007.23-8.1c.89-1.56 2.22-4.72 1.5-6.68a2.3 2.3 0 00-1.5-1.43 7 7 0 00-2.4-.39zm-8.3 2.67z" fill="#231f20"/><path d="M125.58 90.77a28.68 28.68 0 01-2.49 2.15 11.82 11.82 0 01-11.42.29c-8.45-4.35-8.25-14.23-6.5-22.27.71-3.27 3.1-10.09 7.51-6.68-1.29-1 4-4.31 4.81-4.62 5.62-2.29 11.59 1 14.88 5.57a44.05 44.05 0 014.92 8.41c1.3 3.28-.12 7.78-2 10.57a14.41 14.41 0 01-5.82 5c-1.09.51-2.49.64-3.5 1.27z" fill="#fff"/><path d="M117.21 95a12.57 12.57 0 01-5.76-1.39c-7-3.6-9.28-11.27-6.77-22.81.34-1.56 1.67-6.74 4.62-7.82a3.38 3.38 0 012.82.28c.81-1.72 4.89-4 5.18-4.12 6.07-2.47 12.28 1.24 15.48 5.74a43.57 43.57 0 015 8.51c1.37 3.44-.08 8.13-2 11a14.82 14.82 0 01-6 5.18 10 10 0 01-1.62.55 7.76 7.76 0 00-1.82.69c-.13.09-.26.18-.38.28a10.55 10.55 0 00-1 .85 9.76 9.76 0 01-1.58 1.33 11.71 11.71 0 01-6.17 1.73zm-6.83-31.21a2.1 2.1 0 00-.74.13c-2 .72-3.37 4.27-4 7.09-2.4 11-.3 18.35 6.24 21.71a11.33 11.33 0 0010.93-.26 9.74 9.74 0 001.42-1.19 12.94 12.94 0 011-.93 5 5 0 01.47-.33 7.5 7.5 0 012.08-.81 9.37 9.37 0 001.47-.5 13.88 13.88 0 005.62-4.83c1.78-2.69 3.14-7 1.91-10.11A42.74 42.74 0 00132 65.5c-3-4.19-8.73-7.66-14.29-5.39-1 .4-4.75 3-4.7 3.75a.49.49 0 11-.6.78 3.36 3.36 0 00-2.03-.81zm15.2 26.94z" fill="#231f20"/><path d="M131.87 71.82s3.31 7.21 2.51 13a8.32 8.32 0 01-5.81 7l.87 10s.5 5.12-5.85 4.88a10.83 10.83 0 01-9-5.48l-2.29-18.34s6.76-4.71 5.56-11.27c0 0 8.81 3.39 14.01.21z" fill="#fff"/><path d="M124 107.21h-.45a11.25 11.25 0 01-9.4-5.75 1 1 0 010-.16l-2.31-18.36a.47.47 0 01.21-.47c.06 0 6.47-4.61 5.35-10.77a.54.54 0 01.17-.48.53.53 0 01.5-.08c.09 0 8.65 3.23 13.57.25a.51.51 0 01.4 0 .49.49 0 01.31.27c.14.3 3.37 7.41 2.56 13.26a8.94 8.94 0 01-5.78 7.3l.84 9.62a5.22 5.22 0 01-1.3 3.78 6.08 6.08 0 01-4.67 1.59zm-8.92-6.13a10.25 10.25 0 008.51 5.13 5.37 5.37 0 004.29-1.32 4.18 4.18 0 001-3l-.87-10a.51.51 0 01.38-.53 7.75 7.75 0 005.43-6.6c.66-4.71-1.54-10.5-2.25-12.21-4.48 2.3-10.93.55-13.16-.17.52 5.72-4.44 9.85-5.64 10.76z" fill="#231f20"/><path d="M115.66 81.28s-3.71-6.68-6.81-2 2.4 9 5.46 8.36" fill="#fff"/><path d="M113.63 88.22a6.8 6.8 0 01-5.18-3 5.35 5.35 0 010-6.23 3.49 3.49 0 013-1.89c2.53.1 4.59 3.76 4.68 3.92a.5.5 0 11-.88.48c-.51-.92-2.21-3.34-3.84-3.4a2.57 2.57 0 00-2.11 1.44 4.34 4.34 0 000 5.11c1.19 1.72 3.39 2.84 4.93 2.5a.5.5 0 01.22 1 3.47 3.47 0 01-.82.07zm14.99-2.53a8.42 8.42 0 01-1.39-.12.5.5 0 11.17-1 5.35 5.35 0 002.79-.19c0-.58-1.49-2.73-3.28-4.72a.49.49 0 010-.7.5.5 0 01.71 0c.87 1 3.7 4.23 3.51 5.57a.84.84 0 01-.39.63 4.18 4.18 0 01-2.12.53z" fill="#231f20"/><path d="M126.5 89a6.55 6.55 0 01-1-.07 7.34 7.34 0 01-4.59-2.58.5.5 0 01.19-.68.51.51 0 01.68.19 6.56 6.56 0 004 2.1c2 .23 3.88-.57 5.71-2.35a.5.5 0 11.7.71A8.26 8.26 0 01126.5 89zm2.07 2.82s-5.29 1.14-8.43.62c0 0 4 7.6 9.12 7.11z" fill="#231f20"/><path d="M128.79 100.07c-5.1 0-8.93-7.08-9.09-7.39a.51.51 0 010-.53.52.52 0 01.49-.2c3 .49 8.19-.61 8.24-.62a.5.5 0 01.41.09.49.49 0 01.2.35l.69 7.73a.5.5 0 01-.45.55zm-7.71-7c1.15 1.82 4.14 6 7.64 6l-.6-6.65a32.16 32.16 0 01-7.04.63z" fill="#231f20"/><ellipse cx="123.69" cy="78.6" rx=".79" ry="1.38" transform="rotate(-8.11 123.652 78.587)" fill="#231f20"/><ellipse cx="130.9" cy="77.57" rx=".79" ry="1.38" transform="rotate(-8.11 130.815 77.536)" fill="#231f20"/><path d="M299.41 109.26l-81.84-42.82a4.69 4.69 0 00-6.79 5l3.19 18-137.1 24.3a2.9 2.9 0 00-2.35 3.37l12.33 69.47a2.9 2.9 0 003.36 2.35l137.11-24.33 3.19 18a4.69 4.69 0 008.08 2.33l62.12-68.37a4.7 4.7 0 00-1.3-7.3z" fill="#fff"/><path d="M89.7 189.48a3.41 3.41 0 01-1.94-.62 3.36 3.36 0 01-1.4-2.19L74 117.19a3.4 3.4 0 012.76-3.94L213.39 89l-3.1-17.51A5.19 5.19 0 01217.8 66l81.85 42.83a5.18 5.18 0 011.43 8.08L239 185.28a5.19 5.19 0 01-8.94-2.59l-3.11-17.51L90.3 189.42a3.05 3.05 0 01-.6.06zM215.38 66.39a4.2 4.2 0 00-2.46.82 4.12 4.12 0 00-1.65 4.11l3.2 18a.51.51 0 01-.41.58L77 114.23a2.45 2.45 0 00-1.55 1A2.4 2.4 0 0075 117l12.33 69.47a2.41 2.41 0 002.79 1.95l137.1-24.33a.51.51 0 01.58.4l3.19 18a4.18 4.18 0 007.22 2.08l62.12-68.37a4.19 4.19 0 00-1.16-6.52l-81.84-42.8a4.15 4.15 0 00-1.95-.49z" fill="#231f20"/><path d="M213.72 83.52c-1.1-.37-2.22-.7-3.34-1a3.63 3.63 0 00-2.16-.08c-1 .39-1.51 1.58-1.87 2.63-.53 1.61-1.08 3.33-.62 5 .67 2.38 3.21 3.69 5.59 4.34a8.36 8.36 0 003.61.32c7.07-1.28 3.49-9.63-1.21-11.21z" fill="#fff"/><path d="M213.94 95.3a10.64 10.64 0 01-2.75-.43c-1.87-.5-5.13-1.78-5.94-4.68-.52-1.84.12-3.73.63-5.26.39-1.17.92-2.47 2.16-2.94a4 4 0 012.46.07c1.14.28 2.28.62 3.38 1 3.11 1 5.73 4.83 5.5 7.94-.09 1.3-.79 3.57-4.36 4.22a6.65 6.65 0 01-1.08.08zM209 82.83a1.79 1.79 0 00-.62.1c-.84.31-1.25 1.36-1.57 2.32-.58 1.71-1 3.24-.62 4.67.68 2.42 3.58 3.54 5.24 4a8 8 0 003.39.32c2.19-.39 3.41-1.54 3.54-3.31.2-2.65-2.15-6-4.82-6.92-1.08-.36-2.19-.68-3.3-1a4.93 4.93 0 00-1.24-.18z" fill="#231f20"/><path d="M89.59 120.13a1.84 1.84 0 00.77-.17c2.55-1.11 2.19-5.82 2.41-8.12.12-1.29.09-2.85-1-3.52-2.46-1.49-5.88-.84-8.11.8s-2.72 4.74-2.47 7.4c.09 1.06.17 3.41 1.13 4.07 1.28.9 2.79-1.58 2.76-2.68v.89a3.51 3.51 0 00.17 1.21 1.26 1.26 0 00.85.83c.64.13 1.22-.43 1.48-1a16.61 16.61 0 01.66-1.83 1.33 1.33 0 00.23 1.79 1.62 1.62 0 001.12.33z" fill="#fff"/><path d="M86.3 121.36a1.53 1.53 0 01-.3 0 1.74 1.74 0 01-1.22-1.14v-.11a3.38 3.38 0 01-1 1A1.55 1.55 0 0182 121c-1.05-.73-1.21-2.74-1.31-4.07v-.36c-.23-2.51 0-5.91 2.68-7.85 2.17-1.61 5.81-2.55 8.66-.83 1.39.84 1.38 2.68 1.26 4 0 .42-.06.91-.09 1.44-.1 2.56-.25 6.06-2.62 7.1a2.43 2.43 0 01-1 .21 2.23 2.23 0 01-1.46-.47L88 120a2.07 2.07 0 01-1.7 1.36zm-.74-3.46v.88a3.28 3.28 0 00.14 1.06.76.76 0 00.49.51c.34.07.73-.32.91-.74a5.53 5.53 0 00.24-.72l.15-.5a1.65 1.65 0 01.35-.73.5.5 0 01.81.57 2.54 2.54 0 00-.18.41.38.38 0 000 .15.89.89 0 00.3.6 1.1 1.1 0 00.79.24 1.62 1.62 0 00.58-.12c1.8-.79 1.93-3.93 2-6.23 0-.55 0-1.06.08-1.49.16-1.66-.09-2.62-.77-3-2.35-1.42-5.58-.69-7.56.77-2.25 1.67-2.48 4.7-2.28 7v.37c.08.93.23 2.87.89 3.33a.55.55 0 00.63 0 3.3 3.3 0 001.35-2.27.5.5 0 01.48-.51.52.52 0 01.52.49z" fill="#231f20"/><path d="M315 105.91s6.14 29.51-1.13 31.43C304 140 263 129.94 263 129.94s-10.7 2.63-12.57-.19 0-6.76.94-7 9-.8 9-.8-6.56-4.83-4.5-5.2 9.39 2.06 9.39 2.06 40.16 3 39.79.92-2.23-9.9-2.23-9.9" fill="#fff"/><path d="M309.3 138.28c-13.85 0-43.71-7.21-46.26-7.83-1.58.38-11 2.51-13-.42a6.39 6.39 0 01-.33-5.83c.16-.4.77-1.72 1.59-1.89s5.41-.52 7.75-.71c-1.95-1.51-4.27-3.57-4-4.63a.88.88 0 01.79-.66c2.08-.38 8.57 1.73 9.57 2.06 14.08 1 36.71 2.28 39.16 1.28-.44-2.32-2.15-9.58-2.17-9.66a.5.5 0 111-.23c.08.32 1.86 7.88 2.23 9.93a.64.64 0 01-.17.57c-1.62 1.81-31.14-.23-40.15-.9h-.12c-2-.67-7.46-2.32-9.1-2.06.25.68 2.3 2.57 4.67 4.32a.51.51 0 01.19.54.52.52 0 01-.45.36c-2.23.17-8.2.65-8.95.79a3.31 3.31 0 00-1 1.68 5.23 5.23 0 00.38 4.5c1.23 1.84 8 1 12 0a.49.49 0 01.24 0c.41.1 40.93 10 50.62 7.41 5.59-1.48 2.45-22.77.77-30.85a.5.5 0 011-.2c.64 3.07 6 30-1.49 32a19.22 19.22 0 01-4.77.43zm-6.44-28.4l-4.53-19.17" fill="#231f20"/><path d="M302.86 110.38a.5.5 0 01-.48-.39l-4.53-19.17a.49.49 0 01.37-.6.51.51 0 01.6.37l4.53 19.17a.5.5 0 01-.37.6zM198.51 59.13a.47.47 0 01-.38-.2.46.46 0 01.12-.64 2.29 2.29 0 001-2.21 7.94 7.94 0 01-.66-2 .46.46 0 01.84-.32 5.36 5.36 0 01.71 2 1.42 1.42 0 00.55.62.45.45 0 00.48-.07c.91-.54 0-3.75-.86-5.74a.45.45 0 01.23-.6.47.47 0 01.61.23c.42.95 2.42 5.74.49 6.89a1.32 1.32 0 01-1.32.12 1 1 0 01-.23-.13 3.14 3.14 0 01-1.34 1.93.5.5 0 01-.24.12z" fill="#231f20"/><path d="M147 217.27a.45.45 0 01-.44-.34l-8.92-33.33a.46.46 0 01.36-.6.46.46 0 01.56.33l8.92 33.33a.46.46 0 01-.32.56z" fill="#fff"/></g></svg>