<svg data-name="Layer 1" xmlns="http://www.w3.org/2000/svg" width="888.006" height="552.781"><path fill="#e6e6e6" d="M615.007 108h182v332h-182z"/><path d="M632.007 423h148V125h-148z" fill="#fff"/><path fill="#e6e6e6" d="M688.874 188.915h43.223v4.014h-43.223zm0 13.885h75.335v4.014h-75.335zm0 13.885h75.261v4.014h-75.261zm-41.069-27.711h32.111v32.111h-32.111zm41.069 68.941h43.223v4.014h-43.223zm0 13.885h75.335v4.014h-75.335zm0 13.885h75.261v4.014h-75.261zm-41.069-27.711h32.111v32.111h-32.111zm41.069 68.941h43.223v4.014h-43.223zm0 13.885h75.335v4.014h-75.335zm0 13.885h75.261v4.014h-75.261zm-41.069-27.711h32.111v32.111h-32.111zM107.007 108h182v332h-182z"/><path d="M124.007 423h148V125h-148z" fill="#fff"/><path fill="#e6e6e6" d="M180.874 188.915h43.223v4.014h-43.223zm0 13.885h75.335v4.014h-75.335zm0 13.885h75.261v4.014h-75.261zm-41.069-27.711h32.111v32.111h-32.111zm41.069 68.941h43.223v4.014h-43.223zm0 13.885h75.335v4.014h-75.335zm0 13.885h75.261v4.014h-75.261zm-41.069-27.711h32.111v32.111h-32.111zm41.069 68.941h43.223v4.014h-43.223zm0 13.885h75.335v4.014h-75.335zm0 13.885h75.261v4.014h-75.261zm-41.069-27.711h32.111v32.111h-32.111z"/><ellipse cx="444.003" cy="449" rx="444.003" ry="18" fill="#e6e6e6"/><path fill="#3f3d56" d="M328.115 0h247.783v452H328.115z"/><path d="M338.823 440.5H565.19v-429H338.823z" fill="#fff"/><path fill="#2b2c28" d="M428.681 110.161h58.846v5.465h-58.846z"/><path fill="#e6e6e6" d="M428.681 129.065h102.564v5.465H428.681zm0 18.904h102.463v5.465H428.681z"/><path fill="#2b2c28" d="M372.769 110.242h43.718v43.718h-43.718zm55.912 93.859h58.846v5.465h-58.846z"/><path fill="#e6e6e6" d="M428.681 223.005h102.564v5.465H428.681zm0 18.904h102.463v5.465H428.681z"/><path fill="#2b2c28" d="M372.769 204.182h43.718V247.9h-43.718zm55.912 93.858h58.846v5.465h-58.846z"/><path fill="#e6e6e6" d="M428.681 316.945h102.564v5.465H428.681zm0 18.904h102.463v5.465H428.681z"/><path fill="#2b2c28" d="M372.769 298.121h43.718v43.718h-43.718z"/><path d="M361.507 320.5l-3 13s1 30-7 27-6-29-6-29l7-13z" fill="#ffb8b8"/><circle cx="317.007" cy="158" r="20" fill="#ffb8b8"/><path d="M301.507 163.5l-2 29 25 3s0-24 2-27-25-5-25-5z" fill="#ffb8b8"/><path d="M357.007 201l-32.383-13.713s-15.469-11.937-24.543-3.112L296.007 190s-36 14-36 25l14 55s-8 31 4 33l65 6s9-11 1-25l3-33z" fill="#575a89"/><path d="M335.007 202l22-1s7 2 12 21 6 50 6 50l-12 56-15-2 6-54-10-36zm-63 6l-10.847 3.378S252.007 225 252.007 232s-4 60-4 60l26 43 8-21-16-27 13-33z" fill="#575a89"/><path d="M346.007 307l-71.897-6.326S267.007 346 268.007 364s2 46 2 46l-8 122 31-4 4-101 13-55 15 70 10 90 27-3-9-109s8-98-7-113z" fill="#2f2e41"/><path d="M356.007 524l9 3s19-5 14 8-19 11-19 11-17 13-24 3l4-21zm-73 0l9 3s19-5 14 8-19 11-19 11-17 13-24 3l4-21zm18.5-348.5s-21-15-10-33c7.631-12.487 23.444-11.499 32.414-9.722a15.154 15.154 0 0111.086 8.722c1.5 3.5 1.5 7-4.5 7-12 0-6 9-6 9s-8 2-6 9-17 9-17 9z" fill="#2f2e41"/></svg>