<svg xmlns="http://www.w3.org/2000/svg" viewBox="0 0 1440 320"><path fill="#2b2c28" fill-opacity="1" d="M0,128L24,112C48,96,96,64,144,58.7C192,53,240,75,288,96C336,117,384,139,432,154.7C480,171,528,181,576,160C624,139,672,85,720,74.7C768,64,816,96,864,122.7C912,149,960,171,1008,170.7C1056,171,1104,149,1152,149.3C1200,149,1248,171,1296,165.3C1344,160,1392,128,1416,112L1440,96L1440,0L1416,0C1392,0,1344,0,1296,0C1248,0,1200,0,1152,0C1104,0,1056,0,1008,0C960,0,912,0,864,0C816,0,768,0,720,0C672,0,624,0,576,0C528,0,480,0,432,0C384,0,336,0,288,0C240,0,192,0,144,0C96,0,48,0,24,0L0,0Z"></path></svg>