<svg xmlns="http://www.w3.org/2000/svg" viewBox="0 0 1440 320"><path fill="#2b2c28" fill-opacity="1" d="M0,192L24,170.7C48,149,96,107,144,96C192,85,240,107,288,122.7C336,139,384,149,432,170.7C480,192,528,224,576,208C624,192,672,128,720,112C768,96,816,128,864,128C912,128,960,96,1008,80C1056,64,1104,64,1152,85.3C1200,107,1248,149,1296,149.3C1344,149,1392,107,1416,85.3L1440,64L1440,320L1416,320C1392,320,1344,320,1296,320C1248,320,1200,320,1152,320C1104,320,1056,320,1008,320C960,320,912,320,864,320C816,320,768,320,720,320C672,320,624,320,576,320C528,320,480,320,432,320C384,320,336,320,288,320C240,320,192,320,144,320C96,320,48,320,24,320L0,320Z"></path></svg>