<svg xmlns="http://www.w3.org/2000/svg" viewBox="0 0 1440 320"><path fill="#339989" fill-opacity="1" d="M0,96L17.1,117.3C34.3,139,69,181,103,176C137.1,171,171,117,206,128C240,139,274,213,309,240C342.9,267,377,245,411,234.7C445.7,224,480,224,514,213.3C548.6,203,583,181,617,160C651.4,139,686,117,720,128C754.3,139,789,181,823,213.3C857.1,245,891,267,926,234.7C960,203,994,117,1029,112C1062.9,107,1097,181,1131,176C1165.7,171,1200,85,1234,90.7C1268.6,96,1303,192,1337,240C1371.4,288,1406,288,1423,288L1440,288L1440,0L1422.9,0C1405.7,0,1371,0,1337,0C1302.9,0,1269,0,1234,0C1200,0,1166,0,1131,0C1097.1,0,1063,0,1029,0C994.3,0,960,0,926,0C891.4,0,857,0,823,0C788.6,0,754,0,720,0C685.7,0,651,0,617,0C582.9,0,549,0,514,0C480,0,446,0,411,0C377.1,0,343,0,309,0C274.3,0,240,0,206,0C171.4,0,137,0,103,0C68.6,0,34,0,17,0L0,0Z"></path></svg>