<svg xmlns="http://www.w3.org/2000/svg" viewBox="0 0 1440 320"><path fill="#339989" fill-opacity="1" d="M0,256L24,250.7C48,245,96,235,144,197.3C192,160,240,96,288,90.7C336,85,384,139,432,149.3C480,160,528,128,576,96C624,64,672,32,720,37.3C768,43,816,85,864,96C912,107,960,85,1008,90.7C1056,96,1104,128,1152,122.7C1200,117,1248,75,1296,58.7C1344,43,1392,53,1416,58.7L1440,64L1440,0L1416,0C1392,0,1344,0,1296,0C1248,0,1200,0,1152,0C1104,0,1056,0,1008,0C960,0,912,0,864,0C816,0,768,0,720,0C672,0,624,0,576,0C528,0,480,0,432,0C384,0,336,0,288,0C240,0,192,0,144,0C96,0,48,0,24,0L0,0Z"></path></svg>