<svg xmlns="http://www.w3.org/2000/svg" xmlns:xlink="http://www.w3.org/1999/xlink" width="270" height="40" viewBox="0 0 202.5 30" version="1.2"><defs><symbol overflow="visible" id="b"><path d="M5.797.094c-.188 0-.336-.059-.438-.172a.64.64 0 01-.156-.453v-12.25H.672c-.18 0-.313-.04-.406-.125-.094-.094-.141-.227-.141-.406 0-.165.047-.29.14-.376.094-.093.227-.14.407-.14h10.234c.156 0 .285.047.39.14a.464.464 0 01.173.376.479.479 0 01-.172.39.564.564 0 01-.39.14H6.39v12.25a.62.62 0 01-.172.454.55.55 0 01-.422.172zm0 0"/></symbol><symbol overflow="visible" id="c"><path d="M6.031-9.75c2.282 0 3.422 1.23 3.422 3.688v5.546c0 .188-.055.34-.156.454a.585.585 0 01-.422.156.658.658 0 01-.453-.157.64.64 0 01-.156-.453v-5.468c0-.946-.196-1.633-.579-2.063-.375-.426-.976-.64-1.796-.64-.95 0-1.711.289-2.282.859-.562.574-.843 1.344-.843 2.312v5c0 .188-.055.34-.157.454a.604.604 0 01-.437.156.63.63 0 01-.438-.157.6.6 0 01-.171-.453v-12.812a.589.589 0 01.609-.61c.187 0 .332.06.437.172a.645.645 0 01.157.438v5.406a3.14 3.14 0 011.296-1.36c.57-.312 1.227-.468 1.97-.468zm0 0"/></symbol><symbol overflow="visible" id="d"><path d="M8.875-2.047c.113 0 .21.055.297.156a.51.51 0 01.125.344c0 .281-.219.563-.656.844-.95.562-1.946.844-2.985.844-1.46 0-2.605-.438-3.437-1.313-.836-.883-1.25-2.086-1.25-3.61 0-.988.18-1.859.547-2.609.375-.75.898-1.328 1.578-1.734.676-.414 1.453-.625 2.328-.625 1.226 0 2.195.398 2.906 1.188.719.792 1.078 1.882 1.078 3.265 0 .23-.054.402-.156.516-.105.117-.277.172-.516.172h-6.53c.03 1.199.335 2.117.921 2.75.594.625 1.426.937 2.5.937.563 0 1.031-.07 1.406-.219.383-.156.797-.359 1.235-.609.28-.195.484-.297.609-.297zM5.422-8.766c-.918 0-1.652.29-2.203.86-.555.574-.883 1.375-.985 2.406h6.063c-.024-1.04-.281-1.844-.781-2.406-.5-.57-1.2-.86-2.094-.86zm0 0"/></symbol><symbol overflow="visible" id="e"><path d="M2.39.094a.592.592 0 01-.437-.172.6.6 0 01-.172-.453v-12.703c0-.164.063-.305.188-.422a.673.673 0 01.468-.172h7.25c.176 0 .313.047.407.14a.469.469 0 01.156.376c0 .18-.055.308-.156.39-.094.086-.23.125-.406.125H3v5.235h6.297c.176 0 .312.046.406.14a.511.511 0 01.156.39c0 .18-.054.313-.156.407-.094.086-.23.125-.406.125H3v5.969a.683.683 0 01-.156.469c-.106.101-.258.156-.453.156zm0 0"/></symbol><symbol overflow="visible" id="f"><path d="M6-9.719c.25-.008.426.028.531.11.102.074.157.203.157.39 0 .324-.196.508-.579.547l-.593.063c-.93.086-1.621.418-2.079 1-.449.574-.671 1.246-.671 2.015v5.078c0 .2-.055.352-.157.454a.604.604 0 01-.437.156.63.63 0 01-.438-.157c-.117-.101-.171-.253-.171-.453v-8.593c0-.196.054-.348.171-.454a.63.63 0 01.438-.156c.176 0 .316.055.422.156.101.106.156.25.156.438v1.281c.531-1.125 1.523-1.738 2.984-1.843zm0 0"/></symbol><symbol overflow="visible" id="g"><path d="M5.36.14c-.876 0-1.65-.203-2.313-.609a4.07 4.07 0 01-1.531-1.719c-.368-.75-.547-1.624-.547-2.624 0-.989.18-1.852.547-2.594.363-.75.875-1.328 1.53-1.735.665-.406 1.438-.609 2.313-.609.864 0 1.63.203 2.297.61.664.406 1.176.984 1.532 1.734.363.742.546 1.605.546 2.593 0 1-.183 1.875-.546 2.625a3.976 3.976 0 01-1.532 1.72C6.988-.063 6.223.14 5.36.14zM5.343-.921c1 0 1.773-.332 2.328-1 .55-.664.828-1.629.828-2.89C8.5-6.04 8.219-7 7.656-7.688 7.102-8.376 6.336-8.72 5.36-8.72c-1 0-1.777.344-2.328 1.031C2.488-7 2.22-6.038 2.22-4.813c0 1.262.265 2.227.797 2.891.539.668 1.316 1 2.328 1zm0 0"/></symbol><symbol overflow="visible" id="h"><path d="M6.031-9.75c2.282 0 3.422 1.23 3.422 3.688v5.546c0 .188-.055.34-.156.454a.585.585 0 01-.422.156.658.658 0 01-.453-.157.64.64 0 01-.156-.453v-5.468c0-.946-.196-1.633-.579-2.063-.375-.426-.976-.64-1.796-.64-.95 0-1.711.289-2.282.859-.562.574-.843 1.344-.843 2.312v5c0 .188-.055.34-.157.454a.604.604 0 01-.437.156.63.63 0 01-.438-.157.6.6 0 01-.171-.453v-8.593a.589.589 0 01.609-.61c.176 0 .316.055.422.156.101.106.156.25.156.438v1.234c.3-.601.734-1.062 1.297-1.375.57-.32 1.234-.484 1.984-.484zm0 0"/></symbol><symbol overflow="visible" id="i"><path d="M5.703-.906c.375.043.563.215.563.515a.445.445 0 01-.188.375c-.117.094-.305.13-.562.11L4.969.062c-1-.07-1.742-.378-2.219-.921-.469-.54-.703-1.368-.703-2.485v-5.219h-1.5a.531.531 0 01-.375-.124C.086-8.77.047-8.883.047-9.031a.46.46 0 01.125-.344.507.507 0 01.375-.14h1.5v-2.438c0-.195.05-.348.156-.453a.572.572 0 01.422-.156c.188 0 .332.054.438.156.113.105.171.258.171.453v2.437H5.61c.176 0 .305.047.391.141.094.086.14.2.14.344a.43.43 0 01-.14.344c-.086.085-.215.124-.39.124H3.233v5.282c0 .812.157 1.398.47 1.75.32.343.816.543 1.483.593zm0 0"/></symbol><symbol overflow="visible" id="j"><path d="M2.438 0a.656.656 0 01-.47-.172.598.598 0 01-.187-.437v-12.625c0-.164.063-.305.188-.422a.673.673 0 01.468-.172h7.454c.164 0 .296.047.39.14a.466.466 0 01.156.376.506.506 0 01-.156.39c-.094.086-.226.125-.39.125H2.984v5.235H9.5c.164 0 .297.046.39.14a.511.511 0 01.157.39c0 .18-.055.313-.156.407-.094.086-.227.125-.391.125H2.984v5.453h6.907c.164 0 .296.047.39.14a.468.468 0 01.156.376.506.506 0 01-.156.39.532.532 0 01-.39.141zm0 0"/></symbol><symbol overflow="visible" id="k"><path d="M9.063-13.938c.187 0 .332.06.437.172a.604.604 0 01.172.438V-.531c0 .187-.059.34-.172.453a.604.604 0 01-.438.156.572.572 0 01-.421-.156.64.64 0 01-.157-.453v-1.297c-.293.648-.718 1.137-1.28 1.469-.563.336-1.231.5-2 .5-.845 0-1.59-.203-2.235-.61-.637-.414-1.133-1-1.485-1.75C1.141-2.977.97-3.852.97-4.844c0-.976.172-1.836.515-2.578.352-.738.848-1.312 1.485-1.719.644-.406 1.39-.609 2.234-.609.77 0 1.438.168 2 .5.563.336.988.82 1.281 1.453v-5.531c0-.176.051-.32.157-.438a.539.539 0 01.421-.171zM5.358-.921c.989 0 1.754-.332 2.297-1 .551-.676.828-1.64.828-2.89 0-1.239-.273-2.196-.812-2.875-.531-.69-1.296-1.034-2.296-1.034-1.012 0-1.793.34-2.344 1.016-.543.68-.812 1.633-.812 2.86 0 1.241.27 2.202.812 2.89.551.687 1.328 1.031 2.328 1.031zm0 0"/></symbol><symbol overflow="visible" id="l"><path d="M7.531.156c-1.281 0-2.398-.281-3.343-.844-.95-.57-1.68-1.39-2.188-2.453-.5-1.07-.75-2.332-.75-3.78 0-1.458.25-2.712.75-3.766.508-1.063 1.238-1.88 2.188-2.454C5.133-13.71 6.25-14 7.53-14c.875 0 1.707.152 2.5.453.79.293 1.461.715 2.016 1.266.187.168.281.355.281.562a.532.532 0 01-.14.375c-.086.106-.18.156-.282.156-.125 0-.273-.062-.437-.187-.711-.582-1.356-.984-1.938-1.203-.574-.219-1.246-.328-2.015-.328-1.586 0-2.813.527-3.688 1.578C2.96-10.285 2.53-8.816 2.53-6.922c0 1.906.43 3.387 1.297 4.438C4.703-1.441 5.93-.922 7.516-.922c.77 0 1.441-.11 2.015-.328.582-.227 1.227-.629 1.938-1.203.187-.133.332-.203.437-.203.102 0 .196.058.281.172a.526.526 0 01.141.359c0 .21-.094.402-.281.578A5.465 5.465 0 0110.03-.28a7.24 7.24 0 01-2.5.437zm0 0"/></symbol><symbol overflow="visible" id="m"><path d="M5.344-9.75c1.144 0 2 .305 2.562.906.57.594.86 1.5.86 2.719v5.594c0 .187-.055.34-.157.453a.585.585 0 01-.421.156C8 .078 7.851.023 7.75-.078a.64.64 0 01-.156-.453v-1.172A3.045 3.045 0 016.39-.343C5.867-.02 5.27.14 4.594.14c-.617 0-1.18-.125-1.688-.375a3.092 3.092 0 01-1.219-1.032A2.644 2.644 0 011.25-2.75c0-.707.18-1.254.547-1.64.375-.395.984-.676 1.828-.844.852-.176 2.04-.266 3.563-.266h.406v-.719c0-.863-.18-1.492-.532-1.89-.355-.407-.914-.61-1.671-.61-.97 0-1.891.258-2.766.766a3.203 3.203 0 01-.297.219c-.168.105-.308.156-.422.156a.414.414 0 01-.328-.14.538.538 0 01-.125-.36c0-.29.227-.57.688-.844.457-.27.968-.473 1.53-.61a6.686 6.686 0 011.673-.218zM4.687-.906c.852 0 1.551-.285 2.094-.86.54-.57.813-1.304.813-2.203v-.64h-.375c-1.25 0-2.211.054-2.875.156-.668.105-1.14.289-1.422.547-.274.25-.406.617-.406 1.094 0 .554.207 1.011.625 1.374.414.356.93.532 1.546.532zm0 0"/></symbol><symbol overflow="visible" id="n"><path d="M5.375.14C4.5.14 3.727-.062 3.062-.468a4.034 4.034 0 01-1.546-1.719c-.368-.75-.547-1.609-.547-2.578 0-.976.18-1.843.547-2.593.375-.758.898-1.348 1.578-1.766.676-.414 1.453-.625 2.328-.625.488 0 .969.07 1.437.203.477.125.899.32 1.266.578.238.168.406.324.5.469.094.137.14.281.14.438a.522.522 0 01-.124.359.352.352 0 01-.282.125c-.136 0-.343-.11-.625-.328a5.374 5.374 0 00-1.03-.594c-.337-.145-.747-.219-1.235-.219-1.024 0-1.82.356-2.39 1.063-.575.699-.86 1.664-.86 2.89 0 1.22.281 2.168.844 2.844.57.668 1.367 1 2.39 1 .5 0 .914-.07 1.25-.219a8.437 8.437 0 001.094-.593c.113-.07.223-.141.328-.204.113-.07.207-.109.281-.109a.36.36 0 01.297.14.51.51 0 01.125.345.62.62 0 01-.14.406c-.086.117-.262.265-.532.453-.344.262-.773.469-1.281.625-.5.144-1 .219-1.5.219zm0 0"/></symbol><clipPath id="a"><path d="M181.234 6.309h16.418V22.73h-16.418zm0 0"/></clipPath></defs><g clip-path="url(#a)"><path d="M196.285 6.309h-13.683c-.75 0-1.368.617-1.368 1.367v13.683c0 .754.618 1.371 1.368 1.371h13.683c.754 0 1.367-.617 1.367-1.37V7.675a1.37 1.37 0 00-1.367-1.367zm-9.297 9.98l-.965.965-2.738-2.734 2.738-2.739.97.969-1.77 1.77zm1.516 4.387l-1.324-.356 3.207-11.957 1.32.352zm4.36-3.422l-.97-.965 1.77-1.77-1.766-1.769.965-.969 2.739 2.739zm0 0" fill="#2b8275"/></g><use xlink:href="#b" x="4.416" y="20.957"/><use xlink:href="#c" x="15.462" y="20.957"/><use xlink:href="#d" x="25.939" y="20.957"/><use xlink:href="#e" x="35.729" y="20.957"/><use xlink:href="#e" x="40.144" y="20.957"/><use xlink:href="#f" x="50.464" y="20.957"/><use xlink:href="#g" x="56.585" y="20.957"/><use xlink:href="#h" x="66.748" y="20.957"/><use xlink:href="#i" x="77.225" y="20.957"/><use xlink:href="#e" x="83.111" y="20.957"/><use xlink:href="#j" x="87.525" y="20.957"/><use xlink:href="#h" x="98.355" y="20.957"/><use xlink:href="#k" x="108.832" y="20.957"/><use xlink:href="#e" x="119.544" y="20.957"/><use xlink:href="#l" x="123.958" y="20.957"/><use xlink:href="#g" x="136.711" y="20.957"/><use xlink:href="#m" x="146.874" y="20.957"/><use xlink:href="#n" x="156.664" y="20.957"/><use xlink:href="#c" x="165.454" y="20.957"/></svg>