<svg xmlns="http://www.w3.org/2000/svg" xmlns:xlink="http://www.w3.org/1999/xlink" width="250" height="40" viewBox="0 0 187.5 30" version="1.2"><defs><symbol overflow="visible" id="b"><path d="M5.266.094a.725.725 0 01-.532-.203c-.136-.133-.203-.317-.203-.547v-10.531H.734c-.21 0-.37-.051-.484-.157-.117-.101-.172-.254-.172-.453 0-.195.055-.348.172-.453.113-.113.273-.172.484-.172h9.032c.218 0 .382.059.5.172.113.105.171.258.171.453 0 .2-.058.352-.171.453-.118.106-.282.156-.5.156H5.984V-.655c0 .23-.07.414-.203.547a.676.676 0 01-.515.203zm0 0"/></symbol><symbol overflow="visible" id="c"><path d="M5.656-8.781c1.008 0 1.77.289 2.282.86.519.562.78 1.405.78 2.53v4.782c0 .218-.07.39-.202.515a.678.678 0 01-.5.188c-.23 0-.407-.063-.532-.188-.125-.125-.187-.297-.187-.515v-4.75c0-.758-.156-1.32-.469-1.688-.312-.363-.812-.547-1.5-.547-.781 0-1.406.246-1.875.735-.469.48-.703 1.132-.703 1.953V-.61c0 .218-.063.39-.188.515-.124.125-.296.188-.515.188-.23 0-.406-.063-.531-.188s-.188-.297-.188-.515v-11.204a.66.66 0 01.188-.484.725.725 0 01.53-.203c.22 0 .392.063.517.188.124.117.187.28.187.5v4.609a2.78 2.78 0 011.172-1.172c.508-.27 1.086-.406 1.734-.406zm0 0"/></symbol><symbol overflow="visible" id="d"><path d="M7.953-1.984c.133 0 .25.054.344.156a.59.59 0 01.14.406c0 .293-.21.563-.624.813a5.41 5.41 0 01-1.329.546A5.34 5.34 0 015.11.126c-1.336 0-2.386-.39-3.156-1.172-.762-.789-1.14-1.879-1.14-3.266 0-.882.164-1.66.5-2.328A3.829 3.829 0 012.75-8.219c.625-.375 1.328-.562 2.11-.562 1.113 0 2 .367 2.656 1.094.656.718.984 1.703.984 2.953 0 .23-.047.402-.14.515-.094.106-.247.157-.454.157H2.234c.102 2.023 1.063 3.03 2.875 3.03.457 0 .848-.062 1.172-.187a7.722 7.722 0 001.063-.5c.3-.176.504-.265.61-.265zM4.875-7.672c-.75 0-1.355.234-1.813.703-.449.469-.714 1.133-.796 1.985H7.25c-.023-.864-.242-1.524-.656-1.985-.407-.468-.98-.703-1.719-.703zm0 0"/></symbol><symbol overflow="visible" id="e"><path d="M2.25.094a.725.725 0 01-.531-.203c-.125-.133-.188-.317-.188-.547v-11.047c0-.219.067-.39.203-.516a.725.725 0 01.532-.203h6.421c.208 0 .368.059.485.172.113.105.172.258.172.453 0 .188-.059.336-.172.438-.117.105-.277.156-.485.156H2.954v4.281h5.375c.207 0 .367.055.485.156.124.106.187.262.187.47a.535.535 0 01-.188.437c-.117.105-.277.156-.484.156H2.953v5.047c0 .23-.062.414-.187.547-.118.132-.29.203-.516.203zm0 0"/></symbol><symbol overflow="visible" id="f"><path d="M5.563-8.75c.488-.031.734.168.734.594a.66.66 0 01-.156.453c-.106.117-.29.183-.547.203l-.516.047c-.793.074-1.383.355-1.766.844a2.755 2.755 0 00-.562 1.718v4.282c0 .23-.07.406-.203.53a.72.72 0 01-.5.173c-.219 0-.399-.063-.531-.188-.125-.125-.188-.297-.188-.515v-7.438c0-.219.067-.39.203-.515a.762.762 0 01.516-.188c.187 0 .344.063.469.188a.659.659 0 01.203.5v.984c.238-.52.582-.91 1.031-1.172.457-.27.977-.43 1.563-.484zm0 0"/></symbol><symbol overflow="visible" id="g"><path d="M4.875.125c-.813 0-1.527-.18-2.14-.547a3.589 3.589 0 01-1.422-1.562c-.336-.676-.5-1.457-.5-2.344 0-.895.164-1.676.5-2.344a3.632 3.632 0 011.421-1.562c.614-.364 1.329-.547 2.141-.547.813 0 1.523.183 2.14.547a3.642 3.642 0 011.438 1.562c.344.668.516 1.45.516 2.344 0 .887-.172 1.668-.516 2.344A3.594 3.594 0 017.016-.422c-.618.367-1.329.547-2.141.547zm0-1.188c.844 0 1.488-.273 1.938-.828.457-.562.687-1.375.687-2.437 0-1.05-.23-1.86-.688-2.422-.46-.57-1.105-.86-1.937-.86-.836 0-1.48.29-1.938.86-.46.563-.687 1.371-.687 2.422 0 1.055.223 1.86.672 2.422.457.562 1.11.843 1.953.843zm0 0"/></symbol><symbol overflow="visible" id="h"><path d="M5.64-8.781c2.051 0 3.079 1.133 3.079 3.39v4.782c0 .218-.063.39-.188.515s-.297.188-.515.188c-.23 0-.407-.063-.532-.188-.125-.125-.187-.297-.187-.515v-4.688c0-.8-.156-1.383-.469-1.75-.312-.363-.812-.547-1.5-.547-.781 0-1.406.246-1.875.735-.469.48-.703 1.132-.703 1.953V-.61c0 .218-.063.39-.188.515-.124.125-.296.188-.515.188-.23 0-.406-.063-.531-.188s-.188-.297-.188-.515v-7.438c0-.207.063-.375.188-.5.125-.133.3-.203.53-.203.208 0 .376.07.5.203a.66.66 0 01.188.485v.89c.282-.52.672-.914 1.172-1.187.508-.282 1.086-.422 1.735-.422zm0 0"/></symbol><symbol overflow="visible" id="i"><path d="M5.281-1.031c.414.031.625.218.625.562 0 .2-.078.352-.234.453-.149.094-.367.13-.656.11l-.47-.047C3.61-.016 2.915-.29 2.47-.781c-.45-.5-.672-1.25-.672-2.25v-4.422H.609c-.199 0-.355-.047-.468-.14A.539.539 0 01-.016-8c0-.176.051-.316.157-.422a.68.68 0 01.468-.156h1.188v-1.985c0-.226.062-.398.187-.515.133-.125.313-.188.532-.188.207 0 .375.063.5.188.132.117.203.289.203.515v1.985h1.953c.187 0 .336.055.453.156A.55.55 0 015.797-8a.522.522 0 01-.172.406.698.698 0 01-.453.14H3.219v4.5c0 .65.129 1.118.39 1.407.27.281.672.438 1.204.469zm0 0"/></symbol><symbol overflow="visible" id="j"><path d="M2.266 0c-.22 0-.399-.063-.532-.188a.686.686 0 01-.203-.515v-11c0-.219.067-.39.203-.516a.725.725 0 01.532-.203h6.593c.207 0 .368.059.485.172a.54.54 0 01.187.438.535.535 0 01-.187.437c-.117.105-.278.156-.485.156H2.953v4.313H8.5c.219 0 .383.058.5.172.113.105.172.25.172.437 0 .188-.059.336-.172.438-.117.105-.281.156-.5.156H2.953v4.5H8.86c.207 0 .368.055.485.156.125.106.187.258.187.453 0 .188-.062.336-.187.438C9.228-.051 9.067 0 8.86 0zm0 0"/></symbol><symbol overflow="visible" id="k"><path d="M8.203-12.5c.227 0 .406.07.531.203a.66.66 0 01.188.485V-.61c0 .21-.063.382-.188.515-.125.125-.304.188-.53.188-.22 0-.392-.063-.517-.188A.722.722 0 017.5-.609v-.954c-.262.543-.64.961-1.14 1.25-.493.293-1.075.438-1.75.438-.75 0-1.415-.188-1.985-.563-.574-.374-1.023-.898-1.344-1.578C.97-2.69.813-3.473.813-4.359c0-.883.156-1.66.468-2.329.32-.664.77-1.18 1.344-1.546.57-.364 1.234-.547 1.984-.547.676 0 1.258.148 1.75.437.5.293.88.711 1.141 1.25v-4.718c0-.22.063-.383.188-.5.125-.126.296-.188.515-.188zM4.891-1.062c.832 0 1.472-.282 1.921-.844.458-.57.688-1.38.688-2.422 0-1.05-.23-1.86-.688-2.422-.449-.563-1.09-.844-1.921-.844-.836 0-1.485.282-1.954.844-.46.563-.687 1.36-.687 2.39 0 1.044.227 1.856.688 2.438.468.574 1.117.86 1.953.86zm0 0"/></symbol><symbol overflow="visible" id="l"><path d="M6.797.14c-1.18 0-2.195-.253-3.047-.765-.855-.508-1.516-1.242-1.984-2.203-.461-.957-.688-2.086-.688-3.39 0-1.29.227-2.415.688-3.376.468-.957 1.129-1.691 1.984-2.203.852-.508 1.867-.765 3.047-.765.789 0 1.535.132 2.234.39.696.25 1.301.61 1.813 1.078.187.18.281.383.281.61a.706.706 0 01-.14.437c-.094.125-.204.188-.329.188-.148 0-.32-.067-.515-.204-.594-.468-1.137-.796-1.625-.984-.493-.187-1.055-.281-1.688-.281-1.355 0-2.402.45-3.14 1.344-.731.886-1.094 2.14-1.094 3.765 0 1.649.363 2.914 1.094 3.797.738.887 1.785 1.328 3.14 1.328.625 0 1.18-.093 1.672-.281.5-.188 1.047-.516 1.64-.984.196-.125.368-.188.516-.188.125 0 .235.059.328.172a.675.675 0 01.141.438.778.778 0 01-.281.609A5.167 5.167 0 019.03-.234 6.58 6.58 0 016.797.14zm0 0"/></symbol><symbol overflow="visible" id="m"><path d="M4.828-8.781c2.145 0 3.219 1.125 3.219 3.375V-.61c0 .21-.063.382-.188.515a.678.678 0 01-.5.188.722.722 0 01-.515-.188.722.722 0 01-.188-.515v-.86A2.522 2.522 0 015.641-.28c-.461.273-.993.406-1.594.406-.555 0-1.063-.11-1.531-.328a2.759 2.759 0 01-1.094-.938 2.324 2.324 0 01-.406-1.328c0-.644.16-1.144.484-1.5.332-.363.875-.625 1.625-.781.758-.156 1.805-.234 3.14-.234h.391v-.579c0-.707-.148-1.222-.437-1.546-.282-.332-.746-.5-1.39-.5-.806 0-1.618.218-2.438.656-.313.2-.54.297-.672.297a.439.439 0 01-.344-.157.578.578 0 01-.14-.406c0-.164.046-.312.14-.437.102-.125.266-.25.484-.375.414-.227.883-.41 1.407-.547a6.284 6.284 0 011.562-.203zM4.25-1c.695 0 1.27-.238 1.719-.719.457-.476.687-1.093.687-1.843v-.5h-.312c-1.032 0-1.82.046-2.36.14-.543.086-.93.23-1.156.438-.23.199-.344.496-.344.89 0 .461.164.84.5 1.14.332.306.754.454 1.266.454zm0 0"/></symbol><symbol overflow="visible" id="n"><path d="M4.86.125c-.805 0-1.512-.18-2.126-.547a3.614 3.614 0 01-1.421-1.547c-.336-.664-.5-1.441-.5-2.328 0-.883.171-1.664.515-2.344a3.812 3.812 0 011.453-1.578c.625-.375 1.344-.562 2.156-.562.438 0 .875.062 1.313.187.445.117.832.293 1.156.531.219.137.367.274.453.407A.783.783 0 018-7.203a.578.578 0 01-.14.406.418.418 0 01-.344.156.626.626 0 01-.266-.062 2.638 2.638 0 01-.234-.14 1.375 1.375 0 00-.125-.095A6.183 6.183 0 006-7.405c-.273-.125-.605-.188-1-.188-.855 0-1.523.293-2 .875-.469.586-.703 1.39-.703 2.422 0 1.031.234 1.828.703 2.39.477.563 1.145.845 2 .845.395 0 .738-.055 1.031-.172.29-.114.582-.27.875-.47.125-.081.242-.148.36-.202A.727.727 0 017.578-2c.125 0 .227.055.313.156a.59.59 0 01.14.407.722.722 0 01-.125.406c-.086.125-.234.265-.453.422a4.374 4.374 0 01-1.203.53c-.46.134-.922.204-1.39.204zm0 0"/></symbol><clipPath id="a"><path d="M165.438 5.684h16.382v16.382h-16.382zm0 0"/></clipPath></defs><g clip-path="url(#a)"><path d="M180.457 5.684h-13.652c-.75 0-1.368.617-1.368 1.367v13.652c0 .75.618 1.363 1.368 1.363h13.652c.75 0 1.363-.613 1.363-1.363V7.051a1.37 1.37 0 00-1.363-1.367zm-9.273 9.957l-.97.964-2.73-2.73 2.735-2.73.965.964-1.766 1.766zm1.507 4.379l-1.32-.356 3.2-11.934 1.316.356zm4.352-3.415l-.965-.964 1.766-1.766-1.766-1.766.965-.964 2.73 2.73zm0 0" fill="#fff"/></g><use xlink:href="#b" x="5.166" y="20.235" fill="#fff"/><use xlink:href="#c" x="15.2" y="20.235" fill="#fff"/><use xlink:href="#d" x="24.705" y="20.235" fill="#fff"/><use xlink:href="#e" x="33.489" y="20.235" fill="#fff"/><use xlink:href="#e" x="37.538" y="20.235" fill="#fff"/><use xlink:href="#f" x="46.85" y="20.235" fill="#fff"/><use xlink:href="#g" x="52.57" y="20.235" fill="#fff"/><use xlink:href="#h" x="61.847" y="20.235" fill="#fff"/><use xlink:href="#i" x="71.353" y="20.235" fill="#fff"/><use xlink:href="#e" x="76.845" y="20.235" fill="#fff"/><use xlink:href="#j" x="80.893" y="20.235" fill="#fff"/><use xlink:href="#h" x="90.645" y="20.235" fill="#fff"/><use xlink:href="#k" x="100.15" y="20.235" fill="#fff"/><use xlink:href="#e" x="109.902" y="20.235" fill="#fff"/><use xlink:href="#l" x="113.951" y="20.235" fill="#fff"/><use xlink:href="#g" x="125.375" y="20.235" fill="#fff"/><use xlink:href="#m" x="134.652" y="20.235" fill="#fff"/><use xlink:href="#n" x="143.489" y="20.235" fill="#fff"/><use xlink:href="#c" x="151.427" y="20.235" fill="#fff"/></svg>