<svg xmlns="http://www.w3.org/2000/svg" xmlns:xlink="http://www.w3.org/1999/xlink" width="250" height="40" viewBox="0 0 187.5 30" version="1.2"><defs><symbol overflow="visible" id="b"><path d="M5.39.094c-.18 0-.312-.055-.406-.157a.661.661 0 01-.14-.437v-11.39H.625a.531.531 0 01-.375-.126c-.094-.082-.14-.207-.14-.375a.46.46 0 01.14-.359.55.55 0 01.375-.125h9.531c.145 0 .266.047.36.14.101.087.156.2.156.344a.467.467 0 01-.156.36.489.489 0 01-.36.14H5.953V-.5a.63.63 0 01-.156.438.566.566 0 01-.406.156zm0 0"/></symbol><symbol overflow="visible" id="c"><path d="M5.61-9.078c2.124 0 3.187 1.148 3.187 3.437v5.172a.578.578 0 01-.14.406.53.53 0 01-.407.157.554.554 0 01-.406-.157.539.539 0 01-.157-.406v-5.11c0-.874-.18-1.507-.53-1.905-.356-.407-.915-.61-1.673-.61-.875 0-1.578.274-2.109.813-.531.531-.797 1.25-.797 2.156v4.656a.554.554 0 01-.156.406.511.511 0 01-.39.157.572.572 0 01-.423-.157.578.578 0 01-.14-.406v-11.937c0-.164.047-.301.14-.406a.572.572 0 01.422-.157.51.51 0 01.39.156.566.566 0 01.157.407v5.031a2.95 2.95 0 011.203-1.266c.531-.289 1.14-.437 1.828-.437zm0 0"/></symbol><symbol overflow="visible" id="d"><path d="M8.25-1.906c.113 0 .207.047.281.14a.485.485 0 01.125.329c0 .261-.21.523-.625.78a5.3 5.3 0 01-2.765.782c-1.356 0-2.422-.406-3.204-1.219-.78-.812-1.171-1.93-1.171-3.36 0-.913.171-1.722.515-2.421A3.979 3.979 0 012.875-8.5c.625-.383 1.348-.578 2.172-.578 1.144 0 2.047.371 2.703 1.11.664.73 1 1.741 1 3.03 0 .22-.055.383-.156.485-.094.105-.25.156-.469.156H2.047c.031 1.125.32 1.98.875 2.563.55.586 1.328.875 2.328.875.52 0 .957-.067 1.313-.204a9.422 9.422 0 001.125-.562c.269-.188.457-.281.562-.281zM5.047-8.172c-.856 0-1.54.274-2.047.813-.512.53-.82 1.28-.922 2.25h5.64c-.023-.977-.265-1.735-.734-2.266-.46-.531-1.105-.797-1.937-.797zm0 0"/></symbol><symbol overflow="visible" id="e"><path d="M2.234.094a.572.572 0 01-.421-.157.613.613 0 01-.157-.437v-11.813a.5.5 0 01.172-.39.63.63 0 01.438-.172h6.75c.164 0 .289.043.375.125a.46.46 0 01.14.36c0 .167-.047.292-.14.374-.086.075-.211.11-.375.11h-6.22v4.875h5.86a.55.55 0 01.375.125.46.46 0 01.14.36c0 .167-.046.292-.14.374a.531.531 0 01-.375.125h-5.86V-.5c0 .188-.054.336-.155.438a.53.53 0 01-.407.156zm0 0"/></symbol><symbol overflow="visible" id="f"><path d="M5.594-9.047c.226-.008.39.024.484.094.102.074.156.2.156.375 0 .305-.183.469-.546.5l-.563.062c-.867.086-1.508.399-1.922.938-.418.531-.625 1.156-.625 1.875V-.47c0 .18-.055.32-.156.422a.532.532 0 01-.39.14c-.18 0-.321-.046-.423-.14-.093-.101-.14-.242-.14-.422v-8c0-.187.047-.328.14-.422a.572.572 0 01.422-.156c.156 0 .281.055.375.156a.511.511 0 01.156.391v1.188c.5-1.04 1.422-1.61 2.766-1.704zm0 0"/></symbol><symbol overflow="visible" id="g"><path d="M4.984.125c-.812 0-1.527-.188-2.14-.563-.617-.374-1.094-.91-1.438-1.609C1.063-2.742.891-3.55.891-4.469c0-.926.171-1.738.515-2.437.344-.696.82-1.235 1.438-1.61.613-.375 1.328-.562 2.14-.562.801 0 1.516.187 2.141.562.625.375 1.102.914 1.438 1.61.332.699.5 1.511.5 2.437 0 .918-.168 1.727-.5 2.422-.336.7-.813 1.235-1.438 1.61-.625.374-1.34.562-2.14.562zM4.97-.859c.937 0 1.66-.305 2.172-.922.507-.625.765-1.52.765-2.688 0-1.144-.261-2.035-.781-2.672-.512-.644-1.227-.968-2.14-.968-.93 0-1.65.324-2.157.968-.512.637-.765 1.528-.765 2.672 0 1.168.25 2.063.75 2.688.5.617 1.218.922 2.156.922zm0 0"/></symbol><symbol overflow="visible" id="h"><path d="M5.61-9.078c2.124 0 3.187 1.148 3.187 3.437v5.172a.578.578 0 01-.14.406.53.53 0 01-.407.157.554.554 0 01-.406-.157.539.539 0 01-.157-.406v-5.11c0-.874-.18-1.507-.53-1.905-.356-.407-.915-.61-1.673-.61-.875 0-1.578.274-2.109.813-.531.531-.797 1.25-.797 2.156v4.656a.554.554 0 01-.156.406.511.511 0 01-.39.157.572.572 0 01-.423-.157.578.578 0 01-.14-.406v-8c0-.176.047-.316.14-.422a.572.572 0 01.422-.156c.156 0 .281.055.375.156a.511.511 0 01.156.391v1.156a2.92 2.92 0 011.204-1.281c.53-.3 1.144-.453 1.843-.453zm0 0"/></symbol><symbol overflow="visible" id="i"><path d="M5.313-.844c.343.043.515.203.515.485a.4.4 0 01-.172.343c-.105.082-.281.118-.531.11l-.5-.032C3.695 0 3.008-.28 2.562-.78c-.437-.508-.656-1.285-.656-2.328v-4.86H.516a.556.556 0 01-.36-.11.43.43 0 01-.125-.327c0-.133.04-.242.125-.328a.522.522 0 01.36-.125h1.39v-2.266c0-.176.047-.313.14-.406.095-.102.227-.156.407-.156.164 0 .3.054.406.156a.53.53 0 01.157.406v2.266h2.203c.164 0 .289.043.375.125a.457.457 0 01.125.328.445.445 0 01-.125.328c-.086.074-.211.11-.375.11H3.016v4.921c0 .75.144 1.29.437 1.61.29.324.75.511 1.375.562zm0 0"/></symbol><symbol overflow="visible" id="j"><path d="M2.266 0a.654.654 0 01-.438-.156.544.544 0 01-.172-.406v-11.75a.5.5 0 01.172-.391.63.63 0 01.438-.172h6.937a.55.55 0 01.375.125.46.46 0 01.14.36.483.483 0 01-.14.359.531.531 0 01-.375.125H2.781v4.875h6.063a.55.55 0 01.375.125.46.46 0 01.14.36c0 .167-.046.292-.14.374a.531.531 0 01-.375.125H2.78v5.078h6.422a.55.55 0 01.375.125c.094.074.14.188.14.344 0 .168-.046.293-.14.375A.531.531 0 019.203 0zm0 0"/></symbol><symbol overflow="visible" id="k"><path d="M8.438-12.969c.164 0 .3.055.406.156a.566.566 0 01.156.407V-.5c0 .18-.055.32-.156.422a.566.566 0 01-.406.156.554.554 0 01-.407-.156c-.094-.102-.14-.242-.14-.422v-1.203c-.274.605-.668 1.062-1.188 1.375-.523.305-1.14.453-1.86.453-.78 0-1.476-.188-2.077-.563-.594-.382-1.059-.925-1.391-1.625C1.051-2.77.891-3.585.891-4.515c0-.906.16-1.703.484-2.39.332-.696.797-1.235 1.39-1.61.602-.375 1.297-.562 2.079-.562.718 0 1.336.156 1.86.469.519.312.913.765 1.187 1.359v-5.156c0-.164.046-.301.14-.406a.554.554 0 01.406-.157zM4.983-.859c.926 0 1.641-.313 2.141-.938.508-.625.766-1.516.766-2.672 0-1.156-.25-2.05-.75-2.687C6.64-7.79 5.926-8.11 5-8.11c-.938 0-1.664.312-2.172.937-.512.625-.765 1.512-.765 2.656 0 1.157.253 2.059.765 2.704.508.636 1.227.953 2.156.953zm0 0"/></symbol><symbol overflow="visible" id="l"><path d="M7.016.14c-1.2 0-2.243-.257-3.125-.78-.875-.532-1.547-1.29-2.016-2.282-.469-1-.703-2.176-.703-3.531 0-1.344.234-2.508.703-3.5.469-.988 1.14-1.75 2.016-2.281.882-.532 1.925-.797 3.125-.797.812 0 1.586.14 2.328.422a5.168 5.168 0 011.875 1.171c.164.157.25.336.25.532a.559.559 0 01-.125.36c-.074.093-.156.14-.25.14-.125 0-.266-.063-.422-.188-.656-.531-1.258-.898-1.797-1.11-.531-.206-1.156-.312-1.875-.312-1.48 0-2.625.493-3.438 1.47-.804.968-1.203 2.335-1.203 4.093 0 1.781.399 3.164 1.204 4.14C4.375-1.343 5.52-.859 7-.859c.719 0 1.344-.102 1.875-.313.54-.207 1.14-.578 1.797-1.11.176-.124.316-.187.422-.187.094 0 .176.055.25.156a.51.51 0 01.125.344c0 .188-.086.367-.25.532A5.066 5.066 0 019.344-.266a6.758 6.758 0 01-2.328.407zm0 0"/></symbol><symbol overflow="visible" id="m"><path d="M4.969-9.078c1.07 0 1.875.281 2.406.844.531.562.797 1.406.797 2.53V-.5c0 .18-.055.32-.156.422a.53.53 0 01-.407.156.554.554 0 01-.406-.156C7.11-.18 7.063-.32 7.063-.5v-1.094c-.25.555-.622.98-1.11 1.282-.492.292-1.047.437-1.672.437a3.635 3.635 0 01-1.578-.344 2.651 2.651 0 01-1.125-.969 2.445 2.445 0 01-.406-1.375c0-.656.164-1.164.5-1.53.344-.364.91-.626 1.703-.782.79-.156 1.895-.234 3.313-.234h.375v-.688c0-.8-.168-1.383-.5-1.75-.325-.375-.84-.562-1.547-.562-.899 0-1.75.242-2.563.718-.043.024-.14.086-.297.188-.148.105-.277.156-.39.156a.38.38 0 01-.297-.14.533.533 0 01-.11-.344c0-.258.207-.52.625-.782a5.999 5.999 0 011.422-.562 6.428 6.428 0 011.563-.203zm-.61 8.234c.79 0 1.438-.265 1.938-.797.508-.539.766-1.222.766-2.046v-.61h-.344c-1.168 0-2.063.055-2.688.156-.617.094-1.054.262-1.312.5-.25.243-.375.586-.375 1.032 0 .511.191.933.578 1.265.383.336.863.5 1.437.5zm0 0"/></symbol><symbol overflow="visible" id="n"><path d="M5 .125c-.813 0-1.531-.188-2.156-.563-.617-.374-1.094-.91-1.438-1.609-.343-.695-.515-1.492-.515-2.39 0-.915.171-1.723.515-2.422a3.979 3.979 0 011.469-1.625c.625-.395 1.348-.594 2.172-.594.457 0 .906.062 1.344.187.437.118.828.297 1.171.547.22.156.375.305.47.438.093.125.14.261.14.406 0 .125-.04.234-.11.328a.352.352 0 01-.28.125c-.126 0-.321-.101-.579-.312a5.414 5.414 0 00-.969-.547c-.312-.133-.695-.203-1.14-.203-.95 0-1.696.328-2.235.984-.53.648-.796 1.543-.796 2.688 0 1.136.265 2.015.796 2.64.532.625 1.27.938 2.22.938.456 0 .843-.067 1.155-.204a7.369 7.369 0 001.016-.546c.113-.07.219-.141.313-.204a.525.525 0 01.25-.093c.125 0 .222.047.296.14a.46.46 0 01.11.297.678.678 0 01-.125.407c-.086.105-.25.242-.5.406a3.868 3.868 0 01-1.188.578A5.144 5.144 0 015 .125zm0 0"/></symbol><clipPath id="a"><path d="M167.5 6.793h15.285v15.281H167.5zm0 0"/></clipPath></defs><g clip-path="url(#a)"><path d="M181.512 6.793h-12.739c-.699 0-1.273.574-1.273 1.273v12.735c0 .699.574 1.273 1.273 1.273h12.739c.699 0 1.273-.574 1.273-1.273V8.066c0-.699-.574-1.273-1.273-1.273zm-8.653 9.289l-.902.898-2.547-2.546 2.55-2.547.9.898-1.65 1.649zm1.407 4.082l-1.23-.328 2.984-11.133 1.23.328zm4.058-3.184l-.898-.898 1.648-1.648-1.648-1.649.902-.898 2.547 2.547zm0 0" fill="#2b8275"/></g><use xlink:href="#b" x="2.925" y="20.425"/><use xlink:href="#c" x="13.206" y="20.425"/><use xlink:href="#d" x="22.958" y="20.425"/><use xlink:href="#e" x="32.07" y="20.425"/><use xlink:href="#e" x="36.179" y="20.425"/><use xlink:href="#f" x="45.784" y="20.425"/><use xlink:href="#g" x="51.482" y="20.425"/><use xlink:href="#h" x="60.941" y="20.425"/><use xlink:href="#i" x="70.693" y="20.425"/><use xlink:href="#e" x="76.171" y="20.425"/><use xlink:href="#j" x="80.28" y="20.425"/><use xlink:href="#h" x="90.36" y="20.425"/><use xlink:href="#k" x="100.112" y="20.425"/><use xlink:href="#e" x="110.082" y="20.425"/><use xlink:href="#l" x="114.191" y="20.425"/><use xlink:href="#g" x="126.061" y="20.425"/><use xlink:href="#m" x="135.52" y="20.425"/><use xlink:href="#n" x="144.633" y="20.425"/><use xlink:href="#c" x="152.814" y="20.425"/></svg>