<svg data-name="Layer 1" xmlns="http://www.w3.org/2000/svg" width="760.554" height="493.87"><path d="M760.554 231.87a77.996 77.996 0 01-72 77.77c-.66.05-1.33.1-2 .13v-74.03a4.96 4.96 0 00-1.84-3.86 1.247 1.247 0 00-.22-.18 1.861 1.861 0 00-.23-.16 5 5 0 00-4.77-.35l-.83-1.82a7.007 7.007 0 012.89-.63l-56.96-49.07c.44-.5.9-.99 1.36-1.48a78.007 78.007 0 01134.6 53.68z" fill="#f2f2f2"/><path d="M19.778 285.056a10.087 10.087 0 019.73-12.023l44.962-53.524 11.225 14.352-45.822 49.813a10.142 10.142 0 01-20.095 1.382zm213.509-65.878a10.527 10.527 0 00-.833 1.434l-49.094 7.017-7.455-9.464-15.754 9.384 14.809 23.089 59.875-17.65a10.496 10.496 0 10-1.548-13.81zm-83.861 178.831l8.688 8.65 37.5-29.392-12.822-12.767-33.366 33.509z" fill="#ffb8b8"/><path d="M166.836 431.41l-27.304-27.188 10.504-10.549 16.755 16.683a14.887 14.887 0 01.045 21.053z" fill="#2f2e41"/><path fill="#ffb8b8" d="M103.246 480.98h12.26l5.832-47.288h-18.094l.002 47.288z"/><path d="M139.15 492.363l-38.53.001-.002-14.886 23.644-.002a14.887 14.887 0 0114.888 14.887zm-38.57-47.906L86.617 341.47a128.95 128.95 0 012.002-46.716c2.865-12.312 6.737-20.84 11.506-25.347a4.718 4.718 0 012.743-1.253l46.107-4.802a4.706 4.706 0 014.51 2.253l1.516 2.526a4.698 4.698 0 01.442.974l9.748 30.22A3.616 3.616 0 00167 301.45c15.348 7.836 65.203 34.288 62.35 45.7-2.681 10.723-27.78 28.11-35.408 33.183a4.66 4.66 0 01-5.24-.04l-12.663-8.664a4.693 4.693 0 01-.134-7.651l8.733-6.435a3.65 3.65 0 00-.957-6.383l-46.899-16.456a3.65 3.65 0 00-4.846 3.147l-8.647 105.688a4.705 4.705 0 01-4.443 4.303l-13.38.67a4.86 4.86 0 01-.243.006 4.663 4.663 0 01-4.641-4.062z" fill="#2f2e41"/><circle cx="121.726" cy="153.524" r="24.561" fill="#ffb8b8"/><path d="M98.754 265.2l-18.08-65.965.31-.209c.388-.261 39.357-25.993 84.98-5.257l.828.475-10.713 68.467a6.786 6.786 0 01-6.444 5.776l-44.083 1.696a7.879 7.879 0 01-.266.005 6.751 6.751 0 01-6.532-4.988z" fill="#ccc"/><path d="M79.987 242.18l-15.058-17.316a4.686 4.686 0 01-.106-6.032l15.74-19.445 12.084 3.296 6.406 22.421-11.68 16.687a4.665 4.665 0 01-3.6 1.995 5.213 5.213 0 01-.251.007 4.66 4.66 0 01-3.535-1.614zm83.265-3.608a4.665 4.665 0 01-3.6-1.995l-11.68-16.687 5.618-23.602 11.126-3.035 2.076.99 15.41 19.375a4.686 4.686 0 01-.106 6.032l-15.057 17.315a4.66 4.66 0 01-3.536 1.613c-.083 0-.167-.002-.251-.006z" fill="#ccc"/><path d="M686.554 230.84a.98.98 0 01-.24.68 1 1 0 01-1.41.11l-3.35-2.89-56.96-49.07-159.76-137.65a5.02 5.02 0 00-6.54.01l-215.14 186.91-1.94 1.68a.966.966 0 01-.25.16 1 1 0 01-.51.08 1.025 1.025 0 01-.65-.33.997.997 0 01.09-1.41l.27-.24 216.82-188.36a7.047 7.047 0 019.16-.02l159.81 137.69 60.25 51.92a1.016 1.016 0 01.35.73z" fill="#3f3d56"/><path d="M565.084 260.37l-2.63-7.24-9.06-25-19.52-53.83-21.82-60.17L472.704 5.6a8.516 8.516 0 00-10.89-5.09L234.303 83a8.512 8.512 0 00-5.09 10.89l55.79 153.86.95 2.63 58.56 26.54 16.46 7.46 2.67 1.21 69.69 31.59 2.7-.98 45.71-16.57 68.95-25 9.29-3.37a8.518 8.518 0 005.1-10.89z" fill="#e6e6e6"/><path d="M469.683 132.21a12.522 12.522 0 00-16.02-7.49l-90.02 32.65-43.47 15.76a12.498 12.498 0 108.52 23.5l34.95-12.67 98.55-35.73a12.522 12.522 0 007.49-16.02zm15.851 43.72a12.522 12.522 0 00-16.02-7.49l-15.25 5.53-90.62 32.86-27.62 10.01a12.503 12.503 0 008.52 23.51l19.1-6.93 114.4-41.48c.26-.09.51-.2.76-.31a12.498 12.498 0 006.73-15.7zm16.02 44.18a12.51 12.51 0 00-16.01-7.49l-42.77 15.51-33.11 12.01-46.02 16.68-11.6 4.21a12.527 12.527 0 00-8.13 13.42 12.365 12.365 0 00.6 2.47l16.46 7.46 2.67-.97h.02l83.51-30.28 46.89-17a12.511 12.511 0 007.49-16.02zm-93.73-130.88a12.522 12.522 0 00-16.02-7.49l-51.7 18.74a12.503 12.503 0 008.52 23.51l16.36-5.93 10.83-3.93 24.52-8.89a12.511 12.511 0 007.49-16.01z" fill="#fff"/><path d="M614.143 114.13h-242a8.502 8.502 0 00-7.16 3.93 8.414 8.414 0 00-1.34 4.57v162.96l69.69 31.59 9.82 4.45 15.51 7.03a7.02 7.02 0 005.78 0l15.51-7.03 48.54-22 45.24-20.51 48.91-22.16V122.63a8.505 8.505 0 00-8.5-8.5z" fill="#339989"/><path d="M564.143 228.13h-142a12.497 12.497 0 00-12.48 12.01 4.01 4.01 0 00-.02.49 12.518 12.518 0 0012.5 12.5h142a12.5 12.5 0 000-25zm8.091 49.48a12.41 12.41 0 00-8.09-2.98h-142a12.5 12.5 0 000 25h106.35l45.24-20.51a12.583 12.583 0 00-1.5-1.51zm-129.08 44.02l15.51 7.03a7.02 7.02 0 005.78 0l15.51-7.03zm89.23-146.79a12.506 12.506 0 00-11.74-8.21h-55a12.51 12.51 0 00-11.38 7.34 12.358 12.358 0 00-1.12 5.16 12.518 12.518 0 0012.5 12.5h55a12.499 12.499 0 0011.74-16.79z" fill="#fff"/><path d="M523.643 299.63l-48.54 22-11.49 5.21a5.016 5.016 0 01-4.12 0l-11.49-5.21h-4.85l15.51 7.03a7.02 7.02 0 005.78 0l15.51-7.03 48.54-22zm0 0l-48.54 22-11.49 5.21a5.016 5.016 0 01-4.12 0l-11.49-5.21h-4.85l15.51 7.03a7.02 7.02 0 005.78 0l15.51-7.03 48.54-22zm0 0l-48.54 22-11.49 5.21a5.016 5.016 0 01-4.12 0l-11.49-5.21h-4.85l15.51 7.03a7.02 7.02 0 005.78 0l15.51-7.03 48.54-22zm162.91-68.79a7.638 7.638 0 00-1.21-.98 6.96 6.96 0 00-6.68-.49l-106.43 48.24-48.59 22.02-48.54 22-11.49 5.21a5.016 5.016 0 01-4.12 0l-11.49-5.21-11.97-5.43-72.37-32.79-.02-.01-19.73-8.95-58.91-26.7-40.56-18.38a6.107 6.107 0 00-1.29-.43 6.709 6.709 0 00-2.99-.06 7.017 7.017 0 00-5.61 6.86v251.13a7.008 7.008 0 007 7h440a7.008 7.008 0 007-7V235.74a6.972 6.972 0 00-2-4.9zm0 256.03a5.002 5.002 0 01-5 5h-440a5.002 5.002 0 01-5-5V235.74a5 5 0 012.29-4.2 5.168 5.168 0 011.61-.68 4.51 4.51 0 01.51-.08 3.898 3.898 0 01.59-.04 4.97 4.97 0 012.06.45l42.34 19.19 58.56 26.54 16.46 7.46 2.67 1.21 69.69 31.59 9.82 4.45 15.51 7.03a7.02 7.02 0 005.78 0l15.51-7.03 48.54-22 45.24-20.51 105.76-47.93a5 5 0 014.77.35 1.861 1.861 0 01.23.16 1.247 1.247 0 01.22.18 4.96 4.96 0 011.84 3.86zm-162.91-187.24l-48.54 22-11.49 5.21a5.016 5.016 0 01-4.12 0l-11.49-5.21h-4.85l15.51 7.03a7.02 7.02 0 005.78 0l15.51-7.03 48.54-22zm0 0l-48.54 22-11.49 5.21a5.016 5.016 0 01-4.12 0l-11.49-5.21h-4.85l15.51 7.03a7.02 7.02 0 005.78 0l15.51-7.03 48.54-22zm-162.67-15.25l2.67 1.21v-2.18zm162.67 15.25l-48.54 22-11.49 5.21a5.016 5.016 0 01-4.12 0l-11.49-5.21h-4.85l15.51 7.03a7.02 7.02 0 005.78 0l15.51-7.03 48.54-22zM175.526 493.87h-113a1 1 0 010-2h113a1 1 0 110 2z" fill="#3f3d56"/><path d="M112.388 171.486a10.702 10.702 0 01.99-19.528c7.41-2.86 15.72 2.977 23.489 1.317 7.743-1.654 12.222-10.911 10.374-18.61s-8.575-13.499-15.993-16.268a34.48 34.48 0 00-29.741 2.726 31.751 31.751 0 00-14.945 25.634 29.437 29.437 0 0014.244 25.79c1.974 1.138 4.273 2.052 6.493 1.54a18.1 18.1 0 005.089-2.601z" fill="#2f2e41"/><path d="M104.428 120.524c-6.535-8.668-15.357-15.79-25.623-19.32s-21.997-3.247-31.639 1.742-16.832 14.899-17.582 25.729c-1.25 18.025 14.152 33.346 15.733 51.345A34.526 34.526 0 010 215.793a36.35 36.35 0 0028.017 7.952 33.786 33.786 0 0024.047-16.182c3.467-6.022 4.89-13.018 5.443-19.945a88.618 88.618 0 00-3.468-32.493c-1.727-5.741-4.07-11.65-2.975-17.544A15.966 15.966 0 0163.5 125.128c4.953-.929 10.017.583 14.747 2.323s9.498 3.753 14.536 3.868 10.526-2.19 12.473-6.839z" fill="#2f2e41"/></svg>