<svg xmlns="http://www.w3.org/2000/svg" viewBox="0 0 400 300"><g id="_348_radio_presenter_flatline" data-name="#348_radio_presenter_flatline"><path d="M257.47,137.39l21.84-7.94c-.79-1.18-14.05-25.72-24.39-30.82-9-6-25.81-4.88-44.77-3.55a58.44,58.44,0,0,0-17.79,3.71c-21.37,8.48-24.42,36.64-24.42,36.64l19.66,6.78s-3.19,38.25-6.2,58.25c0,0,24.63,14.52,78.34,5.62C259.74,206.08,257.57,143.05,257.47,137.39Z" fill="#2b2c28"/><path d="M213.28,111.1s1,19.1,7.79,23.25,16.15-30,16.15-30Z" fill="#231f20"/><path d="M222.26,135.2a2.79,2.79,0,0,1-1.45-.42c-7-4.25-8-22.87-8-23.66a.48.48,0,0,1,.36-.5l23.93-6.71a.5.5,0,0,1,.49.13.48.48,0,0,1,.13.48c-.31,1.14-7.68,27.82-14.31,30.45A2.89,2.89,0,0,1,222.26,135.2Zm-8.46-23.73c.19,2.74,1.55,18.81,7.53,22.46a1.8,1.8,0,0,0,1.69.12c5.55-2.2,12.15-24.3,13.48-28.94Z" fill="#231f20"/><path d="M210.08,79.19a11,11,0,0,0-3.28-8.13v-1.9h-4.62c-4.37,0-7.91,4.49-7.91,10s3.54,10,7.91,10h4.62v-1.9A11,11,0,0,0,210.08,79.19Z" fill="#231f20"/><path d="M206.8,89.71h-4.62c-4.64,0-8.41-4.72-8.41-10.52s3.77-10.52,8.41-10.52h4.62a.49.49,0,0,1,.49.5v1.68a12.22,12.22,0,0,1,0,16.68v1.68A.49.49,0,0,1,206.8,89.71Zm-4.62-20c-4.09,0-7.41,4.28-7.41,9.53s3.32,9.52,7.41,9.52h4.12v-1.4a.52.52,0,0,1,.16-.37,11.17,11.17,0,0,0,0-15.51.51.51,0,0,1-.16-.37v-1.4Z" fill="#231f20"/><path d="M236.81,44.5a6.36,6.36,0,0,0-.58-.3,26.33,26.33,0,0,0-4.68-1.59l-2.93-.8a8.39,8.39,0,0,0-3.42-.63c-.76.1-3.27,1.85-3.72,1.7a4.84,4.84,0,0,0-5.59,2.2A8.3,8.3,0,0,0,203.22,50a10.71,10.71,0,0,0-6.39.29c-4.22,1.73-5.53,7.92-4.07,11.9a8.33,8.33,0,0,0,5.55,5.17c-5.76,8.14,5.91,11.61,11.11,13.9,4.71,2.07,9.8,3.56,14.93,3.21a20,20,0,0,0,13.14-6.35c2.14-2.34,6.75-5.85,4.93-9.48a2.31,2.31,0,0,1-.45-1.49,2.07,2.07,0,0,1,.68-.93,7.44,7.44,0,0,0-1-10.95c1.67-.85,1.47-3.34.65-5A13.27,13.27,0,0,0,236.81,44.5Z" fill="#fff"/><path d="M222.85,85a34.15,34.15,0,0,1-13.63-3.3c-.57-.25-1.21-.52-1.9-.8-4.1-1.67-9.71-4-10.86-7.93a6.49,6.49,0,0,1,1.06-5.35,8.89,8.89,0,0,1-5.23-5.28c-1.59-4.32,0-10.74,4.36-12.53a10.85,10.85,0,0,1,6.21-.41,8.8,8.8,0,0,1,12.87-5,5.37,5.37,0,0,1,5.84-2,11.12,11.12,0,0,0,1.52-.76,7.59,7.59,0,0,1,2-.94,6.27,6.27,0,0,1,2.82.42c.25.07.51.16.79.23l2.93.79a27.14,27.14,0,0,1,4.77,1.63l.6.31a13.81,13.81,0,0,1,5.68,6c.87,1.78,1,4.07-.26,5.25a7.68,7.68,0,0,1,2.59,5.19,7.5,7.5,0,0,1-2.06,6.1l-.08.09a1.48,1.48,0,0,0-.47.61,1.57,1.57,0,0,0,.3.92l.11.23c1.7,3.36-1.49,6.52-3.81,8.82-.44.44-.85.84-1.19,1.22A20.67,20.67,0,0,1,224.39,85C223.88,85,223.37,85,222.85,85ZM200.3,50.16a8.86,8.86,0,0,0-3.28.59c-3.88,1.59-5.23,7.36-3.79,11.27a7.82,7.82,0,0,0,5.21,4.86.5.5,0,0,1,.34.31.53.53,0,0,1-.06.46c-1.32,1.87-1.75,3.52-1.3,5.06,1,3.5,6.37,5.69,10.27,7.29.7.28,1.36.55,1.93.8,5.52,2.43,10.32,3.47,14.7,3.17a19.64,19.64,0,0,0,12.8-6.19c.35-.38.77-.8,1.22-1.25,2.23-2.2,5-5,3.63-7.66l-.11-.21a2.38,2.38,0,0,1-.38-1.62,2.26,2.26,0,0,1,.74-1.1l.08-.08a6.94,6.94,0,0,0-1-10.18.48.48,0,0,1-.22-.44.52.52,0,0,1,.27-.42c1.41-.71,1.1-3,.43-4.36a12.76,12.76,0,0,0-5.27-5.52h0a5.77,5.77,0,0,0-.55-.29,25.6,25.6,0,0,0-4.59-1.56l-2.93-.79-.83-.25a5.38,5.38,0,0,0-2.39-.37,9.12,9.12,0,0,0-1.7.82c-1.34.74-1.84,1-2.25.85a4.37,4.37,0,0,0-5,2,.45.45,0,0,1-.32.25.49.49,0,0,1-.39-.07,7.8,7.8,0,0,0-11.9,4.62.51.51,0,0,1-.6.37A12.72,12.72,0,0,0,200.3,50.16Z" fill="#231f20"/><path d="M232.5,70.38s1.49-13.47-3.36-19.11-13.25-6.19-13.25-6.19,2.62-2.59,5.59-2.2c0,0,8.2,2.83,13,8.71s3.76,18,3.76,18Z" fill="#231f20"/><path d="M232.5,70.88a.46.46,0,0,1-.34-.15.47.47,0,0,1-.15-.41c0-.13,1.41-13.31-3.25-18.72s-12.83-6-12.91-6a.49.49,0,0,1-.31-.85c.11-.11,2.83-2.77,6-2.34l.1,0c.34.12,8.4,3,13.21,8.86s3.91,17.87,3.86,18.37a.49.49,0,0,1-.42.45l-5.72.78ZM217.11,44.72c2.54.38,8.52,1.72,12.4,6.23C233.9,56,233.29,67,233.06,69.8l4.69-.64c.13-2.11.51-12.12-3.67-17.26-4.45-5.46-12-8.29-12.71-8.53A6.45,6.45,0,0,0,217.11,44.72Z" fill="#231f20"/><path d="M213.88,96.71l-.6,14.39s5.8,8.13,14.67,4.36,9.27-11.07,9.27-11.09l-1.57-15.08-1-9.28a10,10,0,0,0-.28-2.86c-.46-.88-1.81-1.35-2.54-2.12a7.66,7.66,0,0,1-1.66-2.78,7.58,7.58,0,0,1,.72-6.28,5.25,5.25,0,0,1-3.8-2.21,5.49,5.49,0,0,1-.74-4.44,19.19,19.19,0,0,0-1.27,1.56,4,4,0,0,1-2.68,1.71,3.76,3.76,0,0,1-3.58-1.76,3.79,3.79,0,0,1-3.38,3.11,10.71,10.71,0,0,1-4.85-.79,10.43,10.43,0,0,1-7.39,7.9,36.4,36.4,0,0,0,.54,19.31C206.07,97.33,213.88,96.71,213.88,96.71Z" fill="#fff"/><path d="M223.33,117c-6.4,0-10.41-5.5-10.45-5.56a.52.52,0,0,1-.1-.31l.58-13.86c-1.9,0-8-.56-10.06-6.7a36.93,36.93,0,0,1-.55-19.6.48.48,0,0,1,.35-.35,9.89,9.89,0,0,0,7-7.51.48.48,0,0,1,.23-.34.5.5,0,0,1,.41,0,10.19,10.19,0,0,0,4.63.77,3.31,3.31,0,0,0,2.95-2.66.49.49,0,0,1,.38-.45.48.48,0,0,1,.54.23,3.27,3.27,0,0,0,3.1,1.52,3.57,3.57,0,0,0,2.35-1.53l.37-.48A10.93,10.93,0,0,1,226,59a.52.52,0,0,1,.59-.08.5.5,0,0,1,.24.55,5,5,0,0,0,.67,4,4.73,4.73,0,0,0,3.43,2,.51.51,0,0,1,.4.28.48.48,0,0,1,0,.48,7,7,0,0,0,.88,8.45,6,6,0,0,0,1,.79,4.26,4.26,0,0,1,1.58,1.45,5.53,5.53,0,0,1,.31,2.24c0,.3,0,.58,0,.8l2.53,24.36c0,.05-.4,7.72-9.56,11.6A12.14,12.14,0,0,1,223.33,117Zm-9.54-6c.8,1,6.09,7.4,14,4.06,8.53-3.61,9-10.57,9-10.64l-2.52-24.3c0-.24,0-.55,0-.89a5.45,5.45,0,0,0-.2-1.79,3.44,3.44,0,0,0-1.24-1.07,6.22,6.22,0,0,1-1.21-.94,8,8,0,0,1-1.36-9,5.64,5.64,0,0,1-4.43-5.43l-.21.28a4.55,4.55,0,0,1-3,1.88,4.21,4.21,0,0,1-3.41-1.16,4.64,4.64,0,0,1-3.54,2.52A10.16,10.16,0,0,1,211,63.8a10.92,10.92,0,0,1-7.35,7.66,36,36,0,0,0,.62,18.74c2.14,6.51,9.29,6,9.59,6a.55.55,0,0,1,.39.14.5.5,0,0,1,.15.38Z" fill="#231f20"/><path d="M213.57,104.27a10.1,10.1,0,0,0,8.46-4.15c3.42-4.59,2.56-7.84,2.56-7.84s-4.45,4.65-10.71,4.43Z" fill="#231f20"/><path d="M214,104.79c-.25,0-.41,0-.45,0a.5.5,0,0,1-.45-.52l.31-7.56a.52.52,0,0,1,.52-.48c6,.17,10.29-4.23,10.33-4.27a.52.52,0,0,1,.49-.14.49.49,0,0,1,.35.36c0,.14.89,3.52-2.64,8.26A10.6,10.6,0,0,1,214,104.79Zm.39-7.57-.28,6.57a9.63,9.63,0,0,0,7.55-4,11.24,11.24,0,0,0,2.56-6.49A15.83,15.83,0,0,1,214.36,97.22Z" fill="#231f20"/><path d="M215,73.88s-3.93,7.9-2.61,9,4.45-.14,4.45-.14" fill="#fff"/><path d="M214,83.85a2.93,2.93,0,0,1-1.93-.58c-1.46-1.23,1.26-7.13,2.49-9.61a.5.5,0,0,1,.67-.23.49.49,0,0,1,.22.67c-2,4-3.27,8-2.73,8.41.88.75,3.2.07,3.94-.22a.5.5,0,1,1,.37.93A9.26,9.26,0,0,1,214,83.85Z" fill="#231f20"/><ellipse cx="220.83" cy="72.61" rx="1.21" ry="1.71" transform="translate(-10.37 48.41) rotate(-12.23)" fill="#231f20"/><ellipse cx="209.46" cy="74.14" rx="1.71" ry="1.21" transform="translate(117.67 276.49) rotate(-85.09)" fill="#231f20"/><path d="M214.58,93.8a4.12,4.12,0,0,1-2.74-.92c-2.45-2.19-2.22-6.47-2.21-6.65a.49.49,0,0,1,.44-.47c11-1.29,11.11-1.2,11.33-1a.52.52,0,0,1,.17.38h0A10.77,10.77,0,0,1,220.4,90a6.93,6.93,0,0,1-4.82,3.67A5.72,5.72,0,0,1,214.58,93.8Zm-4-7.1c0,1.07.2,3.92,1.87,5.41a3.47,3.47,0,0,0,2.92.62,6,6,0,0,0,4.11-3.16,9.53,9.53,0,0,0,1-3.93C219,85.75,214,86.3,210.62,86.7Zm10.45-1.57h0Zm0,0h0Z" fill="#231f20"/><path d="M220,89.81c-2,3.69-6.06,4.22-7.79,2.69.57-1.43,1.49-2.88,3-3.29A7,7,0,0,1,220,89.81Z" fill="#231f20"/><path d="M214.58,93.8a4.12,4.12,0,0,1-2.74-.92.51.51,0,0,1-.13-.56c.79-2,1.9-3.2,3.31-3.59a7.55,7.55,0,0,1,5.15.63.5.5,0,0,1,.26.29.53.53,0,0,1,0,.39,6.93,6.93,0,0,1-4.82,3.67A5.72,5.72,0,0,1,214.58,93.8Zm-1.8-1.46a3.77,3.77,0,0,0,2.63.39A5.88,5.88,0,0,0,219.25,90a6.45,6.45,0,0,0-4-.35A4.21,4.21,0,0,0,212.78,92.34Z" fill="#231f20"/><path d="M243.7,76.8a11,11,0,0,0-3.29-8.12v-1.9h-4.62c-4.37,0-7.91,4.48-7.91,10s3.54,10,7.91,10h4.62v-1.9A11,11,0,0,0,243.7,76.8Z" fill="#231f20"/><path d="M240.41,87.32h-4.62c-4.63,0-8.4-4.72-8.4-10.52s3.77-10.52,8.4-10.52h4.62a.5.5,0,0,1,.5.5v1.68a12.22,12.22,0,0,1,0,16.68v1.68A.5.5,0,0,1,240.41,87.32Zm-4.62-20c-4.08,0-7.41,4.28-7.41,9.53s3.33,9.52,7.41,9.52h4.12v-1.4a.5.5,0,0,1,.17-.37,11.2,11.2,0,0,0,0-15.51.46.46,0,0,1-.17-.36V67.27Z" fill="#231f20"/><ellipse cx="240.41" cy="76.8" rx="7.91" ry="10.02" fill="#fff"/><path d="M240.41,87.32c-4.63,0-8.41-4.72-8.41-10.52s3.78-10.52,8.41-10.52,8.41,4.72,8.41,10.52S245.05,87.32,240.41,87.32Zm0-20c-4.08,0-7.41,4.27-7.41,9.52s3.33,9.52,7.41,9.52,7.41-4.27,7.41-9.52S244.5,67.28,240.41,67.28Z" fill="#231f20"/><path d="M240.41,83.72c-2.58,0-4.68-3.1-4.68-6.92s2.1-6.92,4.68-6.92,4.68,3.1,4.68,6.92S243,83.72,240.41,83.72Zm0-12.84c-2,0-3.68,2.65-3.68,5.92s1.65,5.92,3.68,5.92,3.68-2.66,3.68-5.92S242.44,70.88,240.41,70.88Z" fill="#d1d3d4"/><path d="M193.78,110c.09.88-6.18,32.17-6.18,32.17" fill="#231f20"/><path d="M187.6,142.71h-.1a.51.51,0,0,1-.39-.59c2.48-12.34,6.16-31.06,6.17-32a.49.49,0,0,1,.44-.54.51.51,0,0,1,.55.46c.1.89-4.71,25-6.18,32.32A.51.51,0,0,1,187.6,142.71Z" fill="#231f20"/><path d="M167.94,135.43l-4.08,20.25L149.8,139.15s-2.41-4-4-4.6c-1.84-.69-9.42-1.15-11.95-3.22s-3.9-2.52-4.13-.92,6.66,5.75,6.66,5.75-5.53,1.61-6.67,1.15-4-6.41-5.12-6.41c-.59,0-1.83,1.25-.68,3.88-1-2.53-2.4-5.33-3.61-5.33s-1.15,2.11-.39,4.92c0,0-3-4.93-4.21-1.89-1.08,2.79,6.9,12.64,8.73,13.1s14-3.22,14-3.22,14.78,42.18,36.24,47.69c5.34,1.37,12.86-47.84,12.86-47.84Z" fill="#fff"/><path d="M175,190.58a1.45,1.45,0,0,1-.35,0c-9-2.32-17.94-11.12-26.48-26.15A154.17,154.17,0,0,1,138.19,143c-2.46.74-12.06,3.54-13.83,3.09-1.58-.39-6.14-5.81-8.13-9.65-1-1.88-1.28-3.23-.94-4.11s1-1.26,1.41-1.3a3.24,3.24,0,0,1,2.3,1.28,3.92,3.92,0,0,1,.32-2.84,1.25,1.25,0,0,1,1-.49h0c.87,0,1.81.94,2.8,2.81a2.54,2.54,0,0,1,.27-.57,1.57,1.57,0,0,1,1.22-.79c.85,0,1.73,1.3,3.21,3.61a13,13,0,0,0,2.1,2.83c.52.21,2.93-.25,5.24-.86-2.4-1.51-6.13-4.12-5.92-5.64a1.51,1.51,0,0,1,.86-1.31c.83-.32,2.06.25,4.09,1.92,1.6,1.31,5.56,2,8.46,2.44a22.54,22.54,0,0,1,3.34.69c1.66.62,3.95,4.39,4.21,4.81l13.34,15.68,3.88-19.24a.5.5,0,0,1,.65-.37l19.66,6.78a.5.5,0,0,1,.33.55c-.27,1.81-6.84,44.44-12.22,48A1.64,1.64,0,0,1,175,190.58ZM138.5,141.86a.51.51,0,0,1,.47.33c.14.42,14.94,42,35.89,47.38a.57.57,0,0,0,.46-.12c4.11-2.72,9.79-34.38,11.72-46.9l-18.73-6.46-4,19.69a.48.48,0,0,1-.37.38.47.47,0,0,1-.5-.16l-14.06-16.52c-.95-1.57-2.75-4.09-3.75-4.46a22.39,22.39,0,0,0-3.16-.64c-3.17-.53-7.12-1.18-8.93-2.66-2.2-1.81-2.89-1.83-3.08-1.75s-.21.35-.24.52c-.1.68,2.91,3.13,6.43,5.24a.48.48,0,0,1,.23.49.49.49,0,0,1-.35.42c-.95.27-5.75,1.63-7,1.13-.64-.26-1.39-1.39-2.56-3.22-.73-1.14-2-3-2.4-3.16a1,1,0,0,0-.39.41,2.77,2.77,0,0,0,0,2.34l.19.45a.51.51,0,0,1-.28.65.5.5,0,0,1-.65-.26l-.19-.48c-1.28-3.14-2.4-4.55-3-4.55a.35.35,0,0,0-.24.1c-.28.37-.35,1.67.33,4.19a.51.51,0,0,1-.29.59.49.49,0,0,1-.62-.2c-.68-1.1-2-2.69-2.74-2.64-.27,0-.46.38-.57.67s-.22,1.13.89,3.29c2.16,4.16,6.5,8.89,7.49,9.14,1.24.32,9.1-1.8,13.75-3.21Z" fill="#231f20"/><line x1="123.96" y1="134.78" x2="126.61" y2="138.53" fill="#fff"/><path d="M126.61,139a.51.51,0,0,1-.41-.21l-2.65-3.76a.5.5,0,0,1,.82-.57l2.64,3.75a.5.5,0,0,1-.12.7A.47.47,0,0,1,126.61,139Z" fill="#231f20"/><path d="M120,134.37a44.5,44.5,0,0,0,3,4.16" fill="#fff"/><path d="M123,139a.54.54,0,0,1-.37-.16,43.26,43.26,0,0,1-3.07-4.23.5.5,0,0,1,.14-.69.51.51,0,0,1,.7.15,45,45,0,0,0,3,4.09.49.49,0,0,1,0,.7A.51.51,0,0,1,123,139Z" fill="#231f20"/><polygon points="105.88 185.81 294.12 185.81 324.33 238.43 75.67 238.43 105.88 185.81" fill="#fff"/><path d="M324.33,238.93H75.67a.5.5,0,0,1-.43-.75l30.21-52.62a.5.5,0,0,1,.43-.25H294.12a.5.5,0,0,1,.43.25l30.21,52.62a.5.5,0,0,1-.43.75Zm-247.79-1H323.46l-29.63-51.62H106.17Z" fill="#231f20"/><ellipse cx="216.3" cy="195.05" rx="19.7" ry="5.93" fill="#fff"/><path d="M216.3,201.48c-9.93,0-20.2-2.4-20.2-6.43s10.27-6.43,20.2-6.43,20.2,2.41,20.2,6.43S226.23,201.48,216.3,201.48Zm0-11.86c-11.31,0-19.2,2.86-19.2,5.43s7.89,5.43,19.2,5.43,19.2-2.86,19.2-5.43S227.61,189.62,216.3,189.62Z" fill="#d1d3d4"/><ellipse cx="216.3" cy="195.05" rx="10.74" ry="3.23" fill="#fff"/><path d="M216.3,198.78c-5.45,0-11.24-1.31-11.24-3.73s5.79-3.73,11.24-3.73,11.24,1.3,11.24,3.73S221.75,198.78,216.3,198.78Zm0-6.46c-6.34,0-10.24,1.59-10.24,2.73s3.9,2.73,10.24,2.73,10.24-1.59,10.24-2.73S222.64,192.32,216.3,192.32Z" fill="#d1d3d4"/><polygon points="135.97 210.15 136.2 212.71 193.83 221.13 193.25 218.44 135.97 210.15" fill="#fff"/><path d="M193.83,221.63h-.07l-57.63-8.43a.5.5,0,0,1-.43-.45l-.23-2.55a.49.49,0,0,1,.57-.54L193.32,218a.5.5,0,0,1,.42.39l.58,2.69a.5.5,0,0,1-.12.44A.49.49,0,0,1,193.83,221.63Zm-57.17-9.36,56.53,8.26-.36-1.64-56.31-8.15Z" fill="#231f20"/><path d="M136,210.15S149.08,198.9,149.52,199s59.38,7.16,59.38,7.16l-15.65,12.27Z" fill="#fff"/><path d="M193.25,218.94h-.07l-57.28-8.29a.49.49,0,0,1-.41-.36.49.49,0,0,1,.15-.52c13.32-11.42,13.7-11.32,14-11.25.74.12,39.13,4.73,59.32,7.15a.49.49,0,0,1,.42.36.49.49,0,0,1-.17.53l-15.65,12.28A.5.5,0,0,1,193.25,218.94Zm-56.12-9.13,56,8.11,14.53-11.4c-11.7-1.4-54.88-6.58-58-7C148.56,200.14,141.79,205.83,137.13,209.81Z" fill="#231f20"/><polygon points="193.83 221.13 209.13 208.72 208.9 206.17 193.25 218.44 193.83 221.13" fill="#fff"/><path d="M193.83,221.63a.51.51,0,0,1-.17,0,.49.49,0,0,1-.32-.36l-.58-2.69a.5.5,0,0,1,.18-.5l15.65-12.28a.52.52,0,0,1,.51-.06.5.5,0,0,1,.3.41l.23,2.56a.47.47,0,0,1-.18.43l-15.3,12.41A.56.56,0,0,1,193.83,221.63Zm0-3,.35,1.59,14.46-11.73-.12-1.37Z" fill="#231f20"/><polygon points="135.97 210.15 124.89 173.04 185.64 183.4 193.25 218.44 135.97 210.15" fill="#fff"/><path d="M193.25,218.94h-.07l-57.28-8.29a.49.49,0,0,1-.41-.36l-11.08-37.11a.48.48,0,0,1,.11-.47.49.49,0,0,1,.46-.16l60.75,10.35a.5.5,0,0,1,.4.39l7.61,35.05a.5.5,0,0,1-.13.45A.48.48,0,0,1,193.25,218.94Zm-56.9-9.24,56.26,8.15-7.38-34L125.6,173.67Z" fill="#231f20"/><path d="M228,154.4l.54.09a6.7,6.7,0,0,1,4.15,2.34,5.75,5.75,0,0,1,.14,6.06c-2.38,4.3-8.2,5.48-12.66,5.9a4.11,4.11,0,0,1-1.88-.14,1.4,1.4,0,0,1-.18-2.65,4.65,4.65,0,0,1,1.48-.41c2.78-.46,5.71-.8,8.26-2.08,1.48-.75,3.55-2.47,2.47-4.32a3.52,3.52,0,0,0-1.57-1.33c-2.55-1.22-5-.3-7.5.45a1.39,1.39,0,0,1-.57.08,1,1,0,0,1-.73-1.13c.08-1.1,1.18-1.83,2.21-2.22A11.64,11.64,0,0,1,228,154.4Z" fill="#fff"/><path d="M219.41,169.34a3.57,3.57,0,0,1-1.32-.23,2,2,0,0,1-1.36-1.94,2.07,2.07,0,0,1,1.13-1.61,5.42,5.42,0,0,1,1.64-.47l1-.16a23.88,23.88,0,0,0,7.08-1.87,4.8,4.8,0,0,0,2.43-2.37,1.53,1.53,0,0,0-.16-1.25,3,3,0,0,0-1.36-1.13c-2.15-1-4.26-.39-6.49.28l-.65.2a1.87,1.87,0,0,1-.78.1,1.51,1.51,0,0,1-1.16-1.67c.08-1.12,1-2.06,2.53-2.65a12,12,0,0,1,6.1-.66h0c.19,0,.37.06.56.09a7.23,7.23,0,0,1,4.45,2.53,6.23,6.23,0,0,1,.17,6.61c-1.94,3.5-6.21,5.51-13,6.15C220,169.31,219.68,169.34,219.41,169.34Zm6.68-12.57a6.41,6.41,0,0,1,2.86.64,4,4,0,0,1,1.79,1.53,2.47,2.47,0,0,1,.26,2c-.48,1.64-2.37,2.7-2.94,3a24.61,24.61,0,0,1-7.37,2l-1,.16a4.27,4.27,0,0,0-1.33.36.9.9,0,0,0,.12,1.74,3.54,3.54,0,0,0,1.65.11c6.49-.6,10.5-2.45,12.27-5.64a5.23,5.23,0,0,0-.1-5.53,6.29,6.29,0,0,0-3.84-2.14l-.52-.09a11.09,11.09,0,0,0-5.59.61c-.54.21-1.82.8-1.89,1.8,0,.28.12.58.29.6a1.18,1.18,0,0,0,.37-.07l.64-.19A15.22,15.22,0,0,1,226.09,156.77Z" fill="#231f20"/><path d="M225.9,149.8s-4.2,21-4.54,22.22-10.28,6.45-18.18,1.36L196.27,152Z" fill="#fff"/><path d="M210.92,176.08a14.61,14.61,0,0,1-8-2.28.48.48,0,0,1-.2-.27l-6.92-21.42a.49.49,0,0,1,.44-.65l29.64-2.16a.51.51,0,0,1,.41.17.52.52,0,0,1,.11.43c-.17.86-4.21,21-4.55,22.25-.22.83-2.15,1.91-4,2.6A19.66,19.66,0,0,1,210.92,176.08Zm-7.32-3c4.62,2.89,9.72,2,12.36,1.29,3-.87,4.77-2.14,4.92-2.47.29-1.09,3.69-18,4.4-21.52l-28.34,2.06Z" fill="#231f20"/><path d="M225.9,149.8a4,4,0,0,1-1.62,3.09c-2.42,2.13-7.29,3.71-13,4-5.87.24-11-1-13.5-3.06A3.85,3.85,0,0,1,196.2,151c-.15-3.55,6.38-6.7,14.58-7S225.76,146.25,225.9,149.8Z" fill="#231f20"/><path d="M209.87,157.36c-5.25,0-9.9-1.19-12.36-3.2A4.28,4.28,0,0,1,195.7,151a4.13,4.13,0,0,1,1.24-3c2.35-2.54,7.77-4.35,13.82-4.59s11.62,1.1,14.16,3.45a4.07,4.07,0,0,1,1.48,2.84,4.41,4.41,0,0,1-1.8,3.48c-2.57,2.28-7.65,3.84-13.26,4.07Zm2.35-12.91-1.42,0c-5.8.24-11,1.91-13.12,4.28a3.11,3.11,0,0,0-1,2.24,3.33,3.33,0,0,0,1.43,2.39c2.47,2,7.64,3.18,13.16,3s10.24-1.69,12.66-3.83a3.47,3.47,0,0,0,1.45-2.69h0a3.15,3.15,0,0,0-1.15-2.15C222.08,145.67,217.46,144.45,212.22,144.45Z" fill="#231f20"/><path d="M224.28,152.89c-2.42,2.13-7.29,3.71-13,4-5.87.24-11-1-13.5-3.06,2.42-2.14,7.29-3.72,13-3.95C216.65,149.59,221.78,150.86,224.28,152.89Z" fill="#2b2c28"/><path d="M209.87,157.36c-5.25,0-9.9-1.19-12.36-3.2a.5.5,0,0,1-.19-.37.52.52,0,0,1,.17-.39c2.58-2.28,7.66-3.84,13.27-4.07,5.83-.24,11.13,1,13.83,3.17a.5.5,0,0,1,.19.38.52.52,0,0,1-.17.38c-2.58,2.28-7.66,3.84-13.27,4.07Zm-11.24-3.6c2.62,1.79,7.48,2.8,12.66,2.58s9.64-1.51,12.18-3.43c-2.63-1.79-7.5-2.79-12.67-2.59S201.17,151.83,198.63,153.76Z" fill="#231f20"/><path d="M279.31,129.45s21.17,33.72,18.82,43.59S243,168.83,243,168.83q-2.56.73-5.17,1.32c-1.64.37-6.72,2.14-8.08.76a7.27,7.27,0,0,1-.85-8.82,7.62,7.62,0,0,1-2.09-1.69,2.62,2.62,0,0,1-.49-2.52,3.42,3.42,0,0,1,2-1.65c4.68-1.91,10.47-1.8,15.48-1.87l27.65,6.13-14-23.1" fill="#fff"/><path d="M287.85,177c-15.43,0-42.33-7-44.86-7.69-1.64.47-3.34.9-5.06,1.28l-1.12.3c-3.09.85-6.2,1.57-7.43.33a7.8,7.8,0,0,1-1.17-9,7.09,7.09,0,0,1-1.8-1.54,3.09,3.09,0,0,1-.57-3,3.91,3.91,0,0,1,2.3-1.92c4.36-1.78,9.66-1.84,14.33-1.89l1.33,0h.12l26.51,5.88-13.38-22.1a.48.48,0,0,1,.17-.68.49.49,0,0,1,.68.16l14,23.1a.5.5,0,0,1-.54.75l-27.6-6.12-1.27,0c-4.58.05-9.78.1-14,1.81a2.91,2.91,0,0,0-1.75,1.38,2.14,2.14,0,0,0,.43,2,7.41,7.41,0,0,0,2,1.57.5.5,0,0,1,.22.32.52.52,0,0,1-.08.38,6.74,6.74,0,0,0,.79,8.18c.92.94,4.66-.09,6.45-.58l1.17-.31c1.75-.39,3.48-.83,5.14-1.31a.62.62,0,0,1,.27,0c.44.12,44.1,11.66,53.13,6.28a2.74,2.74,0,0,0,1.4-1.71c2.27-9.55-18.55-42.87-18.76-43.21a.49.49,0,0,1,.16-.69.51.51,0,0,1,.69.16c.87,1.39,21.25,34,18.88,44a3.75,3.75,0,0,1-1.86,2.33C294.9,176.6,291.74,177,287.85,177Z" fill="#231f20"/><polygon points="86.43 230.89 86.43 233.97 116.08 233.97 123.48 216.23 121.91 212.96 86.43 230.89" fill="#231f20"/><path d="M116.08,234.46H86.43a.5.5,0,0,1-.5-.5v-3.07a.5.5,0,0,1,.28-.44l35.48-17.94a.53.53,0,0,1,.39,0,.57.57,0,0,1,.29.26l1.56,3.28a.5.5,0,0,1,0,.4l-7.4,17.74A.51.51,0,0,1,116.08,234.46Zm-29.15-1h28.81l7.19-17.22-1.25-2.61L86.93,231.2Z" fill="#231f20"/><path d="M97,212.35c-.39.86-10.58,18.54-10.58,18.54h28.42L121.91,213Z" fill="#fff"/><path d="M114.85,231.39H86.43a.48.48,0,0,1-.43-.25.5.5,0,0,1,0-.5c2.83-4.91,10.24-17.81,10.56-18.5a.59.59,0,0,1,.46-.29l24.91.61a.47.47,0,0,1,.4.22.5.5,0,0,1,0,.46l-7.06,17.94A.5.5,0,0,1,114.85,231.39Zm-27.55-1h27.21l6.68-16.95-23.88-.58C96.14,215,89.14,227.19,87.3,230.39Z" fill="#231f20"/><path d="M102.67,224a2,2,0,0,1-2-1.63L81.45,118.54a2,2,0,0,1,1.07-2.16l58.27-28.94A2,2,0,1,1,142.57,91L85.66,119.29l19,102.3a2,2,0,0,1-1.6,2.34A2.31,2.31,0,0,1,102.67,224Z" fill="#231f20"/><path d="M106.91,222.62a1,1,0,0,1-1-.82L87.37,121.1a1,1,0,0,1,.56-1.08l57.32-26.9a1,1,0,0,1,.85,1.81L89.48,121.5l18.41,99.94a1,1,0,0,1-.8,1.17Z" fill="#231f20"/><circle cx="87.65" cy="119.57" r="6.33" fill="#231f20"/><path d="M87.65,126.4a6.83,6.83,0,1,1,6.83-6.83A6.85,6.85,0,0,1,87.65,126.4Zm0-12.67a5.84,5.84,0,1,0,5.84,5.84A5.84,5.84,0,0,0,87.65,113.73Z" fill="#231f20"/><circle cx="144.73" cy="91.14" r="6.33" fill="#231f20"/><path d="M144.73,98a6.84,6.84,0,1,1,6.83-6.84A6.85,6.85,0,0,1,144.73,98Zm0-12.67a5.84,5.84,0,1,0,5.84,5.83A5.84,5.84,0,0,0,144.73,85.31Z" fill="#231f20"/><polygon points="250.2 192.39 258.19 231.38 308.54 231.38 291.9 192.39 250.2 192.39" fill="#231f20"/><path d="M308.54,231.88H258.19a.5.5,0,0,1-.49-.4l-8-39a.51.51,0,0,1,.49-.6h41.7a.51.51,0,0,1,.46.3l16.64,39a.54.54,0,0,1,0,.48A.51.51,0,0,1,308.54,231.88Zm-49.94-1h49.18l-16.21-38H250.82Z" fill="#231f20"/><polygon points="258.19 231.38 259.48 216.35 307.75 216.35 309.37 231.38 258.19 231.38" fill="#fff"/><path d="M309.37,231.88H258.19a.5.5,0,0,1-.5-.54l1.29-15a.51.51,0,0,1,.5-.45h48.27a.5.5,0,0,1,.5.44l1.62,15a.47.47,0,0,1-.12.38A.52.52,0,0,1,309.37,231.88Zm-50.64-1h50.09l-1.52-14H259.94Z" fill="#231f20"/><polygon points="259.48 216.35 250.2 192.39 291.9 192.39 307.75 216.35 259.48 216.35" fill="#fff"/><path d="M307.75,216.85H259.48a.5.5,0,0,1-.46-.32l-9.28-24a.5.5,0,0,1,0-.46.49.49,0,0,1,.41-.22h41.7a.48.48,0,0,1,.41.22l15.86,24a.49.49,0,0,1,0,.51A.48.48,0,0,1,307.75,216.85Zm-47.93-1h47l-15.19-23h-40.7Z" fill="#231f20"/><line x1="286.93" y1="195.05" x2="296.32" y2="211.88" fill="#fff"/><path d="M296.32,212.38a.52.52,0,0,1-.44-.25l-9.39-16.84a.5.5,0,0,1,.19-.68.51.51,0,0,1,.68.2l9.4,16.83a.5.5,0,0,1-.19.68A.57.57,0,0,1,296.32,212.38Z" fill="#d1d3d4"/><line x1="278.18" y1="195.05" x2="287.58" y2="211.88" fill="#fff"/><path d="M287.58,212.38a.52.52,0,0,1-.44-.25l-9.39-16.84a.5.5,0,0,1,.19-.68.51.51,0,0,1,.68.2l9.4,16.83a.5.5,0,0,1-.44.74Z" fill="#d1d3d4"/><line x1="269.44" y1="195.05" x2="278.84" y2="211.88" fill="#fff"/><path d="M278.84,212.38a.5.5,0,0,1-.44-.25L269,195.29a.5.5,0,0,1,.19-.68.51.51,0,0,1,.68.2l9.4,16.83a.5.5,0,0,1-.44.74Z" fill="#d1d3d4"/><line x1="260.7" y1="195.05" x2="268.76" y2="212.12" fill="#fff"/><path d="M268.76,212.62a.49.49,0,0,1-.45-.29l-8.06-17.07a.5.5,0,1,1,.9-.42l8.06,17.07a.49.49,0,0,1-.24.66A.54.54,0,0,1,268.76,212.62Z" fill="#d1d3d4"/><ellipse cx="293.42" cy="206.17" rx="2.9" ry="1.58" fill="#fff"/><path d="M293.42,208.25c-1.9,0-3.39-.92-3.39-2.08s1.46-2.08,3.39-2.08,3.4.9,3.4,2.08S295.33,208.25,293.42,208.25Zm0-3.16c-1.37,0-2.39.57-2.39,1.08s.91,1.08,2.39,1.08,2.4-.63,2.4-1.08S294.8,205.09,293.42,205.09Z" fill="#d1d3d4"/><ellipse cx="275.94" cy="207.39" rx="2.9" ry="1.58" fill="#fff"/><path d="M275.94,209.46c-1.94,0-3.4-.89-3.4-2.07s1.5-2.08,3.4-2.08,3.4.91,3.4,2.08S277.88,209.46,275.94,209.46Zm0-3.15c-1.48,0-2.4.63-2.4,1.08s1,1.07,2.4,1.07,2.4-.56,2.4-1.07S277.43,206.31,275.94,206.31Z" fill="#d1d3d4"/><ellipse cx="264.07" cy="201.44" rx="2.9" ry="1.58" fill="#fff"/><path d="M264.07,203.52c-1.9,0-3.39-.92-3.39-2.08s1.46-2.08,3.39-2.08,3.4.9,3.4,2.08S266,203.52,264.07,203.52Zm0-3.16c-1.37,0-2.39.57-2.39,1.08s.91,1.08,2.39,1.08,2.4-.63,2.4-1.08S265.45,200.36,264.07,200.36Z" fill="#d1d3d4"/><ellipse cx="281.08" cy="201.44" rx="2.9" ry="1.58" fill="#fff"/><path d="M281.08,203.52c-1.9,0-3.4-.92-3.4-2.08s1.46-2.08,3.4-2.08,3.4.9,3.4,2.08S283,203.52,281.08,203.52Zm0-3.16c-1.37,0-2.4.57-2.4,1.08s.92,1.08,2.4,1.08,2.4-.63,2.4-1.08S282.45,200.36,281.08,200.36Z" fill="#d1d3d4"/><rect x="75.96" y="238.43" width="248.37" height="10.21" fill="#fff"/><path d="M324.33,249.14H76a.5.5,0,0,1-.5-.5V238.43a.5.5,0,0,1,.5-.5H324.33a.5.5,0,0,1,.5.5v10.21A.5.5,0,0,1,324.33,249.14Zm-247.87-1H323.83v-9.21H76.46Z" fill="#231f20"/><rect x="81.3" y="248.64" width="237.68" height="10.21" fill="#231f20"/><path d="M319,259.35H81.3a.5.5,0,0,1-.5-.5V248.64a.5.5,0,0,1,.5-.5H319a.5.5,0,0,1,.5.5v10.21A.5.5,0,0,1,319,259.35Zm-237.18-1H318.48v-9.21H81.8Z" fill="#231f20"/><path d="M154.47,111.29a1,1,0,0,1-.94-.65l-6.8-18a1,1,0,0,1,.59-1.28,1,1,0,0,1,1.28.58l6.8,18a1,1,0,0,1-.58,1.29A1.12,1.12,0,0,1,154.47,111.29Z" fill="#231f20"/><path d="M175.81,88.81h4.13a5,5,0,0,1,5,5v18.68a0,0,0,0,1,0,0H170.77a0,0,0,0,1,0,0V93.85A5,5,0,0,1,175.81,88.81Z" transform="translate(225.2 -98.16) rotate(73.88)" fill="#231f20"/><path d="M168.45,111.29a.49.49,0,0,1-.47-.36L164,97.28a.51.51,0,0,1,0-.38.47.47,0,0,1,.3-.23l17.95-5.19a5.54,5.54,0,0,1,6.86,3.78l1.14,4a5.55,5.55,0,0,1-3.78,6.86l-17.95,5.18A.32.32,0,0,1,168.45,111.29Zm-3.33-13.81,3.67,12.7,17.47-5.05a4.56,4.56,0,0,0,3.11-5.63l-1.15-4a4.55,4.55,0,0,0-5.63-3.11Z" fill="#231f20"/><path d="M151.64,97.88h18.51a0,0,0,0,1,0,0V104a9.26,9.26,0,0,1-9.26,9.26h0a9.26,9.26,0,0,1-9.26-9.26V97.88A0,0,0,0,1,151.64,97.88Z" transform="translate(217.62 -78.33) rotate(73.88)" fill="#fff"/><path d="M162.43,114.86a9.76,9.76,0,0,1-2.72-19.13l5.84-1.68a.49.49,0,0,1,.62.34l5.14,17.78a.51.51,0,0,1-.34.62l-5.84,1.69A9.72,9.72,0,0,1,162.43,114.86Zm2.92-19.71L160,96.69a8.77,8.77,0,0,0-6,10.85h0a8.77,8.77,0,0,0,10.84,6l5.36-1.55Z" fill="#231f20"/><rect x="162.27" y="101.09" width="18.51" height="2.77" rx="0.86" transform="translate(222.34 -90.76) rotate(73.88)" fill="#fff"/><path d="M173.35,112.05a1.37,1.37,0,0,1-1.31-1l-4.66-16.13a1.37,1.37,0,0,1,.93-1.68l1-.29a1.35,1.35,0,0,1,1.69.93L175.67,110a1.37,1.37,0,0,1-.93,1.69l-1,.29A1.26,1.26,0,0,1,173.35,112.05ZM169.7,93.9l-.1,0-1,.29a.41.41,0,0,0-.22.17.45.45,0,0,0,0,.28L173,110.78h0a.36.36,0,0,0,.45.25l1-.29a.37.37,0,0,0,.25-.45l-4.66-16.13a.37.37,0,0,0-.18-.21A.34.34,0,0,0,169.7,93.9Z" fill="#231f20"/><path d="M98,215.29a13.88,13.88,0,0,0,5.11,1.17,10.78,10.78,0,0,0,5.17-1.4l1.11,7.45s-1.78,3.47-5.46,3.5c-4.55,0-5.93-2.59-5.93-2.59Z" fill="#fff"/><path d="M103.84,226.51c-4.73,0-6.23-2.74-6.29-2.85a.53.53,0,0,1-.06-.24v-8.13a.5.5,0,0,1,.23-.42.49.49,0,0,1,.48,0,13.71,13.71,0,0,0,4.91,1.12,10.47,10.47,0,0,0,4.9-1.33.49.49,0,0,1,.47,0,.5.5,0,0,1,.28.38l1.12,7.46a.61.61,0,0,1,0,.3c-.08.15-2,3.74-5.91,3.77Zm-5.35-3.22c.29.44,1.69,2.22,5.35,2.22h.08a6.14,6.14,0,0,0,4.94-3.09l-1-6.59a11.16,11.16,0,0,1-4.79,1.13,14.39,14.39,0,0,1-4.6-.92Z" fill="#231f20"/><ellipse cx="103.13" cy="215.29" rx="5.14" ry="1.64" fill="#231f20"/><path d="M103.13,217.43c-2.72,0-5.64-.67-5.64-2.14s2.92-2.14,5.64-2.14,5.64.67,5.64,2.14S105.84,217.43,103.13,217.43Zm0-3.28c-3,0-4.64.81-4.64,1.14s1.62,1.14,4.64,1.14,4.64-.81,4.64-1.14S106.14,214.15,103.13,214.15Z" fill="#231f20"/><circle cx="301.82" cy="224.39" r="1.82" fill="#fff"/><path d="M301.82,226.71a2.32,2.32,0,1,1,2.32-2.32A2.32,2.32,0,0,1,301.82,226.71Zm0-3.64a1.32,1.32,0,1,0,1.32,1.32A1.33,1.33,0,0,0,301.82,223.07Z" fill="#d1d3d4"/><path d="M296.32,224.36h-5.79a.5.5,0,0,1-.5-.5.5.5,0,0,1,.5-.5h5.79a.5.5,0,0,1,.5.5A.5.5,0,0,1,296.32,224.36Z" fill="#d1d3d4"/><rect x="91.03" y="49.4" width="71.15" height="24.35" rx="3.72" fill="#fff"/><path d="M158.47,74.25H94.75A4.22,4.22,0,0,1,90.53,70V53.12a4.22,4.22,0,0,1,4.22-4.22h63.72a4.22,4.22,0,0,1,4.21,4.22V70A4.22,4.22,0,0,1,158.47,74.25ZM94.75,49.9a3.22,3.22,0,0,0-3.22,3.22V70a3.22,3.22,0,0,0,3.22,3.21h63.72A3.21,3.21,0,0,0,161.68,70V53.12a3.22,3.22,0,0,0-3.21-3.22Z" fill="#d1d3d4"/><path d="M112,61.53a6.51,6.51,0,0,1-.43,2.42,5.52,5.52,0,0,1-1.18,1.87,5.08,5.08,0,0,1-1.8,1.2,5.83,5.83,0,0,1-2.26.43,5.76,5.76,0,0,1-2.26-.43,5.13,5.13,0,0,1-1.79-1.2A5.52,5.52,0,0,1,101.09,64a6.51,6.51,0,0,1-.43-2.42,6.44,6.44,0,0,1,.43-2.42,5.25,5.25,0,0,1,1.18-1.83,5.34,5.34,0,0,1,1.79-1.17,6.14,6.14,0,0,1,2.26-.4,6.21,6.21,0,0,1,2.26.4,5.17,5.17,0,0,1,3,3A6.44,6.44,0,0,1,112,61.53Zm-2.69,0a4,4,0,0,0-.22-1.35,3.34,3.34,0,0,0-.61-1.08,2.75,2.75,0,0,0-.94-.71,2.86,2.86,0,0,0-1.21-.26,2.82,2.82,0,0,0-1.21.26,3,3,0,0,0-.94.71,3.16,3.16,0,0,0-.61,1.08,4.24,4.24,0,0,0-.21,1.35,4.14,4.14,0,0,0,.22,1.39,3.44,3.44,0,0,0,.61,1.1,2.81,2.81,0,0,0,.93.71,2.68,2.68,0,0,0,1.21.26,2.64,2.64,0,0,0,1.2-.26,2.85,2.85,0,0,0,.94-.71,3.28,3.28,0,0,0,.62-1.1A4.14,4.14,0,0,0,109.3,61.53Z" fill="#2b2c28"/><path d="M120.26,67.15l-4.19-7.29h0l.06,7.29h-2.44V56h2.86l4.18,7.28h0L120.67,56h2.44V67.15Z" fill="#2b2c28"/><path d="M135.71,67.15l-.8-2.19h-4l-.76,2.19h-2.74L131.75,56h2.44l4.32,11.15ZM132.92,59l-1.32,3.83h2.62Z" fill="#2b2c28"/><path d="M139.37,67.15V56h2.53V67.15Z" fill="#2b2c28"/><path d="M149.61,67.15l-2.26-4.42h-.85v4.42H144V56h4a6.41,6.41,0,0,1,1.46.17,3.7,3.7,0,0,1,1.28.56,2.76,2.76,0,0,1,.9,1,3.35,3.35,0,0,1,.34,1.6,3,3,0,0,1-2.16,3l2.72,4.77Zm-.1-7.73a1.15,1.15,0,0,0-.16-.64,1,1,0,0,0-.39-.37,2,2,0,0,0-.55-.19,4,4,0,0,0-.58,0h-1.35v2.59h1.2a3.41,3.41,0,0,0,.63-.05,1.79,1.79,0,0,0,.59-.2,1.08,1.08,0,0,0,.44-.41A1.28,1.28,0,0,0,149.51,59.42Z" fill="#2b2c28"/><line x1="257.85" y1="149.8" x2="255.83" y2="112.38" fill="#231f20"/><path d="M257.85,150.3a.5.5,0,0,1-.5-.47l-2-37.42a.5.5,0,1,1,1,0l2,37.41a.5.5,0,0,1-.47.53Z" fill="#231f20"/></g></svg>