<svg xmlns="http://www.w3.org/2000/svg" viewBox="0 0 400 300"><g data-name="#174_scrum_board_flatline"><path fill="#fff" d="M75.23 41.68H331.7v154.4H75.23z"/><path d="M331.7 196.58H75.23a.5.5 0 01-.5-.5V41.68a.5.5 0 01.5-.5H331.7a.5.5 0 01.5.5v154.4a.5.5 0 01-.5.5zm-256-1h255.5V42.18H75.73z" fill="#231f20"/><path fill="#fff" d="M282.28 72.04h22.31v22.31h-22.31z"/><path d="M304.59 94.85h-22.31a.5.5 0 01-.5-.5V72a.5.5 0 01.5-.5h22.31a.51.51 0 01.5.5v22.35a.5.5 0 01-.5.5zm-21.81-1h21.31V72.54h-21.31z" fill="#d1d3d4"/><path d="M300.52 77.33h-14.18a.51.51 0 01-.5-.5.5.5 0 01.5-.5h14.18a.5.5 0 01.5.5.5.5 0 01-.5.5zm0 4.16h-14.18a.5.5 0 01-.5-.5.51.51 0 01.5-.5h14.18a.5.5 0 01.5.5.5.5 0 01-.5.5zm0 4.17h-14.18a.5.5 0 01-.5-.5.51.51 0 01.5-.5h14.18a.5.5 0 01.5.5.5.5 0 01-.5.5zM295 89.83h-8.61a.5.5 0 01-.5-.5.51.51 0 01.5-.5H295a.51.51 0 01.5.5.5.5 0 01-.5.5z" fill="#d1d3d4"/><path fill="#fff" d="M85.55 74.49h22.31V96.8H85.55z"/><path d="M107.86 97.3H85.55a.5.5 0 01-.5-.5V74.49a.5.5 0 01.5-.5h22.31a.5.5 0 01.5.5V96.8a.51.51 0 01-.5.5zm-21.81-1h21.31V75H86.05z" fill="#d1d3d4"/><path d="M103.79 79.77H89.61a.5.5 0 01-.5-.5.5.5 0 01.5-.5h14.18a.5.5 0 01.5.5.5.5 0 01-.5.5zm0 4.17H89.61a.5.5 0 01-.5-.5.5.5 0 01.5-.5h14.18a.5.5 0 01.5.5.5.5 0 01-.5.5zm0 4.17H89.61a.5.5 0 01-.5-.5.5.5 0 01.5-.5h14.18a.5.5 0 01.5.5.5.5 0 01-.5.5zm-5.57 4.17h-8.61a.5.5 0 01-.5-.5.5.5 0 01.5-.5h8.61a.5.5 0 01.5.5.51.51 0 01-.5.5zm11.22 18.74h22.31v22.31h-22.31z" fill="#d1d3d4"/><path d="M127.68 117H113.5a.5.5 0 01-.5-.5.51.51 0 01.5-.5h14.18a.5.5 0 01.5.5.5.5 0 01-.5.5zm0 5.9H113.5a.5.5 0 01-.5-.5.51.51 0 01.5-.5h14.18a.5.5 0 01.5.5.5.5 0 01-.5.5zm-5.57 5.91h-8.61a.5.5 0 01-.5-.5.51.51 0 01.5-.5h8.61a.51.51 0 01.5.5.5.5 0 01-.5.5z" fill="#fff"/><path d="M136.7 186.29a.5.5 0 01-.5-.5V46.38a.51.51 0 01.5-.5.5.5 0 01.5.5v139.41a.5.5 0 01-.5.5zm66.77 0a.5.5 0 01-.5-.5V46.38a.5.5 0 01.5-.5.51.51 0 01.5.5v139.41a.5.5 0 01-.5.5zm66.76 0a.5.5 0 01-.5-.5V46.38a.51.51 0 01.5-.5.5.5 0 01.5.5v139.41a.5.5 0 01-.5.5z" fill="#d1d3d4"/><path d="M282.5 221.65s-11.44-5.8-17.24-2.9-9.22 2.9-9 5 2.9 2.11 2.9 2.11-3.43 1.55-1.32 3a6.56 6.56 0 004.22 1.2s-5.54 1.85-2.9 3.43 8.26 1.12 10.19 1.48 19.06 5.9 19.06 5.9z" fill="#fff"/><path d="M288.45 241.39a.41.41 0 01-.16 0c-.17-.05-17.12-5.53-19-5.88a22.5 22.5 0 00-2.57-.18c-2.61-.09-5.85-.2-7.79-1.36-.86-.52-1-1.1-.95-1.49.09-.83 1.09-1.54 2.07-2a7.3 7.3 0 01-2.46-1.11 1.69 1.69 0 01-.9-1.56 2.53 2.53 0 011.11-1.61 2.79 2.79 0 01-2-2.3c-.21-1.73 1.35-2.31 3.93-3.27a51.37 51.37 0 005.27-2.33c5.95-3 17.21 2.66 17.68 2.9a.53.53 0 01.25.3l5.95 19.24a.49.49 0 01-.12.5.53.53 0 01-.31.15zm-26.35-11.81a.49.49 0 01.48.39.5.5 0 01-.33.59c-1.52.51-3.2 1.43-3.26 2 0 .2.32.43.47.52 1.71 1 5 1.14 7.31 1.23a19.5 19.5 0 012.71.19c1.7.32 14.59 4.45 18.2 5.61l-5.6-18.11c-1.49-.72-11.49-5.36-16.6-2.8a52.84 52.84 0 01-5.4 2.29c-2.57.95-3.39 1.34-3.28 2.21.2 1.64 2.31 1.67 2.4 1.67a.5.5 0 01.21.95c-.69.31-1.67 1-1.71 1.5 0 .2.14.42.47.65a6.2 6.2 0 003.87 1.12z" fill="#231f20"/><path fill="#fff" d="M269.82 238.25l-6.32-25.65-22.67 4.92 4.98 26.52 24.01-5.79z"/><path d="M245.81 244.54a.43.43 0 01-.27-.08.45.45 0 01-.22-.33l-5-26.52a.5.5 0 01.39-.58l22.66-4.92a.5.5 0 01.59.37l6.32 25.65a.47.47 0 01-.05.38.5.5 0 01-.31.22l-24 5.8zm-4.39-26.63l4.78 25.52 23-5.55-6.08-24.68z" fill="#d1d3d4"/><path d="M269.52 220.17s-12.86 1.13-11.58 3.54 9.47 1.89 9.47 1.89.14 5.33 4.48 4.62" fill="#fff"/><path d="M271.13 230.79a3.62 3.62 0 01-2.39-.83 6 6 0 01-1.79-3.83c-1.94.08-8.21.16-9.45-2.18a1.14 1.14 0 010-1.13c1.13-2.1 10.18-3 12-3.15a.5.5 0 11.09 1c-4.26.38-10.55 1.44-11.19 2.63a.15.15 0 000 .19c.82 1.55 5.95 1.82 9 1.62a.53.53 0 01.37.13.5.5 0 01.16.36s.08 2.46 1.47 3.6a2.91 2.91 0 002.43.54.5.5 0 11.16 1 6.2 6.2 0 01-.86.05z" fill="#231f20"/><path d="M351.07 192.24s15.34 41.87 4.39 46.11-53.19-9.41-53.19-9.41l4.07-20.11z" fill="#fff"/><path d="M349.49 239.67c-15.46 0-45.88-9.77-47.37-10.25a.51.51 0 01-.34-.57l4.07-20.11a.52.52 0 01.32-.37l44.73-16.6a.5.5 0 01.38 0 .51.51 0 01.26.28c.64 1.73 15.38 42.39 4.1 46.76a17.89 17.89 0 01-6.15.86zm-46.64-11.07c4.46 1.41 42.34 13.19 52.42 9.29 4.22-1.64 4.78-10 1.62-24.07a197.12 197.12 0 00-6.12-20.94l-44 16.33z" fill="#231f20"/><path d="M336.62 152.32s7.29 4 19.73 47.53L333.9 208z" fill="#2b2c28"/><path fill="#fff" d="M226.72 122.51h22.31v22.31h-22.31z"/><path d="M249 145.32h-22.28a.5.5 0 01-.5-.5v-22.31a.5.5 0 01.5-.5H249a.5.5 0 01.5.5v22.31a.5.5 0 01-.5.5zm-21.81-1h21.31V123h-21.28z" fill="#d1d3d4"/><path d="M245 127.79h-14.22a.51.51 0 01-.5-.5.5.5 0 01.5-.5H245a.5.5 0 01.5.5.51.51 0 01-.5.5zm0 4.21h-14.22a.51.51 0 01-.5-.5.5.5 0 01.5-.5H245a.5.5 0 01.5.5.51.51 0 01-.5.5zm0 4.13h-14.22a.51.51 0 01-.5-.5.5.5 0 01.5-.5H245a.5.5 0 01.5.5.51.51 0 01-.5.5zm-5.61 4.17h-8.61a.51.51 0 01-.5-.5.5.5 0 01.5-.5h8.61a.5.5 0 01.5.5.51.51 0 01-.5.5z" fill="#d1d3d4"/><path d="M280.47 189.24s-20.15 16.09-30.47 13.13-18-40.33-25-54.1c-7.59-15-1.81-20.68 1-22.59 2-1.34 3.72 8.69 5.6 10.95.64-2.93-.43-5.42 2.06-3.69 1.77 1.23 2.71 13.8 2.71 13.8s23.91 30.25 25 30.36l9-6.55" fill="#fff"/><path d="M252.84 203.23a10.72 10.72 0 01-2.94-.38c-7.06-2-12.58-18.62-17.91-34.65-2.58-7.76-5-15.09-7.35-19.7-7.35-14.49-2.45-20.77 1.13-23.23a1.08 1.08 0 011-.16c1.12.37 1.92 2.54 3.11 6.06.49 1.45 1 2.92 1.48 4 0-.37.05-.73.06-1.05 0-1.07.07-1.84.67-2.14s1.26.11 1.92.57c1.83 1.27 2.72 11.57 2.91 14 8.93 11.3 22.41 28.07 24.53 29.94l8.67-6.34a.51.51 0 01.7.11.5.5 0 01-.11.7l-8.95 6.54a.52.52 0 01-.34.1c-1.11-.11-14.42-16.67-25.38-30.55a.49.49 0 01-.11-.28c-.38-5.11-1.41-12.66-2.49-13.42-.7-.48-.91-.49-.93-.48a10.79 10.79 0 00-.09 1.27 13.84 13.84 0 01-.28 2.6.5.5 0 01-.37.38.5.5 0 01-.5-.17c-.82-1-1.55-3.16-2.33-5.46s-1.76-5.19-2.49-5.43h-.1c-3.31 2.27-7.82 8.15-.81 22 2.37 4.68 4.82 12 7.41 19.83 5 15.05 10.68 32.12 17.24 34 9.9 2.85 29.78-12.88 30-13a.5.5 0 01.62.78c-.81.57-17.2 13.56-27.97 13.56z" fill="#231f20"/><path d="M296.87 118.84s-5.63 8.23-4.52 10 4.91.66 4.91.66" fill="#fff"/><path d="M294.88 130.32a3.32 3.32 0 01-2.95-1.23c-1.2-1.88 3.17-8.54 4.53-10.53a.5.5 0 01.7-.13.51.51 0 01.13.69c-2.62 3.83-5.09 8.53-4.52 9.43.75 1.17 3.4.72 4.35.45a.5.5 0 01.28 1 10.17 10.17 0 01-2.52.32z" fill="#231f20"/><path d="M298.22 107.86c-3.54 2.8-2.62 8.86-2.66 12.79q-.06 8.29.25 16.58c.13 3.51 9.2 3.73 10.82 2.71L305 153.76l19.18-7-.35-16s-6 0-9.43-7.25-3.1-18.17-3.1-18.17-9.61-.22-13.08 2.52z" fill="#fff"/><path d="M305 154.26a.51.51 0 01-.31-.11.5.5 0 01-.19-.45l1.55-13c-2.09.51-6.44.35-8.84-.91a3 3 0 01-1.89-2.53c-.21-5.5-.29-11.09-.25-16.6v-2.13c-.12-3.82-.26-8.57 2.89-11 3.56-2.82 13-2.63 13.38-2.63a.51.51 0 01.49.52c0 .11-.28 10.94 3 17.94 3.26 6.83 8.93 7 9 7a.51.51 0 01.5.49l.35 16a.51.51 0 01-.33.48l-19.18 7a.51.51 0 01-.17-.07zm1.64-14.82a.45.45 0 01.27.08.51.51 0 01.23.48l-1.55 13 18.08-6.61-.33-15.18c-1.55-.17-6.4-1.22-9.39-7.49-3.06-6.42-3.18-15.61-3.16-17.89-2 0-9.4.17-12.25 2.41-2.75 2.18-2.61 6.65-2.5 10.24v2.17c0 5.49 0 11.06.25 16.56 0 .65.48 1.21 1.36 1.68 2.57 1.35 7.64 1.28 8.69.62a.45.45 0 01.29-.07zm-8.41-31.58zm45.3 150.46l.02-28.08-63.69-.34-6.55 28.42h70.22z" fill="#231f20"/><path d="M343.53 258.82h-70.22a.51.51 0 01-.49-.61l6.55-28.43a.5.5 0 01.49-.38l63.69.34a.51.51 0 01.5.5v28.08a.5.5 0 01-.52.5zm-69.59-1H343v-27.08l-62.79-.34z" fill="#231f20"/><path d="M294.43 150.33c9.05-7.81 38.33-9.14 42.19 2s9.59 80.42 9.59 80.42c-21.41 7.27-70.28.13-70.28.13l6.86-33.44s1.88-40.68 11.64-49.11z" fill="#2b2c28"/><path d="M306.63 139.94s4.66-.15 6.9-3.34c0 0-.29 5.57-7.54 7.89z" fill="#231f20"/><path d="M306 145a.52.52 0 01-.32-.11.51.51 0 01-.18-.46l.64-4.55a.51.51 0 01.48-.43c.05 0 4.44-.18 6.51-3.12a.49.49 0 01.57-.19.51.51 0 01.34.5c0 .24-.4 5.94-7.89 8.34a.39.39 0 01-.15.02zm1.08-4.58l-.47 3.34a9.7 9.7 0 006-5.43 10.9 10.9 0 01-5.54 2.08z" fill="#231f20"/><ellipse cx="298.79" cy="116.2" rx=".78" ry="1.98" transform="rotate(-3.1 298.456 116.067)" fill="#231f20"/><path fill="#2b2c28" d="M294.43 150.33l-32.45 20.8 12.39 33.49 24.59-9.94-4.53-44.35z"/><path d="M282 201.66a.51.51 0 01-.44-.25.5.5 0 01.18-.68c.16-.09 15.17-8.86 22.31-17a.49.49 0 01.7-.05.51.51 0 01.05.71c-7.24 8.31-22.4 17.16-22.55 17.25a.57.57 0 01-.25.02zm62.67 14.18a.49.49 0 01-.5-.45c-1-11.53-4.62-42.09-4.66-42.4a.52.52 0 01.44-.56.51.51 0 01.56.44c0 .31 3.62 30.89 4.66 42.43a.51.51 0 01-.46.54zm-49.03-84.11s7.22-.27 7.22 0a7.08 7.08 0 01-4 3.57 2.61 2.61 0 01-3.16-1.79z" fill="#231f20"/><path d="M298.08 135.89a3.12 3.12 0 01-2.87-2.25.59.59 0 010-.13l-.05-1.76a.51.51 0 01.48-.52c7.19-.27 7.4-.07 7.58.1a.55.55 0 01.16.38 7.13 7.13 0 01-4.38 4.06 3.72 3.72 0 01-.92.12zm-1.89-2.49a2 2 0 002.53 1.4 6.58 6.58 0 003.37-2.69c-1.12 0-3.58 0-5.93.1z" fill="#231f20"/><path d="M335.48 100.06c6.44 6.67 8.57 16.37 9.34 25.61s.5 18.71 3.29 27.56c2.47 7.87 7.37 15.64 5.74 23.73-1 4.76-4.17 8.86-8.13 11.67a38.66 38.66 0 01-13.36 5.59c-6.08 1.49-15.86 3.29-21.32-1a15.11 15.11 0 01-4.34-6c-2.92-6.7-2.91-14.42-1.13-21.51 2.2-8.74 7.86-15.74 10.47-24.21.66-2.16 1.2-4.49.61-6.67s-2.4-4.11-3.82-6c-4.29-5.88-4.64-12.62-3.29-19.48-3.69-.25-13.42.88-12.32-5.71.36-2.14 2-3.83 3.66-5.19a24.42 24.42 0 012.91-2c9.77-5.86 23.69-4.67 31.69 3.61z" fill="#fff"/><path d="M320.75 196.4c-3.64 0-7.34-.66-10-2.75a15.31 15.31 0 01-4.48-6.21c-2.72-6.24-3.13-14-1.16-21.83 1.18-4.72 3.39-9 5.53-13.11a67.75 67.75 0 004.94-11.13 11.64 11.64 0 00.61-6.39 13.2 13.2 0 00-2.69-4.52c-.36-.45-.71-.9-1.05-1.36-3.78-5.18-4.92-11.5-3.49-19.31h-1.49c-3.33 0-7.9-.07-9.87-2.42a4.53 4.53 0 01-.86-3.83c.42-2.49 2.4-4.33 3.85-5.49a25.66 25.66 0 013-2.07c10.22-6.06 24.41-4.42 32.31 3.75 5.46 5.66 8.47 13.89 9.48 25.92.2 2.37.33 4.79.46 7.13.37 6.78.75 13.79 2.8 20.32.67 2.11 1.52 4.25 2.35 6.33 2.28 5.7 4.63 11.6 3.41 17.65A19.82 19.82 0 01346 189c-3.47 2.46-7.77 4.26-13.53 5.67a50.89 50.89 0 01-11.72 1.73zm-3.48-103.1A26 26 0 00304 96.82a24.58 24.58 0 00-2.85 2c-2.1 1.69-3.2 3.24-3.48 4.88a3.55 3.55 0 00.63 3c1.68 2 6.16 2 9.11 2.07h2.12a.49.49 0 01.37.2.51.51 0 01.09.4c-1.53 7.78-.49 14 3.21 19.09.33.45.67.89 1 1.33a14 14 0 012.87 4.88 12.44 12.44 0 01-.62 6.95 68.19 68.19 0 01-5 11.29c-2.1 4.07-4.29 8.29-5.44 12.9-1.92 7.62-1.53 15.15 1.1 21.18a14.46 14.46 0 004.18 5.82c5.85 4.55 17.18 1.79 20.9.88 5.63-1.38 9.82-3.13 13.19-5.52a19.07 19.07 0 007.93-11.36c1.16-5.76-1.14-11.51-3.36-17.08-.83-2.09-1.7-4.26-2.37-6.4-2.09-6.65-2.48-13.72-2.85-20.56-.13-2.34-.26-4.75-.46-7.11-1-11.78-3.91-19.82-9.2-25.3a24.87 24.87 0 00-17.8-7.06z" fill="#231f20"/><path d="M307.4 122.18a7.5 7.5 0 011.61-3.77 10.59 10.59 0 012-2.48 3.66 3.66 0 013-.86 3.37 3.37 0 012.14 1.75 6.4 6.4 0 01.65 2.76 11.86 11.86 0 01-5.61 10.42l.31-.33" fill="#fff"/><path d="M311.19 130.51a.5.5 0 01-.36-.85l.31-.32a.46.46 0 01.4-.15 11.44 11.44 0 004.79-9.59 5.84 5.84 0 00-.59-2.54 2.85 2.85 0 00-1.81-1.5 3.16 3.16 0 00-2.57.76 10.64 10.64 0 00-1.94 2.37 7.22 7.22 0 00-1.52 3.51.49.49 0 01-.52.48.5.5 0 01-.48-.52 8 8 0 011.69-4 11.22 11.22 0 012.14-2.58 4.09 4.09 0 013.42-1 3.75 3.75 0 012.47 2 6.77 6.77 0 01.71 3 12.44 12.44 0 01-5.88 10.88.48.48 0 01-.26.05z" fill="#231f20"/><path fill="#fff" d="M162.65 122.7h21.68v21.68h-21.68z"/><path d="M184.33 144.88h-21.68a.5.5 0 01-.5-.5V122.7a.5.5 0 01.5-.5h21.68a.5.5 0 01.5.5v21.68a.5.5 0 01-.5.5zm-21.18-1h20.68V123.2h-20.68z" fill="#d1d3d4"/><path d="M180.38 127.84H166.6a.5.5 0 01-.5-.5.5.5 0 01.5-.5h13.78a.5.5 0 01.5.5.5.5 0 01-.5.5zm0 4.05H166.6a.5.5 0 01-.5-.5.5.5 0 01.5-.5h13.78a.5.5 0 01.5.5.5.5 0 01-.5.5zm0 4.11H166.6a.5.5 0 01-.5-.5.5.5 0 01.5-.5h13.78a.5.5 0 01.5.5.5.5 0 01-.5.5zm-5.38 4h-8.4a.5.5 0 01-.5-.5.5.5 0 01.5-.5h8.4a.5.5 0 01.5.5.5.5 0 01-.5.5z" fill="#d1d3d4"/><path fill="#fff" d="M172.98 156.53h22.31v22.31h-22.31z"/><path d="M195.29 179.34H173a.5.5 0 01-.5-.5v-22.31a.5.5 0 01.5-.5h22.31a.5.5 0 01.5.5v22.31a.5.5 0 01-.52.5zm-21.81-1h21.31V157h-21.31z" fill="#d1d3d4"/><path d="M191.23 161.81H177a.5.5 0 010-1h14.19a.5.5 0 010 1zm0 4.19H177a.5.5 0 010-1h14.19a.5.5 0 010 1zm0 4.15H177a.5.5 0 010-1h14.19a.5.5 0 010 1zm-5.58 4.17H177a.5.5 0 010-1h8.61a.5.5 0 110 1z" fill="#d1d3d4"/><path d="M130.63 206s21.26 12.86 27.54 12.53 12.45-69.73 12.76-72.24c.23-1.78 3.69-8.45 4.47-10.21a17.18 17.18 0 001.26-7.36c-.24-2.51-4.73-4.41-5.88-4.18-3.54.7-5.29 6.07-7.43 9-.64-.65-.65-4.16-1-5-4.52 4.75-3.24 11.52-2.89 17.39.18 2.88-12.55 40-12.55 40l-5.91-3.41" fill="#fff"/><path d="M157.93 219.07c-6.64 0-26.7-12.09-27.56-12.61a.5.5 0 01.52-.86c.21.13 21.23 12.81 27.25 12.46 1.23-.06 5.75-5.27 12.06-69.43.13-1.31.21-2.14.24-2.37.16-1.3 1.74-4.63 3.49-8.22.44-.92.81-1.69 1-2.13a16.56 16.56 0 001.22-7.11 3.62 3.62 0 00-1.6-2.24 7 7 0 00-3.68-1.5c-2.3.45-3.82 3.16-5.3 5.79a28.75 28.75 0 01-1.83 3 .51.51 0 01-.37.21.52.52 0 01-.39-.15c-.45-.46-.61-1.52-.81-3.2 0-.36-.09-.73-.14-1.06-3.1 3.89-2.69 9-2.3 13.94.06.8.13 1.58.17 2.36.18 2.9-11.27 36.39-12.58 40.2a.52.52 0 01-.73.27l-5.86-3.42a.5.5 0 01-.18-.68.51.51 0 01.69-.18l5.34 3.14C151.68 170.34 159 148 158.92 146q-.07-1.16-.18-2.34c-.41-5.22-.88-11.13 3.2-15.43a.53.53 0 01.44-.15.51.51 0 01.37.28 8.39 8.39 0 01.42 2.22c.06.52.16 1.33.29 1.92.42-.65.83-1.38 1.25-2.14 1.51-2.69 3.22-5.74 6-6.28.94-.19 3 .6 4.48 1.68a4.41 4.41 0 012 2.94 17.5 17.5 0 01-1.3 7.62c-.2.45-.58 1.22-1 2.15-1.22 2.5-3.25 6.67-3.4 7.91 0 .23-.11 1.05-.24 2.35-6.88 70-11.48 70.25-13 70.33z" fill="#231f20"/><path fill="#fff" d="M66.76 258.32l1.82-59.58-21.76 4.65-.92 54.93h20.86z"/><path d="M66.76 258.82H45.9a.47.47 0 01-.35-.15.51.51 0 01-.15-.36l.92-54.93a.5.5 0 01.39-.48l21.77-4.65a.49.49 0 01.42.11.46.46 0 01.18.39l-1.82 59.58a.51.51 0 01-.5.49zm-20.35-1h19.87l1.78-58.46-20.75 4.44z" fill="#231f20"/><path d="M61 155.57s-10.69 9.67-13.45 19S40.6 206 40.6 206l36 3.85z" fill="#2b2c28"/><path d="M100.75 121.44a5.11 5.11 0 115-5.89 5.11 5.11 0 01-5 5.89zm0-9.22a4.46 4.46 0 00-.63 0 4.11 4.11 0 104.68 3.44 4.11 4.11 0 00-4.04-3.44z" fill="#231f20"/><path d="M71.08 141.12c-2.07.23-4.16.19-6.58.35-2.24.16-5.21-.23-5.6-2.44-.33-1.89 1.71-3.8.93-5.56a4.46 4.46 0 00-1-1.22c-6.88-6.77-9.51-18.79-5.06-27.47a20 20 0 018.74-8.66 39.43 39.43 0 0123-3.53c6 .79 13.6 4.3 13.91 11.35.12 2.54-1.46 5.28-4 5.78-.14 7.62-3.25 13.29-7.31 19.43a30.2 30.2 0 01-10.8 10.06 16.5 16.5 0 01-6.23 1.91z" fill="#fff"/><path d="M63.6 142c-3 0-4.87-1-5.19-2.89a5.28 5.28 0 01.57-2.89c.39-1 .73-1.8.39-2.56a3.7 3.7 0 00-.79-1l-.09-.09c-7.28-7.16-9.55-19.49-5.15-28a20.43 20.43 0 018.95-8.88 40.18 40.18 0 0123.28-3.58C92.5 93 99.62 97 99.92 103.92c.11 2.52-1.33 5.43-4 6.19-.25 7.9-3.63 13.65-7.38 19.32a30.8 30.8 0 01-11 10.23 17.37 17.37 0 01-6.47 2c-1.22.13-2.44.18-3.73.22-.91 0-1.86.07-2.86.13-.27-.01-.58-.01-.88-.01zm16.14-49.3a37.76 37.76 0 00-17 3.85 19.62 19.62 0 00-8.51 8.45c-4.21 8.19-2 20 5 26.88l.09.09a4.26 4.26 0 011 1.29 4.2 4.2 0 01-.38 3.33 4.56 4.56 0 00-.52 2.35c.38 2.17 4 2.1 5.08 2s2-.11 2.89-.14c1.28 0 2.48-.09 3.66-.22a16.07 16.07 0 006.11-1.85 29.74 29.74 0 0010.61-9.9c4.48-6.77 7.1-12.07 7.23-19.16a.48.48 0 01.4-.48c2.32-.47 3.65-3.1 3.55-5.26-.31-7.23-8.62-10.24-13.48-10.89a43.87 43.87 0 00-5.73-.33z" fill="#231f20"/><path d="M99.12 120.21s6.65 7.91 5.68 9.82-5 1.18-5 1.18" fill="#fff"/><path d="M101.47 131.85a9.57 9.57 0 01-1.75-.15.5.5 0 01.18-1c1 .18 3.8.38 4.45-.92.51-1-2.52-5.59-5.61-9.27a.5.5 0 11.76-.64c1.61 1.91 6.78 8.32 5.75 10.37-.67 1.33-2.43 1.61-3.78 1.61z" fill="#231f20"/><path d="M96.61 109c3.94 2.53 3.61 8.87 4 12.91q.91 8.55 1.44 17.12c.22 3.62-9.11 4.77-10.88 3.89L94.32 157l-20.48-5.27-.55-11.86s6.36-.69 9.16-8.45.44-23.67.44-23.67 9.87-1.18 13.72 1.25z" fill="#fff"/><path d="M94.32 157.52h-.12l-20.48-5.27a.51.51 0 01-.38-.46l-.55-11.87a.5.5 0 01.44-.52c.25 0 6.09-.77 8.75-8.12 2.72-7.56.44-23.27.42-23.43a.45.45 0 01.1-.37.5.5 0 01.33-.2c.41 0 10.1-1.19 14 1.34 3.49 2.24 3.83 7.14 4.1 11.08 0 .78.1 1.52.17 2.2.61 5.67 1.1 11.44 1.45 17.14a3.1 3.1 0 01-1.69 2.78c-2.34 1.55-6.84 2.15-9 1.83l2.93 13.27a.51.51 0 01-.14.47.52.52 0 01-.33.13zm-20-6.16l19.33 5-2.93-13.28a.51.51 0 01.18-.5.53.53 0 01.53-.05c1.16.58 6.4.13 8.92-1.53a2.2 2.2 0 001.24-1.88c-.35-5.69-.83-11.44-1.44-17.09-.08-.69-.13-1.45-.18-2.24-.26-3.72-.58-8.34-3.64-10.31-3.17-2-10.84-1.44-12.88-1.24.39 2.85 2 16.3-.54 23.39-2.46 6.83-7.54 8.39-9.11 8.71z" fill="#231f20"/><path d="M101.47 134.83s-4.09 3.22-7-1.07" fill="#fff"/><path d="M98.2 136.49a4.31 4.31 0 01-.71-.05 5 5 0 01-3.4-2.4.5.5 0 01.13-.69.5.5 0 01.7.14 4.13 4.13 0 002.72 2 5.16 5.16 0 003.52-1 .52.52 0 01.71.08.51.51 0 01-.09.71 6.49 6.49 0 01-3.58 1.21zm-21.99-9.65h-.06a.49.49 0 01-.43-.56c.37-3 .94-3.08 1.18-3.13.47-.12 18.7-5.28 28.27-8a.5.5 0 11.28 1c-2.77.78-26.32 7.46-28.21 8a9.06 9.06 0 00-.53 2.32.51.51 0 01-.5.37zm.91-2.73zm0 0z" fill="#231f20"/><path d="M88.63 125.11a7.75 7.75 0 00-2-3.72 10.91 10.91 0 00-2.36-2.34 3.76 3.76 0 00-3.17-.58 3.51 3.51 0 00-2 2 6.63 6.63 0 00-.38 2.9 12.29 12.29 0 006.88 10.18l-.36-.31" fill="#fff"/><path d="M85.53 134.07a.54.54 0 01-.22 0 12.87 12.87 0 01-7.16-10.6 7.12 7.12 0 01.42-3.12A4 4 0 0180.9 118a4.19 4.19 0 013.61.64 11.92 11.92 0 012.49 2.43 8.29 8.29 0 012.15 4 .5.5 0 11-1 .13 7.54 7.54 0 00-1.93-3.47 10.62 10.62 0 00-2.22-2.26 3.25 3.25 0 00-2.74-.53 3 3 0 00-1.72 1.74 5.92 5.92 0 00-.35 2.68 11.83 11.83 0 005.93 9.41.5.5 0 01.42.11l.35.31a.51.51 0 01.1.65.53.53 0 01-.46.23z" fill="#231f20"/><ellipse cx="96.94" cy="115.98" rx=".8" ry="2.05" transform="matrix(.99 -.17 .17 .99 -18.12 17.95)" fill="#231f20"/><path d="M70.29 155.72l.94-6.47 25.25-1.43 3.8 9a49.71 49.71 0 01-29.99-1.1z" fill="#fff"/><path d="M87.24 159.07a52 52 0 01-17.12-2.88.5.5 0 01-.33-.54l.95-6.47a.49.49 0 01.47-.43l25.25-1.43a.49.49 0 01.48.3l3.8 9a.47.47 0 010 .4.48.48 0 01-.29.27 45.37 45.37 0 01-13.21 1.78zm-16.4-3.69a50.28 50.28 0 0028.77 1.12l-3.45-8.17-24.49 1.4zm55.53 102.94l-1.63-15.83-65 1.25-.25 14.58h66.88z" fill="#231f20"/><path d="M126.37 258.82H59.49a.49.49 0 01-.36-.15.54.54 0 01-.14-.36l.25-14.58a.49.49 0 01.49-.49l65-1.25a.49.49 0 01.5.45l1.64 15.83a.47.47 0 01-.12.38.5.5 0 01-.38.17zm-66.37-1h65.82L124.29 243l-64.06 1.23z" fill="#231f20"/><path d="M121.67 164.58s-3.3-11.11-37-13.2c-9.08-.57-17.81 1.28-23.73 4.19-.64 5.23-2.34 62.77-3.72 90.17a392.28 392.28 0 0071-1.51s-8.9-73.91-6.55-79.65z" fill="#2b2c28"/><path d="M117.48 159.87s21.84 18.71 29.18 23.29c0 0-3.91 9-14.46 29.9-15.13-10.16-37.34-26.74-37.34-26.74z" fill="#2b2c28"/><path d="M57.39 238a.5.5 0 01-.46-.54c.8-10.41 2.33-62.29 2.35-62.82a.51.51 0 01.51-.48.5.5 0 01.49.51c0 .53-1.55 52.44-2.35 62.87a.5.5 0 01-.54.46zm74.82-24.44a.51.51 0 01-.29-.08l-30.59-20.93a.5.5 0 01.56-.82l30.6 20.92a.52.52 0 01.13.7.51.51 0 01-.41.21zM91.22 143s-7.61-1.63-9.56-3.74a8.61 8.61 0 003.8 4.78 27.79 27.79 0 006.64 2.94z" fill="#231f20"/><path d="M92.1 147.43H92a28.37 28.37 0 01-6.77-3 9.07 9.07 0 01-4-5.08.47.47 0 01.25-.56.49.49 0 01.6.1c1.51 1.63 7.22 3.14 9.3 3.59a.49.49 0 01.38.38l.88 4a.54.54 0 01-.14.47.52.52 0 01-.4.1zm-9.23-6.75a8.48 8.48 0 002.85 2.88 28.53 28.53 0 005.71 2.64l-.63-2.83a36.58 36.58 0 01-7.93-2.69z" fill="#231f20"/><path d="M329.88 62.52H77.05a.51.51 0 01-.5-.5.5.5 0 01.5-.5h252.83a.5.5 0 01.5.5.5.5 0 01-.5.5zm-139.3-8.11h-40.75a1 1 0 010-2h40.75a1 1 0 010 2zm-62.35 0H87.48a1 1 0 110-2h40.75a1 1 0 010 2zm129.07 0h-40.75a1 1 0 010-2h40.75a1 1 0 010 2zm64.3 0h-40.75a1 1 0 010-2h40.75a1 1 0 010 2z" fill="#d1d3d4"/><path fill="#fff" d="M145.61 85.4h22.31v22.31h-22.31z"/><path d="M167.92 108.21h-22.31a.5.5 0 01-.5-.5V85.4a.5.5 0 01.5-.5h22.31a.5.5 0 01.5.5v22.31a.5.5 0 01-.5.5zm-21.81-1h21.31V85.9h-21.31z" fill="#d1d3d4"/><path d="M163.86 90.68h-14.19a.5.5 0 01-.5-.5.51.51 0 01.5-.5h14.19a.51.51 0 01.5.5.5.5 0 01-.5.5zm0 4.17h-14.19a.5.5 0 01-.5-.5.51.51 0 01.5-.5h14.19a.51.51 0 01.5.5.5.5 0 01-.5.5zm0 4.15h-14.19a.5.5 0 01-.5-.5.51.51 0 01.5-.5h14.19a.51.51 0 01.5.5.5.5 0 01-.5.5zm-5.58 4.19h-8.61a.5.5 0 01-.5-.5.51.51 0 01.5-.5h8.61a.51.51 0 01.5.5.5.5 0 01-.5.5zm16.21-32.57h22.31v22.31h-22.31z" fill="#d1d3d4"/><path d="M192.74 76.84h-14.18a.5.5 0 010-1h14.18a.5.5 0 010 1zm0 4.16h-14.18a.5.5 0 010-1h14.18a.5.5 0 010 1zm-3.58 4.18h-10.6a.5.5 0 010-1h10.6a.5.5 0 110 1zm25.45-17.07h22.31v22.31h-22.31z" fill="#fff"/><path d="M236.92 90.92h-22.31a.5.5 0 01-.5-.5V68.11a.51.51 0 01.5-.5h22.31a.5.5 0 01.5.5v22.31a.5.5 0 01-.5.5zm-21.81-1h21.31V68.61h-21.31z" fill="#d1d3d4"/><path d="M232.86 73.39h-14.18a.5.5 0 01-.5-.5.5.5 0 01.5-.5h14.18a.5.5 0 01.5.5.5.5 0 01-.5.5zm0 4.17h-14.18a.5.5 0 01-.5-.5.5.5 0 01.5-.5h14.18a.5.5 0 01.5.5.5.5 0 01-.5.5zm0 4.17h-14.18a.5.5 0 01-.5-.5.5.5 0 01.5-.5h14.18a.5.5 0 01.5.5.5.5 0 01-.5.5zm-5.58 4.17h-8.6a.5.5 0 01-.5-.5.5.5 0 01.5-.5h8.6a.5.5 0 01.5.5.5.5 0 01-.5.5zm14.94 1.47h22.31v22.31h-22.31z" fill="#d1d3d4"/><path d="M260.46 92.65h-14.18a.5.5 0 010-1h14.18a.5.5 0 010 1zm0 4.17h-14.18a.5.5 0 010-1h14.18a.5.5 0 010 1zm0 4.18h-14.18a.5.5 0 010-1h14.18a.5.5 0 010 1zm-5.58 4.16h-8.6a.5.5 0 010-1h8.6a.5.5 0 010 1z" fill="#fff"/></g></svg>