<svg data-name="#21" xmlns="http://www.w3.org/2000/svg" viewBox="0 0 400 300"><rect x="178.7" y="69.59" width="152.35" height="105.61" rx="9.79" fill="#fff"/><path d="M321.25 175.66H188.49a10.26 10.26 0 01-10.25-10.25v-86a10.26 10.26 0 0110.25-10.25h132.76a10.26 10.26 0 0110.25 10.22v86a10.26 10.26 0 01-10.25 10.28zM188.49 70.05a9.33 9.33 0 00-9.33 9.33v86a9.34 9.34 0 009.33 9.34h132.76a9.35 9.35 0 009.34-9.34v-86a9.34 9.34 0 00-9.34-9.33z" fill="#231f20"/><path fill="#fff" d="M208.92 90.35h91.89v70.52h-91.89z"/><path d="M300.82 161.37h-91.9a.5.5 0 01-.5-.5V90.35a.5.5 0 01.5-.5h91.9a.5.5 0 01.5.5v70.52a.5.5 0 01-.5.5zm-91.4-1h90.9V90.85h-90.9z" fill="#d1d3d4"/><path d="M280.83 193.59l-9.37-18.51h-36.82l11.13 22H232a2.3 2.3 0 00-2.3 2.31 2.3 2.3 0 002.3 2.3h43.86a5.61 5.61 0 004.97-8.1z" fill="#fff"/><path d="M275.83 202.18h-43.86a2.76 2.76 0 010-5.52H245l-10.8-21.33a.48.48 0 010-.45.47.47 0 01.39-.22h36.82a.47.47 0 01.41.25l9.36 18.52a6 6 0 01-5.4 8.79zM232 197.53a1.85 1.85 0 000 3.69l43.86.05a5.15 5.15 0 004.59-7.47l-9.24-18.26h-35.8l10.8 21.33a.46.46 0 010 .44.44.44 0 01-.39.22z" fill="#231f20"/><path d="M276.19 197.53H232a.46.46 0 010-.91h44.23a.46.46 0 110 .91zm-22.5-77.75s-12.8-.57-16.13 4.64-13.91 35.85-13.91 35.85l44.35 1s2.69-19.5 1.16-27.6c-1.78-9.46-.22-15.67-15.47-13.89z" fill="#231f20"/><path d="M248 108a4.07 4.07 0 00-.77-1.49 1.36 1.36 0 00-1.52-.39 1.27 1.27 0 00-.67 1 3 3 0 00.18 1.26 5.07 5.07 0 001.17 2 2.91 2.91 0 002.12.88" fill="#fff"/><path d="M248.39 111.65a3.32 3.32 0 01-2.29-1 5.38 5.38 0 01-1.27-2.18 3.31 3.31 0 01-.19-1.42 1.69 1.69 0 01.88-1.34 1.76 1.76 0 012 .48 4.41 4.41 0 01.85 1.63.39.39 0 01-.24.51.4.4 0 01-.51-.25 3.54 3.54 0 00-.68-1.34 1 1 0 00-1.06-.31.9.9 0 00-.44.71 2.51 2.51 0 00.16 1.08 4.68 4.68 0 001.07 1.87 2.53 2.53 0 001.82.76.4.4 0 110 .8z" fill="#231f20"/><path d="M250.8 115.52l-.81 6.67s.24 3.8 4.43 3.13a8.42 8.42 0 005.94-4.15l.87-11.6c0-.49-1.72-2.57-1.15-6.8a10.33 10.33 0 01-7.17-4.28s-2 2.35-2.82 3.07a9.79 9.79 0 00-1.75 1.83c-1.33 1.92-1.35 5.1-1.09 7.32.22 1.86 1.23 4.81 3.55 4.81z" fill="#fff"/><path d="M253.48 125.86a3.87 3.87 0 01-2.49-.8 4.31 4.31 0 01-1.46-2.84l.76-6.28c-2.3-.39-3.27-3.37-3.49-5.17-.18-1.53-.43-5.33 1.16-7.64a10.86 10.86 0 011.83-1.92c.8-.69 2.75-3 2.77-3a.47.47 0 01.38-.16.45.45 0 01.36.22 10 10 0 006.84 4.07.45.45 0 01.3.18.39.39 0 01.09.33 9.89 9.89 0 00.88 5.9 1.82 1.82 0 01.28.87s0 .36-.88 11.6a.47.47 0 010 .17 8.84 8.84 0 01-6.28 4.4 6 6 0 01-1.05.07zm-3-3.62a3 3 0 003.91 2.63 8.08 8.08 0 005.56-3.84c.09-1.11.86-11.4.87-11.49s-.11-.25-.2-.43a10.82 10.82 0 01-1-6 10.89 10.89 0 01-6.7-3.93 36.19 36.19 0 01-2.49 2.67 10.34 10.34 0 00-1.68 1.75c-1.41 2-1.17 5.59-1 7 .19 1.63 1.06 4.4 3.09 4.41a.45.45 0 01.45.51l-.81 6.66z" fill="#231f20"/><path d="M250.49 117.55a4.91 4.91 0 003.3-.1c2.4-.79 2.57-2.41 2.57-2.41a8.12 8.12 0 01-5.56.48z" fill="#231f20"/><path d="M251.88 118.21a4.62 4.62 0 01-1.47-.23.44.44 0 01-.22-.1.47.47 0 01-.13-.45l.3-2a.46.46 0 01.19-.3.45.45 0 01.34-.07 7.74 7.74 0 005.24-.43.45.45 0 01.46 0 .44.44 0 01.2.42c0 .08-.23 1.91-2.86 2.78a6.62 6.62 0 01-2.05.38zm-.9-1a5.11 5.11 0 002.67-.2 3.83 3.83 0 001.84-1.17 9.56 9.56 0 01-4.32.18z" fill="#231f20"/><path d="M254.66 104.3s-2.51 3-2.07 3.58 1.92.41 1.92.41" fill="#fff"/><path d="M254 108.77a2.1 2.1 0 01-1.72-.64c-.44-.59.27-2 2.09-4.11a.44.44 0 11.67.57 9.88 9.88 0 00-2 3.1 2.53 2.53 0 001.47.16.45.45 0 01.5.38.45.45 0 01-.38.5 5.45 5.45 0 01-.63.04z" fill="#231f20"/><ellipse cx="251.84" cy="104.9" rx=".7" ry=".37" transform="rotate(-81.16 251.85 104.903)" fill="#231f20"/><ellipse cx="257.59" cy="105.5" rx=".7" ry=".37" transform="rotate(-88.11 257.594 105.496)" fill="#231f20"/><path d="M259.87 107a4.81 4.81 0 01.78-1.57 2.08 2.08 0 011.75-.84 1.39 1.39 0 011.05.59 2 2 0 01.25.8c.19 1.49-.35 3.41-1.76 4.15a1.5 1.5 0 01-1.58 0" fill="#fff"/><path d="M261.09 110.73a1.58 1.58 0 01-1-.32.4.4 0 11.5-.62 1.14 1.14 0 001.14 0c1.24-.65 1.72-2.41 1.55-3.75a1.39 1.39 0 00-.19-.64 1 1 0 00-.74-.41 1.76 1.76 0 00-1.41.7 4.32 4.32 0 00-.71 1.45.4.4 0 01-.5.25.39.39 0 01-.26-.5 5.1 5.1 0 01.85-1.7 2.51 2.51 0 012.09-1 1.75 1.75 0 011.35.77 2.23 2.23 0 01.31 1c.21 1.64-.4 3.74-2 4.55a2.2 2.2 0 01-.98.22z" fill="#231f20"/><path d="M250.87 109.59l6.42.31s-.93 3.41-3.67 3.18-2.75-3.49-2.75-3.49z" fill="#fff"/><path d="M253.88 113.54h-.29c-2.49-.2-3.16-2.66-3.17-3.92a.45.45 0 01.14-.33.5.5 0 01.33-.12l6.43.31a.44.44 0 01.33.18.43.43 0 01.07.38c-.34 1.23-1.57 3.5-3.84 3.5zm-2.53-3.48a2.69 2.69 0 002.31 2.58c1.73.14 2.65-1.46 3-2.33z" fill="#231f20"/><path d="M234.91 158.39h-.09a.53.53 0 01-.42-.6c.5-2.74 4.87-26.76 5.06-27.45a.51.51 0 01.63-.36.52.52 0 01.37.63c-.17.65-3.7 20-5 27.36a.52.52 0 01-.55.42z" fill="#fff"/><path d="M266.44 122.06s8.55 13.12 9.75 13.32 3.68-12.54 3.68-12.54l8.9 3s-4.11 31.93-9.22 30.62-15.38-16.52-15.38-16.52z" fill="#231f20"/><path d="M278.42 156.17a.57.57 0 01-.18 0c-6.41-2.41-12.26-13.75-12.51-14.23a.52.52 0 11.92-.47c.06.11 5.91 11.47 12 13.74a.51.51 0 01-.18 1zm2.58-33.41s-.68-9.85 0-9.91 1.71 4.7 1.71 4.7 2-6.43 2.65-6.4.86 1.31.4 4.32c0 0 1.22-4.46 2-4s-.58 4.56-.58 4.56 1.27-4 1.89-3.59-.81 4.54-.81 4.54 1.15-4.3 1.78-3.44-1.61 9.47-2.29 11.87" fill="#fff"/><path d="M287.7 125.9a.34.34 0 01-.14 0 .49.49 0 01-.34-.61 78.3 78.3 0 002.39-10.83c-.11.24-.23.53-.35.86-.15.52-.34 1.13-.58 1.83a.5.5 0 01-1-.29c.2-.74.39-1.34.57-1.82s.26-1 .33-1.44a20.29 20.29 0 00-1 2.57.49.49 0 01-.63.32.5.5 0 01-.32-.63 15.74 15.74 0 00.78-3.57 17.87 17.87 0 00-1.22 3.33.49.49 0 01-.58.36.51.51 0 01-.39-.57 8.92 8.92 0 00.13-3.6 39.06 39.06 0 00-2.21 5.91.47.47 0 01-.5.35.49.49 0 01-.46-.39 28.69 28.69 0 00-1-3.6c-.09 1.69 0 5.33.27 8.66a.5.5 0 01-.46.54.52.52 0 01-.53-.47c-.72-10.34-.07-10.39.46-10.44.32 0 .93-.08 1.82 3.33 1.67-5.08 2.27-5 2.6-5a1 1 0 01.72.37 1.93 1.93 0 01.37 1 2.16 2.16 0 01.87-1.06.71.71 0 01.65 0 1.26 1.26 0 01.46 1.09.8.8 0 01.26-.16.65.65 0 01.59.05c.13.07.38.22.39.92a.72.72 0 01.72.3c.89 1.21-1.9 11.18-2.22 12.31a.49.49 0 01-.45.38zm-21.56-20.27h-.13a.46.46 0 01-.31-.57 17.27 17.27 0 001-5.53 5.58 5.58 0 00-2.33-4.57 8.13 8.13 0 00-2.55-.86 20.06 20.06 0 00-7.61-.6l-.62.12a7.91 7.91 0 01-2 .23 9.25 9.25 0 01-.92-.12 6.31 6.31 0 00-.76-.1c-2.15-.13-4 1.7-4.65 3.59a16 16 0 00-.4 6.63.46.46 0 01-.42.49.45.45 0 01-.49-.42 16.43 16.43 0 01.46-7c.8-2.22 3-4.38 5.57-4.19a6 6 0 01.84.11c.27 0 .54.09.81.11a7.15 7.15 0 001.74-.22l.64-.12a20.75 20.75 0 018 .61 9.15 9.15 0 012.83 1 6.34 6.34 0 012.78 5.32 18.26 18.26 0 01-1.07 5.82.45.45 0 01-.41.27z" fill="#231f20"/><path d="M327.78 84.67h-146a.51.51 0 01-.5-.5.5.5 0 01.5-.5h146a.5.5 0 01.5.5.5.5 0 01-.5.5z" fill="#d1d3d4"/><circle cx="242.47" cy="167.54" r="2.3" fill="#2b2c28"/><circle cx="254.87" cy="167.54" r="2.3" fill="#d1d3d4"/><circle cx="267.27" cy="167.54" r="2.3" fill="#d1d3d4"/><path d="M257 77.76h-10a.5.5 0 010-1h10a.5.5 0 010 1zm78.71 147.44a.5.5 0 01-.5-.5v-11.9H71.78v11.9a.5.5 0 01-.5.5.5.5 0 01-.5-.5v-12.4a.5.5 0 01.5-.5h264.43a.51.51 0 01.5.5v12.4a.5.5 0 01-.5.5z" fill="#d1d3d4"/><path fill="#fff" d="M159.55 194.81h65.87v7.02h-65.87z"/><path d="M225.41 202.29h-65.86a.47.47 0 01-.46-.46v-7a.46.46 0 01.46-.46h65.86a.45.45 0 01.46.46v7a.46.46 0 01-.46.46zm-65.41-.92h65v-6.11h-65z" fill="#231f20"/><circle cx="311.14" cy="193.46" r="3.93" fill="#fff"/><path d="M311.14 197.89a4.44 4.44 0 114.44-4.43 4.44 4.44 0 01-4.44 4.43zm0-7.87a3.44 3.44 0 103.44 3.44 3.44 3.44 0 00-3.44-3.46z" fill="#d1d3d4"/><path d="M290.14 202.66s-2.68-4-.48-8 7.48-5.47 13.33-4.8 14.87 4.32 16.21 7.77c.87 2.24-2.78 4.8-2.78 4.8z" fill="#fff"/><path d="M290.14 203.16a.48.48 0 01-.41-.22c-.12-.17-2.83-4.33-.51-8.57 2.15-3.91 7.31-5.8 13.83-5.05 5.61.64 15.1 4.19 16.62 8.08 1 2.57-2.8 5.27-3 5.39a.75.75 0 01-.29.09l-26.27.28zm10.17-13c-4.83 0-8.56 1.68-10.21 4.7-1.74 3.18-.17 6.44.32 7.31l25.83-.28c1-.73 3.05-2.65 2.48-4.12-1.21-3.12-9.84-6.77-15.79-7.45a24.22 24.22 0 00-2.63-.17z" fill="#d1d3d4"/><path d="M297.81 189.72s10.65 1.24 7 7.48" fill="#fff"/><path d="M304.81 197.7a.59.59 0 01-.25-.07.51.51 0 01-.18-.69 3.37 3.37 0 00.42-3.34c-1.34-2.68-7-3.38-7-3.39a.49.49 0 01-.44-.55.5.5 0 01.55-.44c.26 0 6.24.77 7.82 3.93a4.38 4.38 0 01-.44 4.3.51.51 0 01-.48.25zm42.83 27.5a.5.5 0 01-.5-.5v-21.54H60.91v21.54a.5.5 0 01-.5.5.5.5 0 01-.5-.5v-22a.5.5 0 01.5-.5h287.23a.5.5 0 01.5.5v22a.5.5 0 01-.5.5z" fill="#d1d3d4"/><path d="M190.3 192.5s6.45 5.52 11.36 2.91S208 190 208 190s1.68 7.21 3.52 5.22a2.65 2.65 0 00-.15-3.83s3.38 5.36 3.68 2.45-2-6-2-6 10 7.36 9.51 2.91-9.2-10.12-15.8-10.12-18.87 3.53-18.87 3.53" fill="#fff"/><path d="M198.72 196.62c-4.32 0-8.52-3.55-8.74-3.74a.5.5 0 11.65-.76c.06 0 6.24 5.27 10.79 2.85s6.07-5.12 6.08-5.15a.5.5 0 01.51-.27.49.49 0 01.42.38c.55 2.34 1.6 5 2.33 5.17 0 0 .15 0 .35-.18a2 2 0 00.53-2.12c-.28-.39-.53-.77-.74-1.11a.49.49 0 01.1-.65.5.5 0 01.66 0 3.55 3.55 0 01.85 1.22 6.11 6.11 0 001.92 2s0-.14.08-.42c.28-2.68-1.88-5.6-1.9-5.63a.51.51 0 010-.66.53.53 0 01.66 0c2.86 2.12 7.4 4.8 8.51 4.17.18-.1.25-.37.2-.8-.44-4.25-9-9.67-15.3-9.67-6.45 0-18.61 3.47-18.73 3.51a.5.5 0 01-.28-1c.5-.14 12.42-3.54 19-3.54 6.82 0 15.81 5.83 16.3 10.57a1.64 1.64 0 01-.7 1.77c-1.53.87-5.33-1.33-7.73-2.92a8.46 8.46 0 01.91 4.32q-.12 1.13-.84 1.29c-.58.14-1.3-.38-2-1.12a3.22 3.22 0 01-.84 1.5 1.28 1.28 0 01-1.33.47c-1.31-.35-2.28-3.08-2.77-4.82a18.2 18.2 0 01-5.85 4.61 6.7 6.7 0 01-3.1.73z" fill="#231f20"/><path d="M161.91 236.82s-12.11-21.62-10.73-46 12-34.06 4.15-58-22-23.53-41.68-11.62c-25.38 15.35-43.92 76.75-32 117.71.04 0 36.81 10.44 80.26-2.09z" fill="#2b2c28"/><path d="M127.56 139.11c0 1.23-12.58 60.75-4.3 66.28s69-7.06 69-7.06l-.62-16.57-35.89-4s10.13-45.08-7.67-57-20.52 18.35-20.52 18.35z" fill="#2b2c28"/><path d="M133 208.75c-6.58 0-13.08-1.45-15.68-6.51-5.85-11.39 10-71.74 10.7-74.3a.5.5 0 01.61-.36.5.5 0 01.35.61c-.16.63-16.45 62.54-10.77 73.59 5.57 10.86 32 3.51 32.24 3.43a.5.5 0 01.28 1 73.49 73.49 0 01-17.73 2.54zm22.79-30.48c-1.5-.05-9-.46-9.67-3.14-.63-2.52 8.2-28.34 9.21-31.27a.51.51 0 01.64-.31.5.5 0 01.31.63c-3.78 11-9.61 29-9.19 30.71.36 1.44 5.32 2.26 8.73 2.38a.5.5 0 010 1z" fill="#231f20"/><path d="M148.65 119l2.53-5.3s4.15 3 8.52-3.68 5.3-32.43 5.3-32.43l-11.73.92-.7 9S151 80.13 146.35 85s2.76 14.5 2.76 14.5l-6 13.11" fill="#fff"/><path d="M148.65 119.52a.54.54 0 01-.21 0 .5.5 0 01-.24-.67l2.53-5.29a.5.5 0 01.75-.19 3.92 3.92 0 002.86.5c1.73-.33 3.4-1.7 4.94-4 3.89-6 5-27.84 5.19-31.63l-10.75.76-.66 8.55a.5.5 0 01-1 .07c-.2-.91-1-3.34-2.43-3.73-.82-.23-1.81.25-2.94 1.43-4.25 4.47 2.73 13.76 2.8 13.85a.52.52 0 01.06.51l-6 13.12a.5.5 0 01-.66.25.51.51 0 01-.25-.67l5.87-12.84c-1.16-1.59-7-10.21-2.55-14.91 1.4-1.47 2.72-2 3.93-1.7a4.13 4.13 0 012.32 2.25l.52-6.68a.49.49 0 01.46-.46L165 77.1a.54.54 0 01.39.13.5.5 0 01.15.38c0 1.06-1 26-5.37 32.7-1.71 2.61-3.6 4.12-5.62 4.49a5.08 5.08 0 01-3.09-.38l-2.31 4.81a.49.49 0 01-.5.29z" fill="#231f20"/><path d="M162.58 90.6s4.35 10 3.07 11-4.6.25-4.6.25" fill="#fff"/><path d="M163.45 102.63a12 12 0 01-2.51-.29.5.5 0 01-.38-.6.49.49 0 01.6-.37c1.2.27 3.39.47 4.18-.16.48-.69-1.27-5.94-3.22-10.41a.5.5 0 11.92-.4c1.68 3.86 4.3 10.49 2.92 11.59a4.1 4.1 0 01-2.51.64z" fill="#231f20"/><ellipse cx="159.16" cy="86.44" rx=".86" ry="2.49" fill="#231f20"/><path d="M71.29 177.38h-.11c-6.52-1.5-12.41-6.5-15.76-13.37-10.47-21.51 4.2-43.27 22.26-54.38 2.27-1.39 4.63-2.76 6.91-4.09 9.33-5.41 19-11 25-19.88a71 71 0 005-9.26c1.25-2.59 2.54-5.26 4.07-7.77 4.87-8 12.24-12.38 20.26-12.08 14 .51 24.09 8.74 26.77 16.6a.5.5 0 11-.94.32C161.44 63.6 149 57.9 138.93 57.53c-7.64-.27-14.69 3.95-19.37 11.61-1.5 2.45-2.78 5.11-4 7.68a72.41 72.41 0 01-5.11 9.38c-6.16 9.06-15.91 14.72-25.34 20.19a345.23 345.23 0 00-6.89 4.07c-17.68 10.89-32.08 32.14-21.88 53.09 3.21 6.6 8.85 11.4 15.08 12.84a.5.5 0 01.38.6.51.51 0 01-.51.39zM158.56 110a2 2 0 01-1-.25c-1.59-.83-.61-4.67-.4-5.43a.49.49 0 01.28-.33.5.5 0 01.43 0l3.6 1.88a.5.5 0 11-.46.88l-3-1.58c-.38 1.67-.45 3.41.06 3.68a1 1 0 00.79.08 3 3 0 001.35-1.35.5.5 0 01.67-.23.49.49 0 01.22.67 4 4 0 01-1.93 1.86 1.86 1.86 0 01-.61.12z" fill="#231f20"/></svg>