<svg data-name="#500_coach_flatline" xmlns="http://www.w3.org/2000/svg" viewBox="0 0 400 300"><path fill="#231f20" d="M252.43 262.82l-3.61-41.91-78.22 11.05-5.65 30.86h87.48z"/><path d="M252.42 263.32H165a.53.53 0 01-.39-.18.49.49 0 01-.1-.41l5.65-30.86a.51.51 0 01.42-.41l78.22-11a.52.52 0 01.38.1.48.48 0 01.18.35l3.61 41.91a.49.49 0 01-.13.38.51.51 0 01-.42.12zm-86.88-1h86.34l-3.51-40.84L171 232.4z" fill="#231f20"/><path d="M256.81 164.06l-3.49 87.8s-63.5-4-91.66-6.39l6.72-67-26.48 12.65-19.52-36.2s56.51-48.1 106.52-36.9" fill="#2b2c28"/><path d="M227.07 66.72c-4.72-4.47-10.09-5.53-16.13-7-2.35-.59-4.13-1.94-6.63-2.18s-5.54-.2-7.62 1.29a24.78 24.78 0 00-6.46 7.71 41.13 41.13 0 00-3.48 9.82l-2 7.47a62.71 62.71 0 00-1.56 7c-.5 3.45-.82 7.92.39 11.29 1.12 3.12 4.26 3.39 7.2 3.83 8.66 1.32 17.75 1.42 26.2-1.13 15-4.55 22.38-23.67 11.75-36.3a22.3 22.3 0 00-1.66-1.8z" fill="#fff"/><path d="M202.13 107.36a76.58 76.58 0 01-11.39-.91l-.53-.08c-2.77-.41-5.91-.87-7.06-4.08-1-2.79-1.14-6.56-.42-11.53a65.67 65.67 0 011.57-7.09l2-7.48a41.55 41.55 0 013.54-9.94 25.15 25.15 0 016.6-7.87c1.79-1.28 4.39-1.73 7.95-1.38a13.66 13.66 0 014.06 1.22 17.37 17.37 0 002.65 1l1.37.34c5.41 1.34 10.53 2.6 15 6.83a21.51 21.51 0 011.73 1.84 21.86 21.86 0 014.16 20.67 24.51 24.51 0 01-16.15 16.42 51.72 51.72 0 01-15.08 2.04zm0-49.48a8.8 8.8 0 00-5.13 1.31 24.31 24.31 0 00-6.31 7.55 40.83 40.83 0 00-3.44 9.71l-2 7.47a63.4 63.4 0 00-1.55 7c-.68 4.74-.56 8.46.37 11s3.53 3 6.26 3.43l.54.08c9.82 1.49 18.56 1.12 26-1.12a23.53 23.53 0 0015.48-15.75 20.9 20.9 0 00-4-19.75 22.77 22.77 0 00-1.65-1.76c-4.27-4-9-5.22-14.54-6.58l-1.37-.34a17.79 17.79 0 01-2.8-1 12.34 12.34 0 00-3.73-1.13 20.05 20.05 0 00-2.11-.12z" fill="#231f20"/><path d="M191.1 118.92l-.1 18.45s6 11.09 17.7 7.75 13.3-12.7 13.3-12.7c.22-11.45-.13-23.13.7-34.5 0-.13-3.9-3.56-4.3-4.17a9.16 9.16 0 01-1.69-4.38c-.86-5.09-1.22-10.34-1.66-15.49l-2.31-.21a1.68 1.68 0 01-.18-1.26 25.64 25.64 0 01-10.43 7.77c-2.28.92-4.87 1.5-7.19.67a24.75 24.75 0 003-8 52.94 52.94 0 01-10.74 9.41c-4.19 2.78-4.61-2-5.27 3-.72 5.43-.75 19.22.32 24.66 1.85 9.08 8.85 9 8.85 9z" fill="#fff"/><path d="M204.44 146.25c-9.08 0-13.82-8.54-13.88-8.64a.5.5 0 01-.06-.24l.09-18c-1.7-.2-7.21-1.43-8.78-9.38-1.11-5.64-1-19.61-.32-24.83.23-1.77.44-2.39.89-2.68a1.35 1.35 0 011.19 0c.68.22 1.63.51 3.4-.67a52.09 52.09 0 0010.64-9.32.49.49 0 01.59-.12.5.5 0 01.28.54 24.88 24.88 0 01-2.76 7.62 10.21 10.21 0 006.26-.84 25.11 25.11 0 0010.23-7.61.49.49 0 01.61-.13.48.48 0 01.26.57 1.24 1.24 0 000 .66l2 .18a.51.51 0 01.45.46l.2 2.29c.36 4.35.74 8.84 1.47 13.16a8.58 8.58 0 001.61 4.19c.19.29 1.65 1.64 2.62 2.54 1.78 1.64 1.78 1.64 1.76 1.94-.56 7.61-.58 15.5-.61 23.13 0 3.72 0 7.56-.09 11.32a.46.46 0 010 .2c-.33 1.47-2.73 9.86-13.65 13a15.85 15.85 0 01-4.4.66zm-12.94-9c.68 1.19 6.37 10.44 17.07 7.4 10.89-3.1 12.84-11.67 13-12.27.07-3.75.08-7.58.09-11.28 0-7.58.05-15.41.6-23-.25-.25-.87-.83-1.43-1.34A33 33 0 01218 94a9.6 9.6 0 01-1.76-4.57c-.74-4.37-1.11-8.88-1.48-13.24l-.16-1.88-1.88-.17a.49.49 0 01-.38-.24 2.49 2.49 0 01-.15-.28 26 26 0 01-9.85 7c-3 1.2-5.46 1.43-7.55.68a.5.5 0 01-.3-.3.48.48 0 010-.42 24.1 24.1 0 002.52-6 53.9 53.9 0 01-9.54 8.07c-2.18 1.44-3.48 1-4.26.78a1.23 1.23 0 00-.39-.09 6.84 6.84 0 00-.4 2c-.68 5.16-.78 18.94.31 24.51 1.69 8.55 8 8.63 8.3 8.6a.49.49 0 01.36.15.51.51 0 01.15.35z" fill="#231f20"/><path d="M216.75 106.37a9.48 9.48 0 007.23-.14 10.14 10.14 0 005.7-8.12 8.59 8.59 0 00-.18-3.81 4.44 4.44 0 00-2.42-2.84c-1.42-.6-3-.22-4.54.17-2.23.57-2.5 1.71-4 3.14.16-.12.35-.54.51-.66" fill="#fff"/><path d="M220.19 107.52a9.82 9.82 0 01-3.62-.69.5.5 0 11.37-.92 8.93 8.93 0 006.83-.14 9.6 9.6 0 005.41-7.77 8 8 0 00-.15-3.59 4 4 0 00-2.14-2.53c-1.23-.52-2.64-.22-4.22.19a4.57 4.57 0 00-2.67 1.86c-.3.34-.63.73-1.07 1.15l-.1.09a.5.5 0 01-.65-.76h.05l.13-.19a1.87 1.87 0 01.37-.46.55.55 0 01.22-.1l.29-.33a5.48 5.48 0 013.19-2.14c1.35-.35 3.21-.83 4.86-.14a5 5 0 012.7 3.15 9 9 0 01.19 4 10.6 10.6 0 01-6 8.51 10 10 0 01-3.99.81zM191 129.24s7.62 1 12.63-4.26 4.42-9.42 4.42-9.42-9.19 4.6-17 3.36z" fill="#231f20"/><path d="M192.57 129.82a14.06 14.06 0 01-1.59-.08.49.49 0 01-.43-.5v-10.32a.5.5 0 01.17-.38.49.49 0 01.4-.11c7.56 1.2 16.61-3.27 16.7-3.32a.5.5 0 01.46 0 .48.48 0 01.26.37c0 .18.54 4.49-4.57 9.84-3.72 3.95-8.84 4.5-11.4 4.5zm-1-1c1.66.09 7.67.13 11.77-4.15 3.57-3.73 4.2-6.93 4.29-8.3-2.27 1-9.46 4-16 3.15z" fill="#231f20"/><path d="M195.42 91.73s-5.6 9.62-4 11.13 5.62.19 5.62.19" fill="#fff"/><path d="M193.8 104.09a3.9 3.9 0 01-2.76-.87c-1.72-1.65 2.59-9.41 4-11.74a.5.5 0 11.86.5c-2.61 4.48-4.88 9.78-4.12 10.52 1.11 1.07 4.07.42 5.12.08a.5.5 0 01.31 1 11.94 11.94 0 01-3.41.51z" fill="#231f20"/><ellipse cx="204.32" cy="91.82" rx="2.16" ry="1.53" transform="rotate(-89.29 204.31 91.824)" fill="#231f20"/><ellipse cx="187.8" cy="92.4" rx="2.16" ry="1.53" transform="rotate(-88.99 187.797 92.401)" fill="#231f20"/><path d="M202.13 105.57c-2.52 2.07-7.53 2.77-14.3 2 0 0-.18 9 6.34 8.57s7.96-10.57 7.96-10.57z" fill="#231f20"/><path d="M193.7 116.64a5.25 5.25 0 01-3.78-1.45c-2.66-2.53-2.59-7.44-2.59-7.64a.56.56 0 01.17-.37.5.5 0 01.39-.12c6.58.76 11.52.1 13.93-1.88a.5.5 0 01.81.46c-.06.43-1.58 10.51-8.42 11zm-5.36-8.53c.07 1.3.41 4.6 2.27 6.36a4.45 4.45 0 003.52 1.16c4.76-.33 6.68-6.37 7.28-9-2.75 1.6-7.22 2.1-13.07 1.48zm12.43-17.52l7.47-2.77m-7.47 3.27a.5.5 0 01-.18-1l7.47-2.78a.5.5 0 11.35.94l-7.47 2.77zm-10.59-.91l-4.65-1.37m4.65 1.87h-.14l-4.65-1.37a.5.5 0 01.28-1l4.65 1.37a.5.5 0 01-.14 1z" fill="#231f20"/><path d="M233.92 80.5c-.26-.57-52.74-2.91-52.74-2.91s-1.45-12.94 6.18-21.05 29.3-5.35 38.77 2.15 7.79 21.81 7.79 21.81z" fill="#fff"/><path d="M233.92 81a.48.48 0 01-.24-.06c-1.83-.45-32.32-2-52.52-2.85a.49.49 0 01-.47-.45c-.06-.53-1.39-13.26 6.3-21.44 3.6-3.83 10.56-5.63 19.1-4.94 7.88.64 15.68 3.34 20.35 7 9.58 7.59 8 22.11 8 22.26a.5.5 0 01-.44.48zm-52.27-3.89c39.44 1.76 49.29 2.46 51.81 2.86.18-2.5.55-14.4-7.64-20.89-9.51-7.53-30.82-9.94-38.1-2.2-6.61 7.03-6.23 17.95-6.07 20.23z" fill="#231f20"/><path d="M181.18 77.59S165.65 80 165.76 85s38 7.14 54.4-5.46z" fill="#fff"/><path d="M183.63 89.38c-7.38 0-13.56-.91-16.42-2.28-1.28-.61-1.93-1.33-2-2.14-.12-5.26 14.21-7.62 15.85-7.87a.34.34 0 01.1 0l39 1.91a.47.47 0 01.45.34.52.52 0 01-.17.55c-9.08 6.99-24.58 9.49-36.81 9.49zm-2.42-11.29c-4.24.66-15 3.14-15 6.85 0 .38.51.84 1.38 1.25 7.27 3.49 36.33 3.89 51.08-6.27zm22.94 110.43a4.81 4.81 0 01-2.61-.8c-8.59-5.49-11.09-38.83-11-50.35a.5.5 0 01.5-.5.5.5 0 01.49.51c-.07 14.39 3.05 44.69 10.57 49.5a3.82 3.82 0 003.93.19c11.16-5.24 15.5-54.2 15.54-54.69a.5.5 0 111 .08c-.18 2-4.44 50-16.11 55.52a5.42 5.42 0 01-2.31.54z" fill="#231f20"/><path d="M199.87 205.74l-3.57-1.1s-1-6.74-.39-11.44 2.82-7.07 3.87-7.87 6.37.36 6.37.36-4 5.46-4.37 9.29-1.91 10.76-1.91 10.76z" fill="#fff"/><path d="M199.87 206.26a.4.4 0 01-.15 0l-3.58-1.1a.51.51 0 01-.36-.41 50.62 50.62 0 01-.38-11.58c.7-5.3 3.29-7.63 4.06-8.22 1.16-.87 5.49 0 6.8.26a.52.52 0 01.37.32.51.51 0 01-.07.49s-3.93 5.4-4.27 9c-.36 3.83-1.85 10.54-1.92 10.82a.55.55 0 01-.24.34.59.59 0 01-.26.08zm-3.11-2l2.73.83c.36-1.7 1.48-7 1.77-10.14s2.93-7.32 4-8.91c-2.26-.43-4.7-.65-5.18-.29s-3 2.51-3.67 7.53a48.88 48.88 0 00.35 10.97z" fill="#231f20"/><path d="M209.94 189.47c-.39-2.1-3.05-5.69-7.29-2.58s-2.78 18.85-2.78 18.85l2.76-.82.43-7.68s8.33.1 6.88-7.77z" fill="#fff"/><path d="M199.87 206.26a.52.52 0 01-.29-.09.5.5 0 01-.22-.38c-.06-.66-1.43-16.07 3-19.32 2.19-1.61 3.91-1.45 5-1a5.48 5.48 0 013.11 3.94 6.77 6.77 0 01-1.16 5.84c-1.73 2.05-4.58 2.44-5.73 2.52l-.4 7.21a.54.54 0 01-.37.47l-2.76.82zm5.95-20.07a4.93 4.93 0 00-2.82 1.11c-3.13 2.3-3 13.06-2.63 17.77l1.81-.54.4-7.32a.52.52 0 01.52-.49s3.59 0 5.43-2.17a5.8 5.8 0 00.94-5 4.5 4.5 0 00-2.47-3.15 3.14 3.14 0 00-1.18-.21zm-9.91 7.01l2.54.14-.16 2.83-2.6-.14.22-2.83z" fill="#231f20"/><path d="M198.29 196.69l-2.59-.15a.51.51 0 01-.49-.55l.22-2.83a.49.49 0 01.54-.47l2.54.14a.51.51 0 01.48.54l-.15 2.83a.52.52 0 01-.55.49zm-2-1.15l1.56.09.1-1.8-1.52-.08z" fill="#231f20"/><path d="M125.89 114.71c2 6.37 14.22 36.9 17.71 46.1s6.62 22.64-1.7 30.31c-3.73 3.44-9.67 4.64-14.06 2.09a15.85 15.85 0 01-4.72-4.65C111.94 173 109.74 119 107.67 110.09c0 0 13.37-11.23 15.49-11.41s2.73 16.03 2.73 16.03z" fill="#fff"/><path d="M133.14 195.08a11 11 0 01-5.55-1.44 16.52 16.52 0 01-4.88-4.79c-8.36-11.68-11.73-44.56-13.75-64.2-.7-6.81-1.25-12.18-1.78-14.44a.5.5 0 01.17-.5c2.25-1.9 13.6-11.35 15.76-11.53a1 1 0 01.75.27c1.86 1.65 2.43 13.6 2.53 16.17 1.38 4.36 7.33 19.52 12.11 31.71 2.37 6.06 4.43 11.29 5.57 14.3 5.37 14.14 4.73 24.81-1.83 30.86a13.59 13.59 0 01-9.1 3.59zm-24.92-84.8c.53 2.47 1.06 7.71 1.74 14.27 2 19.54 5.36 52.25 13.56 63.72a15.82 15.82 0 004.57 4.51c4 2.33 9.67 1.47 13.47-2 7.88-7.26 5.21-20.19 1.57-29.76-1.14-3-3.19-8.24-5.56-14.3-4.81-12.26-10.8-27.53-12.15-31.83a.31.31 0 010-.13c-.27-7.13-1.2-15.1-2.23-15.56-1.4.09-9.82 6.8-14.97 11.08z" fill="#231f20"/><path d="M142 98s-2 5-5.11 6-10.2-2.15-11-1.68-18.36 14.95-20 15.44S100.64 114 99 109c0 0 17.16-12.89 18.26-14.23s2.12-9 3.71-11.92z" fill="#fff"/><path d="M105.59 118.23c-2.14 0-5.49-4.23-7-9.08a.51.51 0 01.18-.55c6.88-5.17 17.4-13.2 18.17-14.15.46-.55 1-2.77 1.51-4.91a33.8 33.8 0 012.15-6.93.49.49 0 01.33-.25.51.51 0 01.4.08l21 15.12a.52.52 0 01.17.59c-.09.22-2.11 5.22-5.43 6.27-2.09.65-5.64-.35-8.23-1.08a13.49 13.49 0 00-2.7-.62c-.16.11-2 1.58-4.11 3.28-7.75 6.22-14.81 11.84-16 12.18a1.4 1.4 0 01-.44.05zm-6-9c1.65 4.87 4.88 8.38 6.11 8s10.93-8.21 15.66-12c2.71-2.18 4-3.23 4.27-3.38.46-.28 1.33-.06 3.43.54 2.47.69 5.85 1.65 7.66 1.08 2.4-.75 4.14-4.2 4.64-5.32L121.18 83.6a40 40 0 00-1.81 6.18c-.69 2.84-1.14 4.61-1.71 5.31-1.05 1.29-15.32 12.04-18.05 14.09z" fill="#231f20"/><path d="M122.11 87.4a6.54 6.54 0 01-.53 3.8c-.91 1.82-5.22 4.41-5.22 4.41l-3.35-6 5.82-4.63z" fill="#231f20"/><path d="M116.36 96.11h-.13a.55.55 0 01-.31-.25l-3.35-6a.5.5 0 01.13-.63l5.82-4.63a.51.51 0 01.61 0l3.28 2.4a.46.46 0 01.19.3 7 7 0 01-.57 4.12c-1 1.94-5.23 4.51-5.41 4.62a.48.48 0 01-.26.07zm-2.71-6.42l2.89 5.22c1.38-.87 4-2.69 4.6-3.93a6.13 6.13 0 00.51-3.31l-2.81-2.1z" fill="#231f20"/><path d="M103.62 105.52s-1.85-5 1-5.49c0 0 .35-3.64 3.85-2.28 0 0 .73-3.82 3.75-3.19s5.69 7.64 5.38 9.45-2.7.84-3.94-.8c0 0 1.64 2.74.67 3.52-1.44 1.15-3.06-.7-4.39-2 0 0 2 3.19-.71 3.62-2.1.33-4.25-3.83-4.25-3.83z" fill="#fff"/><path d="M109 108.83c-1.84 0-3.5-2.47-4.16-3.6l-.92.69a.46.46 0 01-.44.08.49.49 0 01-.33-.3c-.12-.34-1.19-3.37-.2-5.08a2.16 2.16 0 011.24-1 3.58 3.58 0 011.44-2.29 3 3 0 012.5-.22 5 5 0 011.77-2.61 3 3 0 012.43-.42c3.31.69 6.12 8 5.77 10a1.51 1.51 0 01-1.14 1.34A2.74 2.74 0 01115 105a2 2 0 01-.36 2.09c-1.19.95-2.42.34-3.5-.57a2.22 2.22 0 01-.16 1.14 2 2 0 01-1.67 1.11zm-4-4.83h.11a.53.53 0 01.34.26c.51 1 2.32 3.81 3.72 3.57.73-.12.87-.44.92-.54.31-.68-.31-1.94-.56-2.32a.52.52 0 01.11-.66.5.5 0 01.67 0l.28.28c1.44 1.47 2.53 2.45 3.44 1.72.36-.29-.11-1.76-.78-2.88a.5.5 0 01.83-.55 3.41 3.41 0 002.65 1.56c.15 0 .33-.13.4-.54.27-1.57-2.3-8.31-5-8.88a2.09 2.09 0 00-1.66.28 4.44 4.44 0 00-1.47 2.55.51.51 0 01-.25.34.52.52 0 01-.42 0 2.39 2.39 0 00-2.14 0 2.81 2.81 0 00-1 1.89.5.5 0 01-.41.45 1.19 1.19 0 00-.91.6c-.51.88-.22 2.54.07 3.58l.81-.62a.54.54 0 01.25-.09z" fill="#231f20"/><path d="M116.07 89.68s1.55-3 3.44-.52 4.24 7.22 1.31 7.86-5.4-4.76-4.75-7.34z" fill="#fff"/><path d="M120.33 97.57a3.57 3.57 0 01-2.55-1.25c-1.65-1.7-2.67-4.86-2.19-6.76a.49.49 0 010-.11c.08-.17.88-1.65 2.18-1.76a2.44 2.44 0 012.1 1.17c1.24 1.63 3.39 5.26 2.63 7.32a2.09 2.09 0 01-1.62 1.33 2.88 2.88 0 01-.55.06zm-3.79-7.71a7.5 7.5 0 002 5.76 2.45 2.45 0 002.21.91 1.08 1.08 0 00.89-.7c.5-1.35-.91-4.29-2.49-6.36a1.57 1.57 0 00-1.21-.79c-.65.06-1.21.84-1.4 1.18z" fill="#231f20"/><path d="M126 116.32s1.52-9.38 1.63-11c.18-2.83-.68-7.2-3.19-7.77s-8.18-1-7.14 1.46c1 2.23 5.92 2.43 5.92 2.43s-3.26 3.6-2.58 7" fill="#fff"/><path d="M126 116.82h-.08a.5.5 0 01-.41-.57c0-.09 1.52-9.38 1.62-11 .17-2.74-.7-6.78-2.8-7.26-2.49-.57-5.9-.61-6.57.18 0 .07-.17.21 0 .61.67 1.58 4.19 2.07 5.48 2.12a.52.52 0 01.45.31.5.5 0 01-.09.52s-3.09 3.46-2.47 6.58a.5.5 0 01-.39.59.51.51 0 01-.59-.39c-.53-2.69 1.14-5.4 2.09-6.69-1.59-.18-4.6-.77-5.4-2.65a1.48 1.48 0 01.16-1.64c1.3-1.56 6.29-.8 7.56-.51 2.94.67 3.75 5.44 3.57 8.29-.11 1.68-1.57 10.72-1.63 11.1a.5.5 0 01-.5.41z" fill="#231f20"/><path d="M88.05 82.76s20.4-3 29 1.52a54.18 54.18 0 016.22 3.91c4.7 3.35 9.15 7.18 12.58 9.25 6.79 4.1 13.21 4.75 17.22-2.48 3.44-6.19 1.14-8.95-4.1-14.07-2.59-2.53-8-6.65-12.71-11.29a38.27 38.27 0 01-7.06-8.79c-4.2-7.81-3.66-20.12-3.66-20.12z" fill="#fff"/><path d="M144.75 101c-2.68 0-5.76-1-9.18-3.1a82.24 82.24 0 01-7-5.06c-1.82-1.39-3.69-2.84-5.61-4.21a52.73 52.73 0 00-6.16-3.88c-8.34-4.36-28.48-1.49-28.68-1.46a.5.5 0 01-.51-.26.5.5 0 01.06-.57l37.5-42.07a.5.5 0 01.87.35c0 .12-.45 12.26 3.58 19.86a37.18 37.18 0 007 8.68c2.71 2.66 5.61 5.12 8.17 7.29 1.84 1.56 3.44 2.91 4.54 4 5.25 5.14 7.82 8.12 4.19 14.67-1.64 3-3.77 4.79-6.34 5.47a9.39 9.39 0 01-2.43.29zm-42.83-19.71c5.57 0 11.54.56 15.34 2.55a52.53 52.53 0 016.28 4c1.94 1.38 3.82 2.83 5.64 4.23a84.22 84.22 0 006.9 5c4.25 2.57 7.89 3.48 10.82 2.69 2.29-.61 4.22-2.29 5.71-5 3.3-5.93 1.16-8.41-4-13.46-1.08-1.06-2.66-2.4-4.49-4-2.57-2.18-5.48-4.65-8.22-7.34a38 38 0 01-7.17-8.96c-3.38-6.35-3.73-15.53-3.73-19L89.31 82.09a109.76 109.76 0 0112.61-.8z" fill="#231f20"/><path d="M122.11 87.4c4.7 3.34 10.41 7.8 13.72 10 7.55 5.13 12.2 5.49 16.66-1.48 4.59-7.16 1.7-9.95-3.54-15.07-2.59-2.53-8-6.65-12.71-11.29 0 0-.06 5.05-4.78 11.41a17.47 17.47 0 01-9.35 6.43z" fill="#231f20"/><path d="M145 101.75c-2.53 0-5.51-1.25-9.42-3.9-1.79-1.21-4.27-3.07-6.91-5-2.28-1.7-4.64-3.46-6.81-5a.51.51 0 01-.2-.51.49.49 0 01.39-.39 17.09 17.09 0 009-6.2c4.55-6.13 4.68-11.06 4.68-11.11a.5.5 0 01.31-.46.52.52 0 01.54.11c2.71 2.66 5.61 5.12 8.17 7.29 1.84 1.56 3.44 2.91 4.54 4 5.26 5.15 8.41 8.22 3.62 15.7-2 3.17-4.1 4.88-6.5 5.37a7.09 7.09 0 01-1.41.1zm-21.76-14.16c1.94 1.4 4 2.93 6 4.42 2.62 2 5.1 3.82 6.88 5 4.43 3 7.55 4.12 10.1 3.59 2.13-.43 4-2 5.86-4.93 4.36-6.79 1.76-9.33-3.41-14.38-1.14-1.12-2.72-2.46-4.55-4-2.34-2-5-4.2-7.48-6.61a23.92 23.92 0 01-4.77 10.61 18.18 18.18 0 01-8.63 6.3z" fill="#231f20"/><path d="M82.28 81.28c4.78 3.92 14.74 0 24.31-8.8a73.5 73.5 0 0012.51-15.26c6.82-11.22 8.7-21.79 3.9-25.72-6-4.87-19.9 2.33-31.15 16.07s-15.53 28.84-9.57 33.71z" fill="#2b2c28"/><path d="M118.23 30a7.32 7.32 0 014.77 1.5c4.81 3.93 2.93 14.54-3.89 25.72a73.5 73.5 0 01-12.51 15.26C99.54 79 92.28 82.81 87 82.81a7.27 7.27 0 01-4.76-1.53c-6-4.87-1.67-20 9.57-33.71C100.71 36.74 111.25 30 118.23 30m0-1c-7.45 0-18.36 7.21-27.15 18-5.52 6.69-9.58 14-11.43 20.48-1.92 6.78-1.21 12 2 14.58A8.3 8.3 0 0087 83.81c5.56 0 12.93-3.87 20.23-10.6a72.87 72.87 0 006.92-7.37 72.29 72.29 0 005.76-8.1c7.31-12 8.79-22.83 3.67-27a8.27 8.27 0 00-5.35-1.74z" fill="#231f20"/><path d="M97.94 62.61l8.65 9.87a73.5 73.5 0 0012.51-15.26l-12.17-6.73z" fill="#fff"/><ellipse cx="102.46" cy="56.57" rx="7.54" ry="3.51" transform="rotate(-53.21 102.468 56.568)" fill="#231f20"/><path d="M99.1 63.46a2.32 2.32 0 01-1.45-.46c-.92-.68-1.22-2-.86-3.76a13.57 13.57 0 012.46-5.08c2.7-3.61 6.22-5.38 8-4 .92.68 1.22 2 .86 3.75a13.53 13.53 0 01-2.44 5.09c-2.09 2.77-4.67 4.46-6.57 4.46zm1-8.69a12.59 12.59 0 00-2.28 4.69c-.28 1.32-.1 2.32.48 2.75 1.13.85 4.14-.51 6.62-3.83a12.59 12.59 0 002.28-4.69c.28-1.32.1-2.32-.48-2.75-1.13-.86-4.14.51-6.62 3.83zm9.9 50.42a.48.48 0 01-.42-.23 14.41 14.41 0 00-2.65-2.95.5.5 0 01-.09-.7.51.51 0 01.7-.1 14.53 14.53 0 012.87 3.21.49.49 0 01-.14.69.53.53 0 01-.27.08zm3.67-1.48a.49.49 0 01-.48-.38 7 7 0 00-2.68-3.58.5.5 0 01.56-.83 7.86 7.86 0 013.09 4.17.51.51 0 01-.37.6zM105 105a.48.48 0 01-.39-.19l-.9-1.15a.5.5 0 01.09-.7.5.5 0 01.7.08l.9 1.15a.51.51 0 01-.09.71.5.5 0 01-.31.1z" fill="#231f20"/><path d="M145.83 80.79a.49.49 0 01-.32-.12l-6.89-5.79a.5.5 0 01.65-.77l6.88 5.8a.48.48 0 01.06.7.48.48 0 01-.38.18zm-.83 1.52a.49.49 0 01-.32-.12l-6.89-5.79a.5.5 0 01.65-.77l6.88 5.8a.5.5 0 01-.32.88zm-1 1.75a.49.49 0 01-.32-.12l-6.89-5.79a.5.5 0 01.65-.77l6.88 5.8a.5.5 0 01-.32.88z" fill="#fff"/><path d="M164 233.29a.49.49 0 01-.45-.54l8.3-89.75a.5.5 0 111 .1l-8.36 89.72a.49.49 0 01-.49.47z" fill="#231f20"/><path fill="#fff" d="M294.76 266.69l25.65-56.94-78.46-34.44-25.64 56.94 78.45 34.44z"/><path d="M294.76 267.2a.52.52 0 01-.21 0l-78.45-34.48a.51.51 0 01-.28-.28.55.55 0 010-.4l25.65-56.94a.53.53 0 01.68-.26l78.45 34.44a.51.51 0 01.27.68l-25.64 56.94a.5.5 0 01-.47.3zM217 232l77.51 34 25.22-56-77.51-34z" fill="#231f20"/><path d="M232.55 214.52l6.94-15.42a7.06 7.06 0 00-3.94-9.24l-1.89-.83L221.07 217l1.89.83a7.23 7.23 0 009.59-3.31z" fill="#fff"/><path d="M226.12 219a8.43 8.43 0 01-3.37-.71l-1.89-.83a.53.53 0 01-.28-.29.55.55 0 010-.4l12.58-28a.52.52 0 01.68-.26l1.9.83a8.15 8.15 0 014.33 4.46 7 7 0 01-.13 5.46L233 214.73a7.46 7.46 0 01-6.88 4.27zm-4.37-2.28l1.42.62a6.72 6.72 0 008.91-3l6.92-15.45a6 6 0 00.1-4.67 7 7 0 00-3.78-3.88l-1.42-.63zm10.8-2.2z" fill="#231f20"/><path d="M290.85 258.59a.45.45 0 01-.2 0l-59.09-25.67a.5.5 0 01-.27-.28.5.5 0 010-.38l20.35-45.16a.51.51 0 01.66-.25l58 25.74a.49.49 0 01.25.65l-19.27 45.09a.53.53 0 01-.28.27zm-58.42-26.42l58.16 25.26 18.88-44.17-57.1-25.33z" fill="#d1d3d4"/><path d="M239.37 236.23a.71.71 0 01-.2 0 .51.51 0 01-.26-.66l19.76-45.35a.5.5 0 11.92.4l-19.76 45.35a.5.5 0 01-.46.26z" fill="#d1d3d4"/><path d="M294.66 250.06a.46.46 0 01-.2-.05l-58.91-26a.5.5 0 01.41-.92l58.9 26a.51.51 0 01.26.66.5.5 0 01-.46.31z" fill="#d1d3d4"/><path d="M288.78 225.66c-3 10.3-10.66 30.46-14.44 32.07s-16.16-3.22-18.81-5.46 10.35-11.36 10.35-11.36-6.12 0-7.16-3.15 11.1-3.62 11.1-3.62c1.7-1 1.2-10.94 1.3-12.61.54-8.45.93-16.91 1.3-25.37.43-9.75.68-20 2.42-29.62 1-5.73 3-11.78 7.72-15.18a8.71 8.71 0 014.39-1.74c5.37-.38 10.21 4.37 12.22 8.91 1.95 4.39 2.22 9.32 2.15 14.12-.32 19.05-7.43 35.16-12.54 53.01z" fill="#fff"/><path d="M272.31 258.55c-5.26 0-14.79-3.94-17.1-5.9a1.5 1.5 0 01-.54-1.26c.13-2.72 6.91-8 9.77-10.07-2-.2-5.38-.92-6.19-3.41a1.57 1.57 0 01.21-1.45c1.58-2.26 9.67-2.74 11.18-2.81 1-1 1-7.86 1-10.17v-2c.54-8.44.92-16.82 1.3-25.36l.15-3.43c.36-8.72.74-17.74 2.28-26.26.87-4.83 2.65-11.7 7.92-15.5a9 9 0 014.64-1.83c5.52-.37 10.56 4.34 12.72 9.2 2.05 4.63 2.26 9.85 2.19 14.34-.23 14.38-4.25 26.86-8.51 40.07-1.37 4.24-2.78 8.63-4.05 13.06-2.43 8.47-10.37 30.55-14.72 32.4a5.82 5.82 0 01-2.25.38zm-6.43-18.14a.51.51 0 01.48.34.52.52 0 01-.19.57c-4 2.8-10.4 8-10.5 10.12a.49.49 0 00.18.44c2.77 2.35 14.86 6.85 18.3 5.39 3.28-1.4 10.84-20.23 14.14-31.75l.49.14-.49-.14c1.28-4.45 2.7-8.85 4.07-13.09 4.23-13.14 8.24-25.55 8.46-39.79.06-4.38-.13-9.46-2.1-13.91s-6.7-9-11.74-8.61a8 8 0 00-4.12 1.65c-5 3.58-6.68 10.19-7.53 14.86-1.53 8.45-1.9 17.44-2.26 26.12l-.15 3.43c-.38 8.55-.76 16.93-1.3 25.38v1.91c0 6.43-.2 10.31-1.54 11.1a.48.48 0 01-.23.07c-3.54.15-9.54.92-10.56 2.39a.59.59 0 00-.08.57c.91 2.78 6.54 2.81 6.68 2.81z" fill="#231f20"/><path d="M227.84 118c39.1 10.37 61.8 27 67.44 33l-23.08 29.68-35.2-15.94z" fill="#2b2c28"/><path d="M272.2 181.14a.54.54 0 01-.21 0l-28.91-14.31a.46.46 0 11.4-.82l28.92 14.31a.46.46 0 01.21.61.47.47 0 01-.41.21z" fill="#231f20"/></svg>