<?xml version="1.0" standalone="no"?><svg xmlns="http://www.w3.org/2000/svg" viewBox="0 0 1440 320"><path fill="#2b2c28" fill-opacity="1" d="M0,128L30,149.3C60,171,120,213,180,202.7C240,192,300,128,360,90.7C420,53,480,43,540,80C600,117,660,203,720,213.3C780,224,840,160,900,149.3C960,139,1020,181,1080,170.7C1140,160,1200,96,1260,69.3C1320,43,1380,53,1410,58.7L1440,64L1440,320L1410,320C1380,320,1320,320,1260,320C1200,320,1140,320,1080,320C1020,320,960,320,900,320C840,320,780,320,720,320C660,320,600,320,540,320C480,320,420,320,360,320C300,320,240,320,180,320C120,320,60,320,30,320L0,320Z"></path></svg>