<svg xmlns="http://www.w3.org/2000/svg" viewBox="0 0 400 300"><g id="_508_team_work_flatline" data-name="#508_team_work_flatline"><ellipse cx="142.54" cy="262.63" rx="36.7" ry="4.93" fill="#e6e7e8"/><ellipse cx="301.93" cy="262.63" rx="36.7" ry="4.93" fill="#e6e7e8"/><path d="M140.47,245.94s6.38,19.52,7.51,19.15,23.84-13.52,23.09-15.77-16.52,2.44-16.52,2.44L151,241.25" fill="#fff"/><path d="M148,265.59a.63.63,0,0,1-.3-.07c-1.41-.71-5.82-13.82-7.65-19.42a.5.5,0,0,1,.32-.64.51.51,0,0,1,.63.33c2.72,8.32,6.05,17.49,7.07,18.74,3.09-1.32,22.43-13.14,22.56-15.1-.27-.8-7.13.2-15.89,2.81a.52.52,0,0,1-.62-.32l-3.56-10.51a.51.51,0,0,1,.31-.64.52.52,0,0,1,.64.32l3.41,10c14.23-4.19,16.4-2.79,16.67-2,.2.59.61,1.81-11,9.17-5.72,3.61-11.71,7-12.35,7.23A.63.63,0,0,1,148,265.59Z" fill="#231f20"/><path d="M113.44,213.28s-13.14.19-13.51,1.31-4.32,22-.75,20.28,9.38-13.52,9.38-13.52l6.57-1Z" fill="#fff"/><path d="M98.79,235.46a1.13,1.13,0,0,1-.74-.28c-2.45-2.18,1.16-20,1.4-20.75.12-.36.49-1.46,14-1.65a.55.55,0,0,1,.5.38l1.69,7.05a.53.53,0,0,1-.07.39.49.49,0,0,1-.34.22l-6.32,1c-.86,1.73-6.06,11.89-9.5,13.52A1.44,1.44,0,0,1,98.79,235.46Zm1.59-20.63c-.53,1.83-3.37,18.09-1.66,19.6,0,0,.07.07.24,0,2.8-1.32,7.55-10,9.15-13.28a.47.47,0,0,1,.37-.27l6-1-1.47-6.12C107.35,213.88,101.22,214.29,100.38,214.83Zm0,0Z" fill="#231f20"/><path d="M188.21,59.5l5.62-3.22S195.41,51.22,197,50s3.78.44,3.78.44,5.81-4.85,7.21-4.69-.45,2.64-1.88,3.89l-3,2.63s2.63,5.36,1.11,7.47-13.76,8.63-13.76,8.63Z" fill="#fff"/><path d="M190.44,68.86a.78.78,0,0,1-.21,0,.53.53,0,0,1-.28-.34l-2.22-8.86a.49.49,0,0,1,.23-.55L193.41,56c.34-1,1.74-5.16,3.25-6.36s3.31-.25,4.06.21c1.66-1.37,5.89-4.71,7.29-4.56a1,1,0,0,1,.9.68c.38,1.21-1.73,3.41-2.49,4.09l-2.72,2.38c.61,1.32,2.37,5.6.9,7.64s-12.67,8.1-13.93,8.77A.46.46,0,0,1,190.44,68.86Zm-1.65-9.11,2,7.87c3.71-2,11.89-6.61,13-8.18s-.46-5.54-1.15-7a.51.51,0,0,1,.12-.6l3-2.62c1.35-1.19,2.3-2.69,2.2-3-.77-.07-4.17,2.34-6.88,4.6a.5.5,0,0,1-.62,0s-1.93-1.43-3.17-.45-2.55,4.68-3,6a.55.55,0,0,1-.23.29Z" fill="#231f20"/><path d="M120.14,92.44C124.54,94.9,188,57.85,188,57.85l9.45,9.78-64.25,46.54Z" fill="#2b2c28"/><path d="M141.52,91.82s-37.75,0-47.48,7.75c-7.21,5.74-8.57,45.76-8.57,45.76l72.08-5.62S161.69,97.52,141.52,91.82Z" fill="#2b2c28"/><path d="M147,115.19a.46.46,0,0,1-.46-.46V95.1a.46.46,0,0,1,.92,0v19.63A.46.46,0,0,1,147,115.19Z" fill="#231f20"/><path d="M228.73,197.58c-.62-.49-23-2.78-24.39-2.35s-7,18.93-6.89,20.51c.18,3.16,12.54-9.5,12.54-9.5L228.73,210" fill="#fff"/><path d="M197.85,216.73a.73.73,0,0,1-.3,0,.93.93,0,0,1-.6-.91c-.07-1.18,5.31-20.41,7.25-21,1.46-.45,24,1.76,24.84,2.44a.5.5,0,0,1,.08.7.5.5,0,0,1-.65.12c-1.57-.59-22.72-2.63-24-2.3-1.2.92-6.64,18.45-6.54,20,1,.31,6.86-4.89,11.68-9.82a.49.49,0,0,1,.46-.14l18.73,3.73a.51.51,0,0,1,.4.59.5.5,0,0,1-.59.39l-18.47-3.68C207,210,200.14,216.73,197.85,216.73Z" fill="#231f20"/><path d="M311.64,242.12c0,.65,6.09,20.19,7.87,20.5s26.86-7.6,24.79-9-13.42-.37-13.42-.37L324.83,237" fill="#fff"/><path d="M319.52,263.12h-.1c-2.36-.42-8.27-20.77-8.28-21a.5.5,0,0,1,1-.08c.28,1.77,6,19.29,7.51,20.07.67.09,5.92-1.32,12.41-3.47,7-2.33,10.85-4,11.72-4.75-1.87-.79-8.58-.54-12.85-.16a.49.49,0,0,1-.51-.32l-6-16.23a.5.5,0,1,1,.93-.35l5.91,15.87c2.23-.18,11.37-.85,13.37.49a.71.71,0,0,1,.28.89C343.88,256.55,321.65,263.12,319.52,263.12Z" fill="#231f20"/><path d="M285.25,148.71s-9.88,74.11-20,71.85-50.61-10.87-50.61-10.87l3.66-16s28.81,3.06,32.65,3.34,1.14-51.69,1.14-51.69Z" fill="#231f20"/><path d="M265.69,221.11a2.76,2.76,0,0,1-.57-.06c-10-2.22-50.2-10.79-50.6-10.87a.52.52,0,0,1-.32-.22.51.51,0,0,1-.07-.38l3.66-16a.52.52,0,0,1,.54-.39c.29,0,28.85,3.07,32.64,3.34,2-1,1.87-26.79.61-51.17a.46.46,0,0,1,.15-.38.5.5,0,0,1,.4-.14l33.17,3.38a.49.49,0,0,1,.35.19.49.49,0,0,1,.1.37c-.35,2.66-8.78,65.1-18.26,71.72A3.18,3.18,0,0,1,265.69,221.11Zm-50.47-11.8c4.67,1,40.71,8.67,50.12,10.77a2,2,0,0,0,1.58-.41c8.68-6.07,16.93-64.41,17.77-70.52l-32.09-3.26c.36,7.09,2.29,48.17-.93,51.32a1,1,0,0,1-.78.31c-3.54-.26-28.57-2.91-32.22-3.3Z" fill="#231f20"/><polygon points="276.25 154.52 311.01 252.85 330.55 242.37 300.6 148.71 276.25 154.52" fill="#231f20"/><path d="M311,253.35a.48.48,0,0,1-.18,0,.5.5,0,0,1-.3-.3l-34.75-98.33a.53.53,0,0,1,0-.41.56.56,0,0,1,.33-.25l24.34-5.81a.49.49,0,0,1,.59.34l30,93.66a.5.5,0,0,1-.24.59l-19.55,10.48A.46.46,0,0,1,311,253.35Zm-34.1-98.47,34.37,97.26,18.67-10L300.26,149.3Z" fill="#231f20"/><path d="M304.82,109.58l12.17-4c-.56-.82-6.7-19.68-14-23.27-6.37-4.22-18.14-3.42-31.46-2.49a41.05,41.05,0,0,0-12.49,2.6c-15,6-17.16,25.75-17.16,25.75L255.73,113s-2.24,26.87-4.35,40.92c0,0,16.88,6.4,54.61.15C306,154,304.89,113.55,304.82,109.58Z" fill="#2b2c28"/><polygon points="289.01 87.41 275.5 118.24 272.19 88.5 289.01 87.41" fill="#231f20"/><path d="M275.5,118.74h-.07a.5.5,0,0,1-.42-.44L271.7,88.55a.54.54,0,0,1,.11-.37.5.5,0,0,1,.35-.18L289,86.91a.52.52,0,0,1,.44.21.5.5,0,0,1,.05.49L276,118.44A.51.51,0,0,1,275.5,118.74ZM272.75,89l3,27.38L288.23,88Z" fill="#231f20"/><path d="M296.07,48.62a13,13,0,0,0-13.77-3.78c-4.28,1.38-8.18,3.77-12.47,5.14s-9.35,1.55-12.9-1.21a7.24,7.24,0,0,0,8.35,7c-.16,1-1.52,1.15-2.49.94s-2.21-.45-2.81.35a2,2,0,0,0-.13,1.78c.73,2.41,2.93,4,5,5.46,3,2.07,6,2.5,9.06,3.93,3.24,1.53,5.66,3.65,9.38,4.17a13.5,13.5,0,0,0,9.6-2.36c1.75-1.24,5.31-2.93,4.61-5.59-.34-1.26,1.88-3.66,2-5.51A13.52,13.52,0,0,0,296.07,48.62Z" fill="#fff"/><path d="M285,73a12.28,12.28,0,0,1-1.82-.13,18.26,18.26,0,0,1-6.71-2.7c-.89-.52-1.82-1-2.82-1.52a31.34,31.34,0,0,0-3.38-1.31,22.4,22.4,0,0,1-5.75-2.66c-2.31-1.6-4.44-3.24-5.19-5.72a2.47,2.47,0,0,1,.21-2.23A2.37,2.37,0,0,1,261.9,56a8.2,8.2,0,0,1-2.7-1.5,7.38,7.38,0,0,1-2.77-5.79.49.49,0,0,1,.28-.44.51.51,0,0,1,.52.06c4.21,3.27,10.11,1.88,12.45,1.13A54.31,54.31,0,0,0,275.89,47a55.57,55.57,0,0,1,6.26-2.58,13.48,13.48,0,0,1,14.29,3.91h0A14,14,0,0,1,300,59a8.38,8.38,0,0,1-1.18,3c-.47.86-1,1.84-.87,2.31.68,2.58-1.94,4.27-3.85,5.5-.34.22-.67.43-.95.63A14.25,14.25,0,0,1,285,73ZM261.32,57a1.11,1.11,0,0,0-.94.35,1.65,1.65,0,0,0-.05,1.34c.65,2.17,2.64,3.69,4.8,5.19a21.15,21.15,0,0,0,5.51,2.53,36.15,36.15,0,0,1,3.48,1.36c1,.48,2,1,2.89,1.55a17.23,17.23,0,0,0,6.35,2.58,13.14,13.14,0,0,0,9.24-2.27c.29-.21.63-.43,1-.66,1.75-1.13,3.92-2.53,3.42-4.4-.22-.86.32-1.87,1-3A8.05,8.05,0,0,0,299,58.89,13,13,0,0,0,295.7,49h0a12.5,12.5,0,0,0-13.24-3.63,53.35,53.35,0,0,0-6.15,2.54,58.58,58.58,0,0,1-6.32,2.6c-4.82,1.54-9.31,1.27-12.5-.7a6.58,6.58,0,0,0,2.35,4,6.37,6.37,0,0,0,5.34,1.5.5.5,0,0,1,.44.13.46.46,0,0,1,.15.44,1.48,1.48,0,0,1-.66,1,3.3,3.3,0,0,1-2.43.32A7.25,7.25,0,0,0,261.32,57Z" fill="#231f20"/><path d="M274.62,79,272.2,88.5s2.69,6.2,9.11,5,7.7-6,7.71-6l1.08-10.23.67-6.29A7.17,7.17,0,0,0,291,69c-.4-1.43-2.19-2.21-2.71-3.69a12.24,12.24,0,0,1,.39-9.08c-2.68,2.16-5.76,4.36-9.2,4.13A16.43,16.43,0,0,0,281.35,58l-6.73,2.4a16.48,16.48,0,0,1-2.68.64c-1,.19-.61-.44-1.37.78-1.88,3-2.14,8.18-1.76,11.63C269.35,78.35,274.62,79,274.62,79Z" fill="#fff"/><path d="M279.66,94.12c-5.49,0-7.9-5.37-7.92-5.42a.47.47,0,0,1,0-.33l2.29-9c-1.43-.35-5.22-1.67-5.69-6-.39-3.51-.13-8.75,1.84-11.95l.05-.09c.47-.75.62-1,1.18-.91a1,1,0,0,0,.47,0,16.14,16.14,0,0,0,2.6-.62l6.73-2.41a.5.5,0,0,1,.56.17.51.51,0,0,1,0,.58,17.9,17.9,0,0,1-1.17,1.58c2.86-.26,5.48-2.18,7.74-4a.5.5,0,0,1,.62,0,.48.48,0,0,1,.15.6,11.79,11.79,0,0,0-.37,8.72A4.72,4.72,0,0,0,290,66.74a5,5,0,0,1,1.47,2.08,3.87,3.87,0,0,1-.11,1.6c0,.2-.07.38-.09.52l-1.75,16.52s-1.3,5.17-8.1,6.49A9.16,9.16,0,0,1,279.66,94.12Zm-6.94-5.67c.46.93,3,5.58,8.49,4.52,6.05-1.17,7.31-5.64,7.32-5.69l1.74-16.44c0-.17.06-.38.1-.61a3.58,3.58,0,0,0,.13-1.14,4.09,4.09,0,0,0-1.22-1.64,5.66,5.66,0,0,1-1.49-2,12.84,12.84,0,0,1-.21-7.78c-2.38,1.79-5.11,3.36-8.15,3.16a.49.49,0,0,1-.43-.32.51.51,0,0,1,.1-.53c.31-.32.61-.65.89-1l-5.21,1.86a15.56,15.56,0,0,1-2.68.65,2.49,2.49,0,0,1-.78,0l-.27.43L271,62c-1.72,2.8-2.09,7.7-1.7,11.32.49,4.49,5.18,5.17,5.38,5.19a.51.51,0,0,1,.35.22.48.48,0,0,1,.07.4Z" fill="#231f20"/><path d="M273.34,84a6.85,6.85,0,0,0,6.2-1.56c2.92-2.57,2.81-4.84,2.81-4.84A10.58,10.58,0,0,1,274.62,79Z" fill="#231f20"/><path d="M275,84.71a6.33,6.33,0,0,1-1.75-.22.5.5,0,0,1-.34-.6l1.27-5a.5.5,0,0,1,.61-.36,10.2,10.2,0,0,0,7.33-1.36.49.49,0,0,1,.77.39c0,.1.09,2.54-3,5.24A7.33,7.33,0,0,1,275,84.71Zm-1-1.07a6.4,6.4,0,0,0,5.26-1.56,7.8,7.8,0,0,0,2.47-3.52,10.71,10.71,0,0,1-6.7,1.07Z" fill="#231f20"/><path d="M278.6,64.06s-3.72,4.68-3,5.61,3,.53,3,.53" fill="#fff"/><path d="M277.53,70.79A3,3,0,0,1,275.2,70c-.79-1,1.2-4,3-6.23a.49.49,0,0,1,.7-.08.5.5,0,0,1,.08.7c-1.73,2.18-3.13,4.53-3,5,.38.49,1.84.43,2.47.32a.51.51,0,0,1,.58.41.5.5,0,0,1-.41.58A8.16,8.16,0,0,1,277.53,70.79Z" fill="#231f20"/><ellipse cx="282.62" cy="64.03" rx="0.82" ry="1.16" transform="translate(-0.27 1.19) rotate(-0.24)" fill="#231f20"/><ellipse cx="274.86" cy="63.45" rx="1.16" ry="0.82" transform="translate(134.29 308.02) rotate(-73.11)" fill="#231f20"/><path d="M277.89,74.5A12.66,12.66,0,0,1,271,72.09a.5.5,0,1,1,.61-.79c.23.18,5.69,4.32,10.41.82a.5.5,0,1,1,.59.8A7.77,7.77,0,0,1,277.89,74.5Z" fill="#231f20"/><path d="M288.24,68.14A4,4,0,0,1,291.12,67a2.79,2.79,0,0,1,2.46,1.74,3.54,3.54,0,0,1-.92,3.31,6.56,6.56,0,0,1-4.82,2.24" fill="#fff"/><path d="M287.84,74.81a.5.5,0,0,1-.5-.5.49.49,0,0,1,.49-.5,6,6,0,0,0,4.45-2.07,3.05,3.05,0,0,0,.82-2.82,2.27,2.27,0,0,0-2-1.4,3.44,3.44,0,0,0-2.51,1,.51.51,0,0,1-.71,0,.5.5,0,0,1,0-.71,4.47,4.47,0,0,1,3.26-1.25,3.3,3.3,0,0,1,2.89,2.07,4,4,0,0,1-1,3.81,7.06,7.06,0,0,1-5.2,2.41Z" fill="#231f20"/><path d="M156.12,166.28s11.35,46.6,3.86,49.84-50.11,9.47-50.11,9.47l-1.93-13.44s32.79-7.18,34.58-8.81-11-41.23-11.3-41.55S156.12,166.28,156.12,166.28Z" fill="#231f20"/><path d="M109.87,226.09a.51.51,0,0,1-.29-.1.5.5,0,0,1-.2-.33l-1.94-13.44a.5.5,0,0,1,.39-.56c12.63-2.76,33.12-7.57,34.35-8.69,1-2.17-10.28-38.61-11.38-40.92a.49.49,0,0,1,0-.51c.23-.44.29-.56,25.43,4.25a.49.49,0,0,1,.39.37c1.18,4.81,11.24,47.1,3.58,50.42-7.47,3.24-48.49,9.25-50.23,9.5Zm-1.37-13.55L110.3,225c4.78-.71,42.57-6.36,49.48-9.36,1.62-.7,3.84-4.95.59-25.59-1.71-10.81-4.2-21.42-4.66-23.36-8.45-1.61-20.58-3.88-23.72-4.35,2.18,5.68,11.31,35.43,11.2,40.3a1.38,1.38,0,0,1-.34,1.05C141.08,205.33,113.47,211.45,108.5,212.54Z" fill="#231f20"/><polygon points="103.77 164.68 139.26 248.51 154.55 245.56 131.32 157.07 103.77 164.68" fill="#231f20"/><path d="M139.26,249a.51.51,0,0,1-.46-.3l-35.49-83.84a.51.51,0,0,1,.33-.68l27.54-7.6a.49.49,0,0,1,.39,0,.52.52,0,0,1,.23.3L155,245.44a.45.45,0,0,1-.06.39.49.49,0,0,1-.33.23L139.36,249Zm-34.8-84,35.1,82.93,14.37-2.77-23-87.48Z" fill="#231f20"/><path d="M116.31,54.77a14.6,14.6,0,0,0-17.36.4,12.68,12.68,0,0,0-4.58,12.67,11.27,11.27,0,0,0,10.37,8.21c4.59.23,9.42-3.7,11.86-7.3C119.55,64.4,121.53,58.37,116.31,54.77Z" fill="#fff"/><path d="M105.13,76.56h-.42A11.73,11.73,0,0,1,93.88,68a13.27,13.27,0,0,1,4.76-13.19,15.06,15.06,0,0,1,18-.41h0C123,58.75,119,66.08,117,69,114.53,72.71,109.79,76.56,105.13,76.56Zm2.67-24a13.72,13.72,0,0,0-8.54,3,12.26,12.26,0,0,0-4.41,12.16,10.71,10.71,0,0,0,9.91,7.83c4.2.19,8.94-3.4,11.43-7.08,1.83-2.71,5.48-9.41-.16-13.28A14.53,14.53,0,0,0,107.8,52.6Z" fill="#231f20"/><path d="M107.08,62.39a12.89,12.89,0,0,0-4.2,11.86,5.13,5.13,0,0,0,1.58,3.15c1.77,1.44,4.45.6,6.35-.66a24.27,24.27,0,0,0,7.39-8.27c1.33-2.32,3.34-7.55-.26-8.84S109.72,60.11,107.08,62.39Z" fill="#231f20"/><path d="M106.72,78.65a4,4,0,0,1-2.58-.86,5.47,5.47,0,0,1-1.75-3.46A13.36,13.36,0,0,1,106.75,62c2.75-2.37,7.67-4.17,11.36-2.85a3.34,3.34,0,0,1,2.1,2c1,2.84-1.3,7.06-1.58,7.53a24.62,24.62,0,0,1-7.54,8.44A8.34,8.34,0,0,1,106.72,78.65Zm8.66-18.93a13.18,13.18,0,0,0-8,3.05,12.37,12.37,0,0,0-4,11.39,4.6,4.6,0,0,0,1.4,2.85c1.57,1.27,4,.47,5.77-.69a23.62,23.62,0,0,0,7.23-8.1c.89-1.56,2.22-4.72,1.5-6.68a2.3,2.3,0,0,0-1.5-1.43A7,7,0,0,0,115.38,59.72Zm-8.3,2.67h0Z" fill="#231f20"/><path d="M125.58,90.77a28.68,28.68,0,0,1-2.49,2.15,11.82,11.82,0,0,1-11.42.29c-8.45-4.35-8.25-14.23-6.5-22.27.71-3.27,3.1-10.09,7.51-6.68-1.29-1,4-4.31,4.81-4.62,5.62-2.29,11.59,1,14.88,5.57a44.05,44.05,0,0,1,4.92,8.41c1.3,3.28-.12,7.78-2,10.57a14.41,14.41,0,0,1-5.82,5c-1.09.51-2.49.64-3.5,1.27Z" fill="#fff"/><path d="M117.21,95a12.57,12.57,0,0,1-5.76-1.39c-7-3.6-9.28-11.27-6.77-22.81.34-1.56,1.67-6.74,4.62-7.82a3.38,3.38,0,0,1,2.82.28c.81-1.72,4.89-4,5.18-4.12,6.07-2.47,12.28,1.24,15.48,5.74a43.57,43.57,0,0,1,5,8.51c1.37,3.44-.08,8.13-2,11a14.82,14.82,0,0,1-6,5.18,10,10,0,0,1-1.62.55,7.76,7.76,0,0,0-1.82.69c-.13.09-.26.18-.38.28h0a10.55,10.55,0,0,0-1,.85,9.76,9.76,0,0,1-1.58,1.33A11.71,11.71,0,0,1,117.21,95Zm-6.83-31.21a2.1,2.1,0,0,0-.74.13c-2,.72-3.37,4.27-4,7.09-2.4,11-.3,18.35,6.24,21.71a11.33,11.33,0,0,0,10.93-.26,9.74,9.74,0,0,0,1.42-1.19,12.94,12.94,0,0,1,1-.93,5,5,0,0,1,.47-.33,7.5,7.5,0,0,1,2.08-.81,9.37,9.37,0,0,0,1.47-.5,13.88,13.88,0,0,0,5.62-4.83c1.78-2.69,3.14-7,1.91-10.11A42.74,42.74,0,0,0,132,65.5c-3-4.19-8.73-7.66-14.29-5.39-1,.4-4.75,3-4.7,3.75h0a.49.49,0,1,1-.6.78A3.36,3.36,0,0,0,110.38,63.83Zm15.2,26.94h0Z" fill="#231f20"/><path d="M131.87,71.82s3.31,7.21,2.51,13a8.32,8.32,0,0,1-5.81,7l.87,10s.5,5.12-5.85,4.88a10.83,10.83,0,0,1-9-5.48L112.3,82.88s6.76-4.71,5.56-11.27C117.86,71.61,126.67,75,131.87,71.82Z" fill="#fff"/><path d="M124,107.21h-.45a11.25,11.25,0,0,1-9.4-5.75,1,1,0,0,1,0-.16l-2.31-18.36a.47.47,0,0,1,.21-.47c.06,0,6.47-4.61,5.35-10.77a.54.54,0,0,1,.17-.48.53.53,0,0,1,.5-.08c.09,0,8.65,3.23,13.57.25a.51.51,0,0,1,.4,0,.49.49,0,0,1,.31.27c.14.3,3.37,7.41,2.56,13.26a8.94,8.94,0,0,1-5.78,7.3l.84,9.62a5.22,5.22,0,0,1-1.3,3.78A6.08,6.08,0,0,1,124,107.21Zm-8.92-6.13a10.25,10.25,0,0,0,8.51,5.13,5.37,5.37,0,0,0,4.29-1.32,4.18,4.18,0,0,0,1-3l-.87-10a.51.51,0,0,1,.38-.53,7.75,7.75,0,0,0,5.43-6.6c.66-4.71-1.54-10.5-2.25-12.21-4.48,2.3-10.93.55-13.16-.17.52,5.72-4.44,9.85-5.64,10.76Z" fill="#231f20"/><path d="M115.66,81.28s-3.71-6.68-6.81-2,2.4,9,5.46,8.36" fill="#fff"/><path d="M113.63,88.22a6.8,6.8,0,0,1-5.18-3,5.35,5.35,0,0,1,0-6.23,3.49,3.49,0,0,1,3-1.89c2.53.1,4.59,3.76,4.68,3.92a.5.5,0,1,1-.88.48c-.51-.92-2.21-3.34-3.84-3.4a2.57,2.57,0,0,0-2.11,1.44,4.34,4.34,0,0,0,0,5.11c1.19,1.72,3.39,2.84,4.93,2.5a.5.5,0,0,1,.22,1A3.47,3.47,0,0,1,113.63,88.22Z" fill="#231f20"/><path d="M128.62,85.69a8.42,8.42,0,0,1-1.39-.12.5.5,0,1,1,.17-1,5.35,5.35,0,0,0,2.79-.19c0-.58-1.49-2.73-3.28-4.72a.49.49,0,0,1,0-.7.5.5,0,0,1,.71,0c.87,1,3.7,4.23,3.51,5.57a.84.84,0,0,1-.39.63A4.18,4.18,0,0,1,128.62,85.69Z" fill="#231f20"/><path d="M126.5,89a6.55,6.55,0,0,1-1-.07,7.34,7.34,0,0,1-4.59-2.58.5.5,0,0,1,.19-.68.51.51,0,0,1,.68.19,6.56,6.56,0,0,0,4,2.1c2,.23,3.88-.57,5.71-2.35a.5.5,0,1,1,.7.71A8.26,8.26,0,0,1,126.5,89Z" fill="#231f20"/><path d="M128.57,91.82s-5.29,1.14-8.43.62c0,0,4,7.6,9.12,7.11Z" fill="#231f20"/><path d="M128.79,100.07c-5.1,0-8.93-7.08-9.09-7.39a.51.51,0,0,1,0-.53.52.52,0,0,1,.49-.2c3,.49,8.19-.61,8.24-.62a.5.5,0,0,1,.41.09.49.49,0,0,1,.2.35l.69,7.73a.5.5,0,0,1-.45.55Zm-7.71-7c1.15,1.82,4.14,6,7.64,6l-.6-6.65A32.16,32.16,0,0,1,121.08,93.05Z" fill="#231f20"/><ellipse cx="123.69" cy="78.6" rx="0.79" ry="1.38" transform="translate(-9.85 18.23) rotate(-8.11)" fill="#231f20"/><ellipse cx="130.9" cy="77.57" rx="0.79" ry="1.38" transform="translate(-9.63 19.23) rotate(-8.11)" fill="#231f20"/><path d="M299.41,109.26,217.57,66.44a4.69,4.69,0,0,0-6.79,5l3.19,18L76.87,113.74a2.9,2.9,0,0,0-2.35,3.37l12.33,69.47a2.9,2.9,0,0,0,3.36,2.35L227.32,164.6l3.19,18a4.69,4.69,0,0,0,8.08,2.33l62.12-68.37A4.7,4.7,0,0,0,299.41,109.26Z" fill="#fff"/><path d="M89.7,189.48a3.41,3.41,0,0,1-1.94-.62,3.36,3.36,0,0,1-1.4-2.19L74,117.19a3.4,3.4,0,0,1,2.76-3.94L213.39,89l-3.1-17.51A5.19,5.19,0,0,1,217.8,66l81.85,42.83h0a5.18,5.18,0,0,1,1.43,8.08L239,185.28a5.19,5.19,0,0,1-8.94-2.59l-3.11-17.51L90.3,189.42A3.05,3.05,0,0,1,89.7,189.48ZM215.38,66.39a4.2,4.2,0,0,0-2.46.82,4.12,4.12,0,0,0-1.65,4.11l3.2,18a.51.51,0,0,1-.41.58L77,114.23a2.45,2.45,0,0,0-1.55,1A2.4,2.4,0,0,0,75,117l12.33,69.47a2.41,2.41,0,0,0,2.79,1.95l137.1-24.33a.51.51,0,0,1,.58.4l3.19,18a4.18,4.18,0,0,0,7.22,2.08l62.12-68.37a4.19,4.19,0,0,0-1.16-6.52L217.33,66.88A4.15,4.15,0,0,0,215.38,66.39Z" fill="#231f20"/><path d="M213.72,83.52c-1.1-.37-2.22-.7-3.34-1a3.63,3.63,0,0,0-2.16-.08c-1,.39-1.51,1.58-1.87,2.63-.53,1.61-1.08,3.33-.62,5,.67,2.38,3.21,3.69,5.59,4.34a8.36,8.36,0,0,0,3.61.32C222,93.45,218.42,85.1,213.72,83.52Z" fill="#fff"/><path d="M213.94,95.3a10.64,10.64,0,0,1-2.75-.43c-1.87-.5-5.13-1.78-5.94-4.68-.52-1.84.12-3.73.63-5.26.39-1.17.92-2.47,2.16-2.94a4,4,0,0,1,2.46.07c1.14.28,2.28.62,3.38,1,3.11,1,5.73,4.83,5.5,7.94-.09,1.3-.79,3.57-4.36,4.22A6.65,6.65,0,0,1,213.94,95.3ZM209,82.83a1.79,1.79,0,0,0-.62.1c-.84.31-1.25,1.36-1.57,2.32-.58,1.71-1,3.24-.62,4.67.68,2.42,3.58,3.54,5.24,4a8,8,0,0,0,3.39.32c2.19-.39,3.41-1.54,3.54-3.31.2-2.65-2.15-6-4.82-6.92h0c-1.08-.36-2.19-.68-3.3-1A4.93,4.93,0,0,0,209,82.83Z" fill="#231f20"/><path d="M89.59,120.13a1.84,1.84,0,0,0,.77-.17c2.55-1.11,2.19-5.82,2.41-8.12.12-1.29.09-2.85-1-3.52-2.46-1.49-5.88-.84-8.11.8s-2.72,4.74-2.47,7.4c.09,1.06.17,3.41,1.13,4.07,1.28.9,2.79-1.58,2.76-2.68l0,.89a3.51,3.51,0,0,0,.17,1.21,1.26,1.26,0,0,0,.85.83c.64.13,1.22-.43,1.48-1a16.61,16.61,0,0,1,.66-1.83,1.33,1.33,0,0,0,.23,1.79A1.62,1.62,0,0,0,89.59,120.13Z" fill="#fff"/><path d="M86.3,121.36a1.53,1.53,0,0,1-.3,0,1.74,1.74,0,0,1-1.22-1.14s0-.07,0-.11a3.38,3.38,0,0,1-1,1A1.55,1.55,0,0,1,82,121c-1.05-.73-1.21-2.74-1.31-4.07l0-.36c-.23-2.51,0-5.91,2.68-7.85,2.17-1.61,5.81-2.55,8.66-.83,1.39.84,1.38,2.68,1.26,4,0,.42-.06.91-.09,1.44-.1,2.56-.25,6.06-2.62,7.1a2.43,2.43,0,0,1-1,.21h0a2.23,2.23,0,0,1-1.46-.47L88,120A2.07,2.07,0,0,1,86.3,121.36Zm-.74-3.46,0,.88a3.28,3.28,0,0,0,.14,1.06.76.76,0,0,0,.49.51c.34.07.73-.32.91-.74a5.53,5.53,0,0,0,.24-.72l.15-.5a1.65,1.65,0,0,1,.35-.73.5.5,0,0,1,.81.57,2.54,2.54,0,0,0-.18.41.38.38,0,0,0,0,.15.89.89,0,0,0,.3.6,1.1,1.1,0,0,0,.79.24h0a1.62,1.62,0,0,0,.58-.12c1.8-.79,1.93-3.93,2-6.23,0-.55,0-1.06.08-1.49.16-1.66-.09-2.62-.77-3-2.35-1.42-5.58-.69-7.56.77-2.25,1.67-2.48,4.7-2.28,7l0,.37c.08.93.23,2.87.89,3.33a.55.55,0,0,0,.63,0,3.3,3.3,0,0,0,1.35-2.27h0a.5.5,0,0,1,.48-.51.52.52,0,0,1,.52.49Z" fill="#231f20"/><path d="M315,105.91s6.14,29.51-1.13,31.43C304,140,263,129.94,263,129.94s-10.7,2.63-12.57-.19,0-6.76.94-7,9-.8,9-.8-6.56-4.83-4.5-5.2,9.39,2.06,9.39,2.06,40.16,3,39.79.92-2.23-9.9-2.23-9.9" fill="#fff"/><path d="M309.3,138.28c-13.85,0-43.71-7.21-46.26-7.83-1.58.38-11,2.51-13-.42a6.39,6.39,0,0,1-.33-5.83c.16-.4.77-1.72,1.59-1.89s5.41-.52,7.75-.71c-1.95-1.51-4.27-3.57-4-4.63a.88.88,0,0,1,.79-.66c2.08-.38,8.57,1.73,9.57,2.06,14.08,1,36.71,2.28,39.16,1.28-.44-2.32-2.15-9.58-2.17-9.66a.5.5,0,1,1,1-.23c.08.32,1.86,7.88,2.23,9.93a.64.64,0,0,1-.17.57c-1.62,1.81-31.14-.23-40.15-.9l-.12,0c-2-.67-7.46-2.32-9.1-2.06.25.68,2.3,2.57,4.67,4.32a.51.51,0,0,1,.19.54.52.52,0,0,1-.45.36c-2.23.17-8.2.65-8.95.79a3.31,3.31,0,0,0-1,1.68,5.23,5.23,0,0,0,.38,4.5c1.23,1.84,8,1,12,0a.49.49,0,0,1,.24,0c.41.1,40.93,10,50.62,7.41,5.59-1.48,2.45-22.77.77-30.85a.5.5,0,0,1,1-.2c.64,3.07,6,30-1.49,32A19.22,19.22,0,0,1,309.3,138.28Z" fill="#231f20"/><line x1="302.86" y1="109.88" x2="298.33" y2="90.71" fill="#231f20"/><path d="M302.86,110.38a.5.5,0,0,1-.48-.39l-4.53-19.17a.49.49,0,0,1,.37-.6.51.51,0,0,1,.6.37l4.53,19.17a.5.5,0,0,1-.37.6Z" fill="#231f20"/><path d="M198.51,59.13a.47.47,0,0,1-.38-.2.46.46,0,0,1,.12-.64,2.29,2.29,0,0,0,1-2.21,7.94,7.94,0,0,1-.66-2,.46.46,0,0,1,.84-.32,5.36,5.36,0,0,1,.71,2,1.42,1.42,0,0,0,.55.62.45.45,0,0,0,.48-.07c.91-.54,0-3.75-.86-5.74a.45.45,0,0,1,.23-.6.47.47,0,0,1,.61.23c.42.95,2.42,5.74.49,6.89a1.32,1.32,0,0,1-1.32.12,1,1,0,0,1-.23-.13,3.14,3.14,0,0,1-1.34,1.93A.5.5,0,0,1,198.51,59.13Z" fill="#231f20"/><path d="M147,217.27a.45.45,0,0,1-.44-.34l-8.92-33.33A.46.46,0,0,1,138,183a.46.46,0,0,1,.56.33l8.92,33.33a.46.46,0,0,1-.32.56Z" fill="#fff"/></g></svg>